<?xml version="1.0" encoding="UTF-8" standalone="no"?>
<svg
   xmlns:dc="http://purl.org/dc/elements/1.1/"
   xmlns:cc="http://creativecommons.org/ns#"
   xmlns:rdf="http://www.w3.org/1999/02/22-rdf-syntax-ns#"
   xmlns:svg="http://www.w3.org/2000/svg"
   xmlns="http://www.w3.org/2000/svg"
   xmlns:sodipodi="http://sodipodi.sourceforge.net/DTD/sodipodi-0.dtd"
   xmlns:inkscape="http://www.inkscape.org/namespaces/inkscape"
   id="svg8"
   version="1.1"
   viewBox="0 0 960 500"
   height="500"
   width="960"
   sodipodi:docname="eecs.svg"
   inkscape:version="0.92.2 5c3e80d, 2017-08-06">
  <sodipodi:namedview
     pagecolor="#ffffff"
     bordercolor="#666666"
     borderopacity="1"
     objecttolerance="10"
     gridtolerance="10"
     guidetolerance="10"
     inkscape:pageopacity="0"
     inkscape:pageshadow="2"
     inkscape:window-width="1573"
     inkscape:window-height="878"
     id="namedview17"
     showgrid="false"
     units="px"
     inkscape:zoom="1.0364583333"
     inkscape:cx="480"
     inkscape:cy="250"
     inkscape:window-x="0"
     inkscape:window-y="0"
     inkscape:window-maximized="0"
     inkscape:current-layer="svg8" />
  <defs
     id="defs2" />
  <metadata
     id="metadata5">
    <rdf:RDF>
      <cc:Work
         rdf:about="">
        <dc:format>image/svg+xml</dc:format>
        <dc:type
           rdf:resource="http://purl.org/dc/dcmitype/StillImage" />
        <dc:title></dc:title>
      </cc:Work>
    </rdf:RDF>
  </metadata>
  <g
     transform="translate(0,217.9650262)"
     id="layer1">
    <g
       transform="matrix(1.4904387863,0,0,1.4904387863,-114.55727486,16.173183453)"
       id="g1678">
      <g
         id="g698"
         transform="matrix(0.52397304357,0,0,-0.52397304357,67.995953561,60.574182838)">
        <path
           id="path696"
           d="m 115,99 v 28 q -12,-11 -20,-23 -4,-8 -12,2 -2,2 -1,3 0,1 3,1 8,0 30,22 v 10 q 0,4 -1,9 v 13 q -30,-8 -39,-13 -9,-5 -12,-2 -2,1 -2,2 0,1 3,2 15,5 49,14 -1,1 -1,3 -1,6 -2,8 -16,-1 -21,1 -7,1 0,2 23,2 37,9 10,4 24,1 1,-1 1,-2 0,-1 -1,-1 -14,-5 -33,-9 1,-1 3,-5 2,-4 4,-4 62,6 77,-1 14,-8 21,-28 1,-5 -1,-6 -2,-2 -5,0 -11,5 -17,4 -10,-1 -27,0 -18,2 -31,5 -5,-3 -13,-7 -5,-2 -7,-3 v -16 q 0,0 1,-17 -2,-5 -5,-6 -2,0 -2,4 z m 7,-57 q -1,-16 1,-24 2,-19 23,-24 30,-7 69,2 3,1 3,2 l -1,2 q -11,19 -24,31 -5,6 2,2 19,-13 27,-23 5,-8 14,-12 1,-1 1,-2 -1,-1 -4,-2 -57,-10 -88,-3 -23,7 -26,26 -4,20 -3,24 -6,-2 -14,-4 4,-5 -1,-7 -6,-1 -16,3 -2,1 -3,2 -5,1 -1,7 1,3 0,6 -7,9 -9,12 -2,2 -2,3 -4,9 7,21 3,2 2,-2 -6,-9 -3,-14 0,-2 1,-4 0,-2 1,-3 -1,-3 10,-15 4,-7 11,-7 5,1 17,7 v 17 q -11,-3 -18,-6 -5,-2 -1,2 3,1 9,4 l 10,5 q 0,14 -1,18 -2,-1 -5,-2 -13,-4 -18,-4 -5,-1 -2,1 l 1,1 q 28,11 59,17 10,3 32,-17 2,-2 2,-4 0,-1 -2,-2 -6,-3 -6,-10 -7,-25 -21,-33 -5,-8 -21,9 -4,3 1,1 19,-12 26,0 10,11 7,41 -4,12 -18,12 -11,-1 -28,-8 V 71 q 11,5 22,5 4,-2 2,-5 -12,-2 -23,-6 -1,-8 -1,-17 22,6 32,2 1,-1 1,-2 -1,-1 -3,-1 -10,0 -30,-5 z m 3,125 q -5,-10 -4,-29 19,10 26,24 4,2 7,-2 2,-7 -11,-14 61,-4 67,4 5,6 -8,16 -20,8 -77,1 z M 52,146 v -16 q 2,-6 2,-10 -2,-7 -7,-5 -7,-1 -5,4 2,17 7,27 0,1 1,1 1,0 2,-1 z m 83,-15 q 11,1 34,-13 2,-4 -4,-6 -6,0 -11,4 v 1 q -3,1 -5,1 -3,-1 -3,0 -1,1 1,4 l -7,4 q -2,1 -5,3 -3,1 0,2 z m -28,16 q 3,-2 4,-4 -1,-3 -5,-3 -5,-1 -7,-4 -3,-3 -4,-3 -1,1 1,4 2,2 -7,3 -3,0 -3,1 0,1 3,2 12,3 18,4 z"
           style="fill:currentColor"
           inkscape:connector-curvature="0" />
      </g>
      <g
         id="g959"
         transform="matrix(0.52397304357,0,0,-0.52397304357,193.48589412,58.569852417)">
        <path
           id="path957"
           d="m 142,209 q 4,-2 10,-6 4,-3 0,-8 -6,-7 -23,-36 1,3 -3,-5 27,15 52,15 9,1 18,-12 1,-3 0,-5 -1,-1 -3,0 -11,0 -14,-3 -14,-8 -30,-13 -3,-1 -3,0 -1,1 2,3 21,11 31,22 3,3 2,5 -1,1 -5,1 -20,0 -44,-14 -6,-4 -15,-20 l -1,-2 q -2,-3 -5,1 -2,1 -1,7 1,3 3,3 1,0 3,2 16,26 25,50 4,10 -1,14 -4,3 2,1 z m 1,-118 q 5,0 18,-11 6,-6 0,-8 -8,-3 -6,-11 1,-35 -1,-44 -2,-9 -11,-4 -10,4 -17,9 -26,-29 -55,-43 -7,-2 -1,2 38,19 54,45 -18,-6 -25,-9 -5,-2 -5,5 0,3 4,2 0,-2 4,-1 9,1 27,10 7,2 11,1 1,-1 0,-3 -6,-2 -10,-4 -1,-1 -1,-2 l -1,-1 q 7,-5 17,-2 7,-1 6,10 -2,17 -3,27 0,11 1,21 -1,8 -6,9 -4,-1 -7,-2 -7,-1 -12,-3 -7,-4 -9,-3 -3,0 0,2 17,7 28,8 z m -13,46 h 7 q 3,-1 4,-3 0,-1 -1,-3 -2,-2 -2,-3 5,-6 10,-10 l 17,-17 q 5,-7 17,-6 13,-1 26,-7 3,-2 0,-2 h -6 q -17,2 -25,1 -8,-1 -13,7 -10,12 -29,30 0,-2 -1,-2 -4,-11 -23,-26 -7,-3 -2,2 14,12 20,26 3,5 0,7 -5,4 1,6 z m -25,6 Q 91,112 67,81 q -2,-4 -5,0 -6,7 -3,14 1,4 1,0 2,-5 7,0 21,24 36,49 6,7 2,-1 z M 134,5 q -6,3 1,2 40,-15 49,-29 1,-5 -5,-7 -5,1 -10,8 -14,14 -35,26 z M 65,170 q 19,-5 24,-11 2,-3 1,-5 -1,-1 -4,-1 -12,1 -18,-21 -3,-6 -2,0 6,18 6,26 1,5 -9,11 -4,2 2,1 z M 106,68 q 1,-8 1,-18 1,-7 2,-9 5,-1 6,2 5,3 16,6 1,-2 0,-3 -8,-4 -13,-8 -3,-3 -4,-2 -1,0 1,3 h -6 v -4 q 1,-3 2,-4 0,-2 -1,-3 -1,0 -2,1 -9,10 -6,15 1,2 2,15 0,4 1,9 0,3 1,0 z m 21,-1 q 2,-1 -1,-2 -1,-1 -3,-1 l -8,-4 q -2,-1 -1,1 3,6 13,6 z"
           style="fill:currentColor"
           inkscape:connector-curvature="0" />
      </g>
      <g
         id="g1076"
         transform="matrix(0.52397304357,0,0,-0.52397304357,315.81395696,56.49465313)">
        <path
           id="path1074"
           d="m 140,216 q 7,-4 4,-7 -7,-8 -14,-20 5,-2 14,-4 1,-1 1,-2 0,-1 -2,-1 -3,-1 -7,-1 -4,1 -9,3 -8,-8 -15,-10 -4,-1 -1,1 5,5 10,11 l -6,2 q -4,1 -6,3 -3,1 1,2 8,-2 14,-3 14,20 13,26 0,1 3,0 z m 56,-31 q 3,-7 -3,-7 -8,0 -9,-7 -4,-22 -14,-48 h 22 14 q 4,0 14,-11 1,-2 1,-3 -1,-1 -2,0 -5,1 -12,0 -10,-2 -19,-3 -4,0 -4,1 0,1 4,2 9,2 18,7 2,1 2,3 -1,1 -3,2 h -15 -20 q -2,-2 -2,-5 -1,-2 -2,-2 -1,0 -1,2 -1,1 -2,5 -55,-6 -96,-19 -6,-2 0,2 2,0 6,2 l 15,5 q -6,10 -9,12 -3,3 -1,6 2,1 2,5 -6,32 -11,36 l -1,2 q 1,1 3,1 9,-8 8,-12 -1,-6 1,-12 1,-7 4,-15 7,1 12,8 3,4 8,9 3,1 2,-2 -8,-13 -21,-17 4,-13 6,-20 23,5 71,11 -2,0 -3,2 -3,2 2,2 6,-3 9,2 9,27 10,58 0,7 -5,6 -8,-1 -13,-2 -7,-2 -8,-1 -5,0 0,2 11,3 25,3 3,1 17,-10 z m -92,2 q 3,-2 0,-4 -8,-3 -15,-6 -4,-2 -2,2 -1,6 17,8 z m 65,-16 q 2,-3 -2,-4 -6,1 -13,-2 -5,0 -3,3 6,7 18,3 z m -70,-4 q 1,0 0,-3 -8,-2 -11,-7 -3,-3 -1,0 v 2 q -3,-1 0,2 7,6 12,6 z m 34,0 q 1,0 5,-3 1,-1 1,-2 0,-1 -1,-1 -3,-2 -8,-9 0,-1 1,-2 10,-7 13,-12 1,-3 0,-4 -2,-2 -4,0 -9,8 -15,12 -7,-7 -13,-11 -6,-3 -2,2 6,5 11,13 -2,0 -4,2 -4,2 -7,5 -4,2 1,2 9,-3 14,-5 6,9 6,11 -2,2 2,2 z m 34,-16 q 1,-1 -1,-2 l -16,-4 q -2,1 1,4 5,2 16,2 z m -29,-49 q 1,6 7,3 3,-2 8,-4 1,-1 2,-1 3,-2 3,-4 0,-1 -3,-3 -6,-3 -8,-9 -7,-15 -13,-24 9,-6 6,-7 -3,-3 -1,-8 31,4 46,6 -2,3 8,6 6,3 8,-1 1,-4 7,-5 8,-3 18,-10 0,-5 -5,-3 -21,14 -31,11 -21,-2 -51,-7 5,-49 -9,-68 -6,-8 -11,-6 -10,2 -22,7 -5,4 1,2 3,0 9,-1 10,-1 14,-1 3,-1 9,6 10,14 6,61 -33,-6 -69,-14 -8,-2 -16,-3 -12,-3 -21,0 -4,1 1,2 8,-1 30,3 23,5 59,11 7,1 15,3 -1,10 -9,15 -4,1 1,2 h 4 q 0,3 3,9 6,13 6,22 0,2 -1,2 h -3 q -25,-12 -34,-20 -4,-4 -5,-2 -1,1 -1,8 -1,2 1,1 2,-2 9,1 14,7 28,13 3,1 4,7 z M 45,89 h 1 q 2,3 1,0 -4,-14 3,-16 3,-3 0,-5 -2,-3 -4,0 -8,13 -1,21 z"
           style="fill:currentColor"
           inkscape:connector-curvature="0" />
      </g>
      <g
         id="g1361"
         transform="matrix(0.52397304357,0,0,-0.52397304357,449.50611814,59.884612687)">
        <path
           id="path1359"
           d="m 115,159 q 11,-5 19,-9 3,-3 2,-12 -2,-15 -3,-30 V 98 q 31,6 52,9 0,6 5,6 4,1 8,0 8,-5 19,-9 5,-3 8,-5 2,-2 0,-5 -1,-4 -5,-4 -11,1 -23,8 -5,2 -10,2 h -13 q -14,-2 -41,-7 -1,-5 -1,-10 -2,-20 -3,-28 -1,-8 1,-12 11,1 24,1 0,4 5,5 7,3 10,0 5,-6 15,-9 6,-3 12,-8 1,-1 0,-5 -2,-4 -4,-3 h -3 q -4,1 -10,4 -10,8 -28,8 -36,-1 -60,-16 -6,-3 -9,0 -1,1 0,2 2,4 2,8 l 2,1 q 1,1 5,4 2,1 4,0 h 4 q 9,1 19,6 5,12 5,50 -7,-2 -23,-6 -34,-8 -58,-14 -13,-6 -24,5 -1,2 1,1 7,-6 34,2 44,11 70,17 0,9 -2,33 -1,23 -7,28 -3,2 1,2 z"
           style="fill:currentColor"
           inkscape:connector-curvature="0" />
      </g>
      <g
         id="g1634"
         transform="matrix(0.52397304357,0,0,-0.52397304357,574.85370325,54.497979534)">
        <path
           id="path1632"
           d="m 131,36 q 13,0 27,1 5,0 9,1 3,2 4,9 v 10 q 1,24 0,29 -1,-1 -2,-1 -15,-3 -22,-2 -3,1 0,2 4,1 12,2 7,1 12,3 -2,28 -9,34 -3,1 -2,2 1,1 4,1 3,-1 7,-3 2,-1 5,-2 6,-3 2,-9 -1,-2 -1,-16 1,-4 1,-5 6,0 8,5 2,4 8,3 12,-1 17,-5 2,-3 -4,-3 -9,2 -29,-5 -1,-4 -1,-17 -1,-24 -2,-31 h 14 q 10,1 14,1 4,-1 6,6 2,4 10,0 13,-6 25,-15 1,-2 0,-4 -1,-2 -3,-1 -7,1 -15,7 -5,4 -16,4 -25,0 -35,-1 -4,-5 -5,-5 -1,-1 -3,4 -3,-1 -8,-1 -10,-1 -15,-2 -6,-1 -13,0 v 1 q -2,0 -2,1 0,1 2,2 z M 82,-21 q -2,1 -3,1 0,1 2,2 50,26 43,163 -2,33 -7,41 -3,3 2,2 2,-3 8,-7 l 6,-3 q 3,-3 0,-6 -3,-4 -2,-8 Q 131,62 121,27 113,-7 82,-21 Z M 65,128 q 14,-12 12,-13 -1,-2 -2,-9 -1,-5 -1,-6 8,7 18,9 3,-4 -1,-7 -3,-1 -11,-6 -4,-3 -6,-4 -3,-25 -1,-49 6,3 21,13 7,4 13,8 9,5 2,-2 -38,-30 -64,-43 -8,-4 -10,3 -2,4 1,5 0,-1 1,-1 3,-1 6,0 l 10,5 q 10,6 19,11 -5,4 -7,18 -2,7 1,9 1,1 2,19 -3,-1 -13,-7 -4,-2 -5,-3 -4,-3 -11,0 -3,1 0,2 11,2 29,15 v 21 q -1,6 -5,11 -2,3 2,1 z m 27,30 6,-3 q 4,-1 5,-1 1,-1 1,-3 0,-1 -1,-1 -8,1 -35,-13 -4,-2 -4,-1 -1,0 3,4 4,3 -1,2 -14,-5 -28,-4 -2,0 -2,1 0,1 2,2 3,-1 10,0 6,1 14,4 10,5 19,8 3,1 5,4 1,3 6,1 z m 96,0 q 4,3 8,2 4,-1 12,-2 2,-1 2,-3 -1,-2 -3,-2 -22,-2 -42,-14 -7,-3 -1,2 l 2,1 2,2 q 4,2 -1,2 -8,-3 -25,0 -3,1 1,2 34,0 45,10 z m -87,-42 q 0,3 2,0 6,-13 9,-33 0,-8 -2,-7 -4,-3 -4,-1 -7,10 -8,20 -1,5 1,4 1,-1 1,2 1,4 1,9 z"
           style="fill:currentColor"
           inkscape:connector-curvature="0" />
      </g>
    </g>
  </g>
</svg>
