<?xml version="1.0" encoding="UTF-8" standalone="no"?>
<svg
   xmlns:dc="http://purl.org/dc/elements/1.1/"
   xmlns:cc="http://creativecommons.org/ns#"
   xmlns:rdf="http://www.w3.org/1999/02/22-rdf-syntax-ns#"
   xmlns:svg="http://www.w3.org/2000/svg"
   xmlns="http://www.w3.org/2000/svg"
   xmlns:sodipodi="http://sodipodi.sourceforge.net/DTD/sodipodi-0.dtd"
   xmlns:inkscape="http://www.inkscape.org/namespaces/inkscape"
   version="1.1"
   viewBox="0 -52 768 256"
   id="svg6"
   sodipodi:docname="a1.svg"
   width="768"
   height="256"
   inkscape:version="0.92.2 5c3e80d, 2017-08-06">
  <metadata
     id="metadata12">
    <rdf:RDF>
      <cc:Work
         rdf:about="">
        <dc:format>image/svg+xml</dc:format>
        <dc:type
           rdf:resource="http://purl.org/dc/dcmitype/StillImage" />
        <dc:title></dc:title>
      </cc:Work>
    </rdf:RDF>
  </metadata>
  <defs
     id="defs10" />
  <sodipodi:namedview
     pagecolor="#ffffff"
     bordercolor="#666666"
     borderopacity="1"
     objecttolerance="10"
     gridtolerance="10"
     guidetolerance="10"
     inkscape:pageopacity="0"
     inkscape:pageshadow="2"
     inkscape:window-width="932"
     inkscape:window-height="598"
     id="namedview8"
     showgrid="false"
     inkscape:zoom="0.74209383566"
     inkscape:cx="449.81544109"
     inkscape:cy="136.3434276"
     inkscape:window-x="427"
     inkscape:window-y="216"
     inkscape:window-maximized="0"
     inkscape:current-layer="svg6" />
  <g
     transform="matrix(1,0,0,-1,497.86104218,168.74441687)"
     id="g4">
    <path
       d="m 145,99 q -2,4 2,2 7,-4 12,-11 21,4 25,10 0,4 6,1 9,-3 14,-7 2,-5 -2,-5 -20,2 -43,-4 -4,-6 -5,-13 v -2 q 13,-20 40,-46 6,-8 23,-8 17,-2 34,-9 4,-3 -1,-2 -26,3 -40,3 -9,-1 -16,8 -27,26 -41,46 -1,-43 0,-54 1,-14 5,-31 -1,-7 -5,-5 -12,17 -18,34 -1,3 0,3 l 3,-2 q 3,-6 8,-9 3,-1 4,2 -2,16 -2,30 -1,14 0,29 -24,-33 -45,-45 -7,-4 -1,1 31,26 45,57 v 2 8 q -6,-1 -16,-5 -3,-2 -15,1 -4,1 1,2 4,-1 9,1 l 8,2 q 8,3 13,4 -1,7 -2,12 z m -67,6 q -1,2 1,1 14,-11 13,-13 -2,-2 -1,-4 3,0 8,1 4,1 5,2 -1,3 3,3 5,-1 9,-2 2,-1 2,-4 0,-2 -3,-1 -8,2 -25,-3 -2,-7 -1,-14 19,-7 29,-14 1,-1 0,-3 -1,-3 -2,-2 -6,0 -12,5 -1,0 -1,1 L 89,68 Q 88,46 88,33 88,19 89,4 q -1,-12 1,-17 0,-2 -2,-3 -2,0 -4,2 -2,2 -5,8 -6,7 -8,12 -1,1 1,1 4,-4 8,-4 2,-2 3,-2 1,1 1,5 V 23 70 Q 65,29 30,10 25,7 30,12 72,42 83,83 69,79 52,72 49,71 45,70 l -1,-1 q -10,-4 -22,-1 -3,0 0,1 10,2 26,7 23,8 35,11 -1,3 -1,2 0,10 -4,16 z m 33,102 q 1,-1 3,-2 5,-2 7,-3 5,-4 2,-7 -2,-4 -2,-9 0,-5 1,-15 6,1 19,3 4,1 6,2 5,0 6,4 1,5 10,2 2,-2 8,-4 h 4 q 2,-2 1,-4 0,-1 -3,-1 -16,4 -50,-6 v -6 q 10,-8 5,-9 -4,-3 -6,-5 v -25 q -2,-15 1,-25 0,-3 -1,-4 -2,-1 -3,1 -8,13 -4,20 v 6 q 0,8 1,23 -13,-11 -33,-26 -23,-17 -33,-25 -8,-6 -2,0 15,15 41,37 19,15 27,26 0,2 -1,5 v 5 l -6,-2 q -19,-4 -27,-7 -7,-3 -21,1 -3,0 -3,1 0,1 3,2 27,2 54,10 -1,28 -7,35 -2,2 -1,2 1,1 4,0 z m 30,-64 q 45,-1 61,-19 0,-5 -5,-3 -5,3 -18,3 -4,-1 -4,0 -1,1 2,4 2,1 -3,4 -9,3 -28,6 -4,1 -5,2 -3,0 -3,1 0,1 3,2 z"
       id="path2"
       inkscape:connector-curvature="0"
       style="fill:currentColor" />
  </g>
  <g
     id="g568"
     transform="matrix(1,0,0,-1,248.36545354,171.74855252)">
    <path
       id="path566"
       d="m 88,192 q 5,-4 2,-8 -3,-4 -5,-28 -1,-12 -1,-19 l 4,2 q 8,5 13,5 3,-1 4,-2 0,-2 -2,-2 -9,-5 -19,-9 0,-18 -1,-25 11,9 9,3 -2,-2 -5,-6 -3,-2 -4,-3 -2,-28 -3,-56 -1,-28 0,-55 0,-3 -5,-4 -4,1 -4,4 0,8 -11,13 -1,0 -3,2 -5,5 -8,10 -2,2 -1,3 1,1 3,0 10,-10 19,-14 2,-2 3,-1 1,0 1,3 2,23 3,71 0,9 1,20 Q 41,64 21,55 8,46 5,59 q -2,3 2,2 4,-4 15,2 21,10 56,39 -1,19 1,27 -18,-6 -35,-14 -13,-5 -25,-1 -3,0 -2,2 0,1 3,2 15,-1 26,5 6,2 33,12 1,35 0,45 0,10 -3,19 -2,2 -1,3 2,2 4,1 3,-4 7,-10 1,-1 2,-1 z M 198,96 q -2,0 1,1 10,0 8,-5 -18,-23 -52,-43 -2,0 -1,1 9,5 33,30 l 6,6 q 8,7 5,10 z m -25,37 2,1 4,4 q 2,5 7,3 8,-2 14,-4 1,-1 1,-3 -2,-2 -3,-1 -4,3 -44,-13 -12,-3 -21,-1 -4,0 1,2 11,2 39,12 z m -26,-41 8,-4 q -8,-11 -11,-32 -5,-42 2,-64 0,-3 2,-3 2,0 4,3 11,17 19,32 2,5 6,12 2,3 3,5 -1,0 -2,1 -1,2 -6,6 -3,1 1,2 45,-28 63,-50 2,-2 -5,-2 -3,1 -2,1 -4,1 -6,1 -7,5 -9,10 -9,10 -31,29 l -8,-16 q -3,-9 -14,-27 -2,-3 -3,-7 -1,0 -3,-9 -1,-1 -1,-2 h -2 q -10,4 -11,12 -7,34 0,73 0,4 1,9 2,16 1,18 -2,0 -5,-2 h -2 Q 126,85 119,84 104,20 85,-20 q -3,-1 -3,1 17,38 32,103 h -1 q -2,0 -2,1 0,1 2,2 h 2 q 5,28 5,39 v 1 q 0,10 7,16 16,15 38,26 4,2 -1,1 -25,-9 -44,-12 -6,-1 -13,1 -2,1 -3,2 -3,0 -2,1 1,1 4,2 19,-1 61,12 17,4 24,9 3,2 8,1 l 9,-3 q 1,-1 3,-1 2,-2 2,-4 -1,-2 -3,-2 -10,0 -34,-7 -14,-4 -37,-20 -11,-7 -11,-18 -2,-13 -8,-42 22,5 45,11 24,7 32,9 4,1 5,4 4,7 12,5 14,-8 18,-11 2,-2 0,-5 -3,-3 -5,-1 -11,8 -21,5 -32,-5 -51,-12 z"
       inkscape:connector-curvature="0"
       style="fill:currentColor" />
  </g>
  <g
     id="g619"
     transform="matrix(1,0,0,-1,-46.168911734,141.24057072)">
    <path
       id="path617"
       d="m 114.25558313,35.838709677 q 1,-9 5,-15 1,-4 4,-11.9999999996 3,-12 7,-18 1,0 4,-2.0000000004 2,-1 4,-1 3,1 12,3.0000000004 8,2 12,4 3,3 12,8 17,8.9999999996 25,36.9999999996 3,5 -5,7 -17,0 -43,-10 -14,-5 -12,-8 0,-3 -9,-1 -3,-1 -4,0 0,1 3,3 1,0 3,1 l 4,2 q 16,28 24,44 -2,-1 -5,-2 -15,-4 -18,-7 -5,-2 -6,3 -3,5 -8,9 -9,3 -8,9 v 6 q 2,9.000000003 2,12.000000003 0,4 1,4 2,1 3,-2 5,-14.000000003 13,-24.000000003 3,-9 11,-8 1,2 7,7 10,4 34,34.000000003 0,4 -3,4 -13,-2 -35,-11 -10,-4 -16,-3 v 1 q -3,0 -3,1 0,1 3,2 9,0 17,5 20,5 34,9 7,1 13,0 5,-6 2,-10 -8,-5 -12,-11 l -4,-4 q -8,-8.000000003 -12,-11.000000003 7,0 11,-1 h 8 q 2,-4 -1,-5 -8,-2 -11,-4 -2,-2 -6,-4 -5,-2 -5,-3 -7,-7 -22,-32 l -3,-6 q 33,14 57,15 3,1 21,-14 3,-5 -1,-7 -3,-3 -9,-8 -8,-8 -11,-9 -3,-2 -15,-10.9999999996 -5,-4 -7,-6 l 8,-2 q 2,-1 5,1 1,0 13,-2 5,-3.0000000004 6,-6.0000000004 -4,-5 -7,-2 -20,8.0000000004 -46,3 -12,-3 -10,-5 0,-4 -7,-3 -9,0 -12,6 -5,1 -9,5.0000000004 -2,1 4,7 -3,3.00000000002 -6,9 -4,5.9999999996 -5,7.9999999996 -5,1 -5,11 0,4 5,10 2,2 3,2 1,0 1,-2 z"
       inkscape:connector-curvature="0"
       style="fill:currentColor" />
  </g>
</svg>
