<?xml version="1.0" encoding="UTF-8" standalone="no"?>
<svg
   xmlns:dc="http://purl.org/dc/elements/1.1/"
   xmlns:cc="http://creativecommons.org/ns#"
   xmlns:rdf="http://www.w3.org/1999/02/22-rdf-syntax-ns#"
   xmlns:svg="http://www.w3.org/2000/svg"
   xmlns="http://www.w3.org/2000/svg"
   xmlns:sodipodi="http://sodipodi.sourceforge.net/DTD/sodipodi-0.dtd"
   xmlns:inkscape="http://www.inkscape.org/namespaces/inkscape"
   version="1.1"
   viewBox="0 -52 768 256"
   id="svg6"
   sodipodi:docname="a2.svg"
   width="768"
   height="256"
   inkscape:version="0.92.2 5c3e80d, 2017-08-06">
  <metadata
     id="metadata12">
    <rdf:RDF>
      <cc:Work
         rdf:about="">
        <dc:format>image/svg+xml</dc:format>
        <dc:type
           rdf:resource="http://purl.org/dc/dcmitype/StillImage" />
        <dc:title></dc:title>
      </cc:Work>
    </rdf:RDF>
  </metadata>
  <defs
     id="defs10" />
  <sodipodi:namedview
     pagecolor="#ffffff"
     bordercolor="#666666"
     borderopacity="1"
     objecttolerance="10"
     gridtolerance="10"
     guidetolerance="10"
     inkscape:pageopacity="0"
     inkscape:pageshadow="2"
     inkscape:window-width="963"
     inkscape:window-height="670"
     id="namedview8"
     showgrid="false"
     inkscape:zoom="1.08984375"
     inkscape:cx="384"
     inkscape:cy="128"
     inkscape:window-x="0"
     inkscape:window-y="0"
     inkscape:window-maximized="0"
     inkscape:current-layer="svg6" />
  <g
     transform="matrix(1,0,0,-1,245.90681004,164.54480286)"
     id="g4">
    <path
       d="m 108,194 q 4,4 17,0 3,-1 3,-3 0,-1 -3,-2 Q 113,179 88,132 60,78 23,36 q -6,-6 -1,1 50,70 82,137 9,19 4,15 -3,0 -3,1 0,2 3,4 z m 22,-14 q 9,-2 18,-18 17,-33 42,-57 5,-8 14,-5 15,0 24,-1 8,-1 21,-4 3,-2 4,-3 -1,-1 -4,0 h -21 -17 q -10,-3 -20,8 -27,26 -47,62 -8,10 -14,16 -5,1 0,2 z m 11,-63 q 3,-2 9,-3 3,-1 3,-3 0,-2 -3,-3 -12,-3 -35,-13 -3,-1 -4,-1 -7,-3 -21,-1 -3,0 -3,2 0,2 3,3 33,6 41,16 3,7 10,3 z M 112,84 q 15,-6 13,-11 9,1 11,5 l 1,1 q 0,4 9,3 11,1 20,-7 2,-2 1,-4 -1,-2 -4,-1 -16,3 -38,-3 -2,-10 -1,-19 20,6 37,9 4,0 10,-4 2,-2 1,-4 0,-1 -2,-1 -5,0 -16,-8 -16,-11 -31,-20 0,-2 -1,-4 V 8 q -1,-5 -3,-5 -1,0 -3,5 -2,3 -3,8 -3,-2 -7,-3 -3,-1 -3,0 0,1 3,3 3,1 6,3 -1,4 2,10 1,2 1,9 -15,-7 -22,-18 -3,-5 -6,0 -5,9 1,17 3,3 1,-1 -2,-5 4,-4 5,3 16,9 l 6,3 q -1,7 -2,19 -3,-1 -5,-2 -8,-2 -11,-4 -9,-4 -17,1 -3,0 -3,1 0,1 3,2 10,0 33,8 -1,5 -4,10 v 3 q -2,2 -1,2 1,1 4,0 z m 43,-34 q 2,1 1,3 -1,1 -4,0 -14,-3 -28,-11 0,-13 -1,-17 18,10 32,25 z M 174,6 q 5,6 12,2 9,-7 16,-7 7,-1 12,-6 1,-2 1,-4 -1,-1 -3,-2 -8,0 -17,8 -4,3 -9,3 H 165 Q 95,0 52,-15 45,-17 37,-16 h -1 q -6,1 0,2 11,1 29,6 43,11 98,10 9,-1 11,4 z"
       id="path2"
       inkscape:connector-curvature="0"
       style="fill:currentColor" />
  </g>
  <g
     id="g100"
     transform="matrix(1,0,0,-1,-0.20609318968,166.0718638)">
    <path
       id="path98"
       d="m 116,211 q 2,-2 5,-3 l 6,-2 q 5,-4 2,-7 -3,0 -1,-24 6,1 19,3 4,1 6,2 4,1 6,4 1,5 9,2 3,-2 9,-4 h 3 q 3,-2 2,-4 -1,-1 -4,-1 -16,4 -49,-6 v -6 q 9,-7 5,-9 -4,-3 -6,-5 0,-4 -1,-11 -1,-7 0,-10 -4,-16 1,-24 1,-3 -1,-5 -2,-1 -3,1 -8,13 -4,21 2,5 2,24 -41,-30 -66,-53 -4,-3 -5,-2 -1,1 3,5 57,46 67,62 v 10 q -4,-1 -10,-3 -16,-3 -23,-5 -7,-4 -21,0 -5,1 -1,2 l 1,1 q 27,2 54,10 -1,25 -7,35 -4,4 2,2 z m 30,-65 q 51,-1 62,-16 -1,-5 -6,-3 -5,3 -17,3 -5,-1 -5,0 -1,1 2,3 1,1 0,2 0,1 -2,2 -16,6 -33,8 -5,0 -1,1 z m 1,-36 q 8,-3 14,-6 4,-3 4,-4 0,-2 -4,-5 -7,-4 -24,-28 6,-1 5,-4 0,-1 -1,-3 0,-6 1,-10 10,1 19,2 15,2 28,4 1,9 10,6 2,-3 9,-5 10,-3 21,-7 2,-2 2,-4 -1,-2 -3,-2 -12,2 -17,7 -8,3 -14,3 -40,-5 -55,-8 3,-30 2,-39 -1,-8 -8,-24 -3,-9 -12,-8 -22,0 -35,5 -6,4 1,2 24,-3 37,3 19,17 9,60 Q 73,34 52,28 43,25 33,27 q -3,0 -3,1 0,1 3,2 52,9 103,18 -4,17 -11,16 -3,0 -3,1 0,1 3,2 2,1 7,1 7,12 13,28 0,4 -1,5 -1,1 -5,-1 -31,-18 -42,-28 -5,-5 -7,1 -5,6 -1,8 1,0 5,6 -3,-5 2,2 4,4 2,-1 -2,-4 -2,-5 1,-1 4,1 13,7 34,16 6,2 6,7 -1,6 7,3 z"
       inkscape:connector-curvature="0"
       style="fill:currentColor" />
  </g>
  <g
     id="g157"
     transform="matrix(1,0,0,-1,506.61827957,165.32840502)">
    <path
       id="path155"
       d="m 128,206 q 7,-2 15,-8 1,-2 -1,-4 -2,-2 -1,-5 -1,-4 -1,-9 -1,-7 -1,-9 h 3 q 3,1 4,2 0,1 6,2 -1,0 3,1 5,1 19,-2 2,-1 2,-5 0,-5 -6,-3 -10,1 -31,-7 -2,-10 -2,-22 5,1 13,2 7,1 13,3 14,5 34,-15 1,-1 0,-6 -1,-3 -5,-2 -4,2 -14,-14 Q 158,77 136,84 V 68 l 21,3 q 12,2 18,4 4,4 8,4 3,-2 11,-6 5,-3 8,-6 4,-2 1,-6 -4,-6 -13,2 -7,7 -23,4 -6,-1 -19,-3 -9,-2 -12,-2 -1,-11 1,-32 -1,-9 6,-14 4,-5 0,-7 -5,-3 -9,2 -4,5 -8,7 -3,1 -2,4 0,2 2,4 1,0 2,1 3,1 3,8 0,13 -1,25 -12,-3 -24,-7 -15,-7 -32,-2 -2,0 -2,1 0,1 2,2 13,1 24,4 6,1 12,3 13,4 20,5 -2,6 -1,22 -1,-1 -4,-1 -4,-1 -5,-1 -8,-7 -12,-2 -8,4 -13,10 -3,4 0,8 1,1 0,4 -3,5 -8,12 -5,5 2,13 4,2 10,9 10,9 27,20 -7,-3 -16,-4 -8,-1 -23,0 -3,0 -3,1 0,1 3,2 18,3 41,9 -1,14 1,25 0,7 -3,11 -2,3 2,2 z m 0,-51 q -26,-15 -33,-23 -5,-6 -1,-9 11,7 34,12 z m 40,-18 q -18,-3 -31,-6 -2,-5 -1,-11 5,2 14,3 2,0 3,-1 v -3 q 0,-3 -3,-4 -8,-4 -15,-10 v -8 q 7,1 9,3 h 1 q 1,1 4,2 8,1 10,-1 10,11 15,25 3,10 -6,11 z m -40,-8 q -3,-1 -7,-3 -6,-2 -10,-3 l -1,-1 q -6,-3 -14,-2 1,-3 3,-8 2,-5 4,-7 12,4 25,11 z m 0,-21 q -17,-7 -23,-6 1,-3 4,-6 2,-1 3,-1 3,-1 6,-4 1,0 3,1 5,2 8,3 0,6 -1,13 z m 27,-13 q -3,0 -13,-3 -4,-2 -6,-2 9,-6 19,5 z M 20,154 q -2,2 1,3 20,0 27,-5 2,-1 1,-8 -2,-3 -4,-2 -5,1 -6,3 -8,7 -19,9 z M 38,82 q 11,8 20,5 2,0 1,-4 Q 58,80 56,81 44,77 42,65 40,35 62,44 q 1,2 5,1 5,0 14,-3 0,-2 -2,-5 -5,-2 -11,-10 -2,-4 2,-4 19,1 78,-23 25,-11 48,-4 17,4 27,4 11,0 27,-3 3,0 3,-1 -1,-2 -4,-3 -7,0 -38,-6 -7,-2 -10,-3 -16,-3 -28,0 -9,3 -28,12 Q 108,10 80,16 62,18 47,9 46,8 44,7 37,3 33,3 31,2 31,7 q 1,4 3,4 1,-2 4,2 1,0 6,2 5,3 9,5 6,3 9,12 2,6 -3,6 -25,-5 -22,28 0,3 -1,3 -1,1 -3,0 -14,-8 -30,-10 -2,0 -3,1 0,1 2,2 23,6 30,15 0,2 6,5 z"
       inkscape:connector-curvature="0"
       style="fill:currentColor" />
  </g>
</svg>
