<?xml version="1.0" encoding="UTF-8" standalone="no"?>
<svg
   xmlns:dc="http://purl.org/dc/elements/1.1/"
   xmlns:cc="http://creativecommons.org/ns#"
   xmlns:rdf="http://www.w3.org/1999/02/22-rdf-syntax-ns#"
   xmlns:svg="http://www.w3.org/2000/svg"
   xmlns="http://www.w3.org/2000/svg"
   xmlns:sodipodi="http://sodipodi.sourceforge.net/DTD/sodipodi-0.dtd"
   xmlns:inkscape="http://www.inkscape.org/namespaces/inkscape"
   version="1.1"
   viewBox="0 -52 768 256"
   id="svg6"
   sodipodi:docname="a3.svg"
   width="768"
   height="256"
   inkscape:version="0.92.2 5c3e80d, 2017-08-06">
  <metadata
     id="metadata12">
    <rdf:RDF>
      <cc:Work
         rdf:about="">
        <dc:format>image/svg+xml</dc:format>
        <dc:type
           rdf:resource="http://purl.org/dc/dcmitype/StillImage" />
        <dc:title></dc:title>
      </cc:Work>
    </rdf:RDF>
  </metadata>
  <defs
     id="defs10" />
  <sodipodi:namedview
     pagecolor="#ffffff"
     bordercolor="#666666"
     borderopacity="1"
     objecttolerance="10"
     gridtolerance="10"
     guidetolerance="10"
     inkscape:pageopacity="0"
     inkscape:pageshadow="2"
     inkscape:window-width="1051"
     inkscape:window-height="651"
     id="namedview8"
     showgrid="false"
     inkscape:zoom="1.2044270833"
     inkscape:cx="384"
     inkscape:cy="128"
     inkscape:window-x="0"
     inkscape:window-y="0"
     inkscape:window-maximized="0"
     inkscape:current-layer="svg6" />
  <g
     transform="matrix(1,0,0,-1,271.22567568,166.31045045)"
     id="g4">
    <path
       d="m 163,196 q 2,-3 5,-8 l 2,-2 q 1,-3 0,-6 -19,-52 -43,-79 -3,-2 0,2 16,23 34,72 5,14 0,21 0,1 2,0 z M 87,186 q 8,-3 13,-7 1,-2 -1,-3 -38,-31 -76,-53 -4,0 -1,2 39,25 61,48 7,7 2,12 -2,2 2,1 z m 46,-24 q 1,0 0,-3 -1,-3 -4,-1 -5,0 -9,-1 -5,-2 -14,-4 h -2 -2 q 0,1 2,3 3,2 3,3 0,1 -3,1 -8,1 -16,1 -3,0 0,2 30,3 45,-1 z m -26,-27 q 2,1 3,-1 0,-1 -3,-3 -6,-3 -20,-12 -2,-1 -3,-2 5,-3 8,-6 3,3 6,4 l 1,1 q 3,0 10,2 3,1 5,2 4,1 4,-1 0,-4 -1,-4 -16,-4 -27,-17 -4,-7 -5,-26 5,5 10,12 0,1 2,3 2,2 5,2 3,-1 2,-1 l 4,-1 q 1,-2 0,-3 -3,-1 -5,-8 Q 94,56 92,51 L 86,36 q 0,-7 2,-11 14,22 34,59 1,2 1,0 Q 100,38 85,12 79,6 72,-3 q -2,-2 -2,-4 -2,-2 -4,3 -1,1 -1,2 -1,1 0,2 1,0 4,4 2,5 4,11 0,2 3,8 3,9 5,14 V 60 Q 65,43 67,40 q 0,-3 -2,-2 -3,-1 -3,1 -5,7 -3,14 1,1 2,0 1,-4 2,-3 1,-1 5,3 7,7 13,14 v 14 q 1,8 1,11 -19,-13 -38,-28 -4,-2 -5,-4 -2,-3 -3,-1 -5,3 -3,10 1,2 3,1 -1,-4 5,0 17,10 42,30 1,9 -1,16 -15,-8 -23,-7 -3,0 -2,0 1,0 2,1 16,5 31,17 h -1 q -2,3 1,4 6,3 17,4 z M 85,21 q -2,4 -2,8 -2,-2 -6,-14 -2,-6 0,-6 0,1 2,3 5,6 6,9 z m 0,45 q 0,-2 -1,-7 0,-10 1,-14 5,11 12,33 1,2 -2,1 -6,-8 -10,-13 z m 134,49 q 0,-1 1,-3 3,-4 5,-4 1,-1 1,-3 0,-2 -2,-3 h -1 q -2,-1 -3,-5 v -2 q -15,-78 -32,-97 -3,-2 -3,-5 -1,0 -1,-1 -2,-3 -4,-3 -2,0 -2,1 -7,6 -14,10 -5,0 -8,4 -2,2 2,1 7,-4 18,-5 2,0 1,0 5,-1 8,0 21,26 28,103 1,17 -10,23 -10,6 -34,-3 -3,-1 -7,-3 -11,-5 -12,-4 -2,0 -1,0 0,1 1,2 17,9 35,13 19,5 34,-16 z M 172,87 q 1,0 0,-2 -2,-4 -3,-3 -9,-1 -16,1 -9,1 -17,1 -3,0 0,1 21,6 36,2 z m 1,-34 q 2,-1 1,-3 0,-3 -6,-2 -11,-2 -31,1 -3,1 0,2 11,2 19,2 z"
       id="path2"
       inkscape:connector-curvature="0"
       style="fill:currentColor" />
  </g>
  <g
     id="g88"
     transform="matrix(1,0,0,-1,24.689459464,165.30504505)">
    <path
       id="path86"
       d="m 146,200 q 15,-11 12,-12 -3,-11 -4,-45 v -7 q 17,5 32,8 4,6 10,8 14,-2 22,-7 0,-6 -6,-5 -10,3 -21,1 -10,-1 -36,-10 -1,-8 1,-21 14,-21 38,-46 6,-7 18,-6 22,-1 41,-8 3,-2 0,-2 -10,1 -19,2 -8,1 -23,1 -11,-1 -21,10 l -6,6 q -20,24 -27,35 -1,-50 1,-77 1,-27 4,-45 -1,-4 -6,-2 -5,4 -6,11 -2,10 -5,12 -7,7 -11,16 -2,3 -1,4 1,0 4,-2 7,-11 16,-18 1,-1 2,-1 1,0 2,3 -3,30 -5,77 -1,15 -1,24 -31,-53 -65,-70 -4,-2 -5,-1 0,1 3,4 39,21 66,78 l -3,3 q -3,6 -4,9 -3,-1 -5,-2 -15,-4 -26,-9 -1,-1 -3,-1 -8,-3 -14,0 -3,0 0,2 30,9 53,16 0,33 -2,46 -1,14 -3,19 -1,2 -1,3 1,0 4,-1 z M 76,186 q -2,1 -1,2 2,1 4,0 14,-11 9,-14 -6,-7 -8,-40 16,6 23,6 2,-1 2,-2 1,-2 0,-2 -3,-3 -12,-4 -4,-1 -13,-4 v -4 q 6,-6 3,-9 -3,-2 -4,-4 0,-13 -1,-21 2,-2 8,-4 5,-2 8,-3 3,-5 -1,-7 -4,-4 -15,6 -1,-38 1,-51 1,-13 9,-31 2,-3 -4,-4 -9,4 -12,12 -2,7 -7,15 -3,2 -2,3 0,1 4,2 1,0 3,-1 2,-1 4,0 v 58 q -2,1 -1,1 -3,4 -5,6 Q 41,43 10,27 5,23 9,28 45,52 73,121 v 5 q -24,-8 -43,-15 -13,-7 -28,-3 -2,0 -2,1 0,1 2,2 20,2 72,21 0,19 2,38 1,9 0,14 z m -3,-84 q -2,-5 -4,-9 1,-1 2,-1 1,-1 3,-1 0,4 -1,11 z"
       inkscape:connector-curvature="0"
       style="fill:currentColor" />
  </g>
  <g
     id="g145"
     transform="matrix(1,0,0,-1,525.52013514,170.18906049)">
    <path
       id="path143"
       d="m 140,200 q 0,-2 1,-3 l 2,-2 q 1,-2 0,-5 -15,-31 -28,-39 -2,-1 -1,2 24,29 24,46 -1,2 2,1 z M 85,180 q 13,-1 16,-7 0,-3 -4,-5 -4,3 -7,-1 -10,-11 -9,-20 2,-9 5,-13 3,-5 9,-10 h 2 q 3,-2 3,-6 -4,-2 -4,-1 -1,2 -13,2 -6,-2 -15,3 -2,1 0,2 19,1 16,7 l -3,6 q -1,3 -1,6 -6,11 -2,19 1,2 1,3 h -2 q -7,-2 -17,-1 -5,0 -1,2 16,4 21,8 2,7 5,6 z m 82,-16 q 35,4 43,-17 0,-4 14,-14 0,-3 -3,-4 -5,-1 -7,-14 -2,-58 -35,-119 -4,0 -6,2 1,2 -10,9 -19,15 -22,27 -1,3 1,1 14,-20 30,-25 8,-4 13,4 28,55 24,123 -4,35 -52,23 -10,-3 -18,-3 -2,-1 -5,-2 h -4 q -3,0 0,2 23,5 37,7 z M 54,142 q -1,1 1,2 9,-2 13,-9 -1,-2 -2,-2 -2,0 -3,-8 Q 60,100 59,75 57,50 58,22 56,11 61,8 74,-3 71,-10 q -3,-2 -8,3 -2,4 -8,10 -4,2 -7,8 -1,1 -1,2 -1,1 2,6 l 1,1 q 1,3 4,2 1,6 1,18 v 14 q 1,12 1,19 v 15 q 2,30 2,44 0,9 -4,10 z m 67,-2 q 3,-5 5,-9 1,-1 0,-2 -5,-9 -13,-16 32,9 38,16 1,0 1,1 l -2,2 v 2 q 17,1 23,-5 1,-2 0,-3 -9,-1 -31,-8 -6,-2 -14,-4 -15,-5 -17,-4 -9,-8 -16,-9 -2,-1 -3,0 0,1 2,3 20,16 25,36 z m 35,-32 q 21,-1 25,-5 0,-2 -2,-3 -21,1 -28,-2 l -10,-4 q 0,0 -9,-3 l -2,-8 q -5,-17 -6,-28 2,0 5,1 3,0 6,1 6,1 13,4 h 4 q 3,1 5,2 1,7 -1,15 -1,2 2,1 4,-2 9,-4 2,-2 0,-4 -2,-2 -3,-5 -1,-2 -1,-3 -5,-18 -13,-28 -4,-3 -2,1 5,9 8,24 -9,-4 -26,-8 -32,-7 -41,-15 -3,-3 -5,-1 -3,-1 -2,8 1,2 5,2 3,-1 4,3 2,5 4,11 1,2 2,0 L 95,48 q -1,-3 4,-1 l 9,3 q 6,1 10,3 6,31 4,36 -3,-1 -8,-3 Q 87,78 80,76 76,73 75,75 l -6,3 q -2,1 1,2 5,0 14,2 3,1 5,2 11,3 32,9 -1,7 -5,7 -5,1 -1,2 12,-1 17,-6 l 6,2 q 9,2 13,5 0,6 5,5 z"
       inkscape:connector-curvature="0"
       style="fill:currentColor" />
  </g>
</svg>
