<?xml version="1.0" encoding="UTF-8" standalone="no"?>
<svg
   xmlns:dc="http://purl.org/dc/elements/1.1/"
   xmlns:cc="http://creativecommons.org/ns#"
   xmlns:rdf="http://www.w3.org/1999/02/22-rdf-syntax-ns#"
   xmlns:svg="http://www.w3.org/2000/svg"
   xmlns="http://www.w3.org/2000/svg"
   xmlns:sodipodi="http://sodipodi.sourceforge.net/DTD/sodipodi-0.dtd"
   xmlns:inkscape="http://www.inkscape.org/namespaces/inkscape"
   version="1.1"
   viewBox="0 -52 768 256"
   id="svg6"
   sodipodi:docname="a4.svg"
   width="768"
   height="256"
   inkscape:version="0.92.2 5c3e80d, 2017-08-06">
  <metadata
     id="metadata12">
    <rdf:RDF>
      <cc:Work
         rdf:about="">
        <dc:format>image/svg+xml</dc:format>
        <dc:type
           rdf:resource="http://purl.org/dc/dcmitype/StillImage" />
        <dc:title></dc:title>
      </cc:Work>
    </rdf:RDF>
  </metadata>
  <defs
     id="defs10" />
  <sodipodi:namedview
     pagecolor="#ffffff"
     bordercolor="#666666"
     borderopacity="1"
     objecttolerance="10"
     gridtolerance="10"
     guidetolerance="10"
     inkscape:pageopacity="0"
     inkscape:pageshadow="2"
     inkscape:window-width="1052"
     inkscape:window-height="664"
     id="namedview8"
     showgrid="false"
     inkscape:zoom="1.2057291667"
     inkscape:cx="384"
     inkscape:cy="128"
     inkscape:window-x="0"
     inkscape:window-y="0"
     inkscape:window-maximized="0"
     inkscape:current-layer="svg6" />
  <g
     transform="matrix(1,0,0,-1,278.66954644,169.1663067)"
     id="g4">
    <path
       d="m 93,155 q -5,1 -5,2 1,1 6,1 18,-3 33,-7 l 3,3 q 1,2 3,4 6,11 2,15 -1,0 -1,2 -3,-2 -5,-3 -5,-2 -14,-7 -4,-3 -5,-3 -1,1 2,4 7,5 7,6 1,2 -3,1 -9,-3 -26,-7 -10,-3 -24,0 -5,1 0,2 10,-1 25,2 15,3 46,12 14,2 19,8 2,5 8,3 12,-3 19,-6 2,-3 -3,-3 -8,0 -15,-1 -5,0 -16,-3 -3,-2 -7,-3 -5,-1 -7,-2 h 2 q 13,-10 7,-16 -2,-3 -5,-6 -4,-3 -5,-5 2,-2 8,-4 9,-3 14,-5 6,-3 1,-9 -3,-5 -7,0 -11,7 -21,12 -12,-13 -42,-27 -4,-2 -5,-1 -1,1 2,3 24,12 39,28 -13,5 -30,10 z M 63,101 h -3 q 1,1 5,3 22,8 64,17 18,4 36,9 v 2 q 1,2 2,3 2,1 4,1 5,-5 14,-7 2,-1 1,-3 -1,-4 -5,-3 -9,1 -22,-1 -15,-3 -45,-15 -4,-3 -5,-3 -2,0 1,3 5,2 19,8 3,1 1,2 -8,-3 -21,-6 -22,-6 -27,-7 -2,-1 -4,-1 -8,-3 -15,-2 z m 30,2 q 4,2 0,-2 -3,-3 -3,-6 l 1,-1 q 1,-5 0,-4 -7,0 -9,-11 -16,-65 -53,-107 -6,-3 -2,2 44,58 51,106 1,7 1,10 v 1 q -5,3 14,12 z m 58,-74 q 2,-1 7,-2 h 7 q 1,-4 -3,-6 -6,-1 -14,-7 -34,-23 -62,-35 -3,0 -3,1 0,1 3,2 20,10 46,28 6,3 9,8 l 2,2 q 4,10 8,9 z m -9,40 q 3,-2 7,-2 7,-2 11,-3 2,-4 0,-5 -11,-3 -17,-7 -32,-26 -53,-35 -2,-1 -1,1 24,17 45,34 10,9 5,14 -3,0 -2,2 2,1 5,1 z M 98,208 q 27,-5 37,-17 2,-4 -1,-7 -3,-2 -6,1 -3,0 -6,2 -5,2 -8,4 -6,1 -3,5 3,1 -14,10 -6,3 1,2 z m 43,-106 q 1,-1 2,-1 3,-1 5,-2 2,-3 0,-4 -7,-3 -14,-9 -19,-22 -41,-30 -4,-2 0,1 23,14 39,35 l 1,1 q 2,3 3,6 3,4 5,3 z"
       id="path2"
       inkscape:connector-curvature="0"
       style="fill:currentColor" />
  </g>
  <g
     id="g88"
     transform="matrix(1,0,0,-1,-1.4946004323,168.50958423)">
    <path
       id="path86"
       d="m 136,212 q 9,-8 8,-11 -3,-16 -2,-30 2,1 5,2 3,0 6,2 2,0 4,2 -1,2 6,2 8,-2 12,-4 1,-2 1,-3 0,-1 -2,-1 -17,-2 -32,-11 0,-4 -1,-11 v -7 q 18,4 33,5 12,3 24,-19 3,-8 -1,-8 -5,-2 -8,-7 -8,-15 -26,-23 -14,-7 -22,1 0,-1 -1,-4 -1,-4 0,-4 10,-19 45,-47 7,-7 16,-6 27,-2 48,-13 3,-2 3,-3 0,-1 -3,-1 -12,2 -24,3 -12,1 -21,2 -14,0 -20,8 -32,30 -44,47 -1,-70 4,-96 -2,-6 -7,-3 -10,18 -13,28 -1,3 0,3 1,0 4,-2 7,-9 9,-3 0,6 -1,26 -1,23 -1,50 -37,-54 -70,-55 -3,-1 -3,0 0,2 3,3 36,10 67,60 l -6,8 q -2,-1 -15,-6 -7,-3 -4,8 -13,4 -9,12 3,2 0,5 -12,14 3,25 4,2 2,-2 -7,-9 -5,-9 2,-2 2,-5 -1,-4 4,-8 5,0 31,10 v 13 q -5,-2 -12,-5 -14,-5 -20,-5 -5,0 -1,2 12,6 33,14 v 16 q -16,-11 -18,-12 -5,-2 -1,2 1,1 8,7 8,6 11,9 v 1 q -22,-8 -42,-4 -4,1 1,2 18,0 41,8 0,22 -1,27 v 13 q -2,5 2,2 z m 5,-75 v -12 q 5,2 10,2 2,0 2,-2 -1,-3 -3,-4 -6,-2 -9,-5 v -12 q 11,4 20,5 3,-4 -2,-6 -8,-2 -18,-5 4,-8 17,-1 14,6 25,36 2,9 -6,11 -18,-2 -36,-7 z m -7,-21 q -3,-1 -7,-2 -18,-6 -23,-3 6,-12 16,-14 1,1 15,6 v 9 q -4,-3 -5,-2 0,1 4,6 z m 1,-20 q -2,-2 -3,-1 0,-1 1,-2 1,-2 2,-2 z m -65,76 q 1,-2 4,-3 2,-2 4,-3 3,-5 -1,-7 -7,-3 -10,-9 -4,-10 0,-19 6,-12 10,-22 0,-3 -1,-5 -2,-1 -4,1 -9,7 -22,13 -10,-61 -5,-105 2,-14 15,-25 3,-3 0,-7 -10,-3 -16,11 -2,3 -2,2 L 32,4 q -6,3 -2,9 4,4 8,1 2,-2 2,2 -1,32 -1,54 1,24 5,51 1,4 -2,6 -3,4 0,8 5,2 6,1 10,-7 6,-9 -3,-2 -4,-7 1,-1 5,-1 7,0 9,1 2,0 2,1 1,1 0,3 -7,10 -6,33 -19,-14 -30,-4 -2,1 -2,2 0,1 3,1 11,-3 25,6 5,3 6,8 1,6 8,2 z"
       inkscape:connector-curvature="0"
       style="fill:currentColor" />
  </g>
  <g
     id="g145"
     transform="matrix(1,0,0,-1,503.1987401,161.97091947)">
    <path
       id="path143"
       d="m 133,196 q 2,5 9,3 5,-2 10,-5 2,-2 1,-3 0,-1 -2,-1 -11,-2 -23,-5 -13,-5 -29,0 -3,0 -3,1 1,1 4,2 26,1 33,8 z m -21,-20 q -3,1 1,2 13,-1 12,-4 -2,-3 -1,-5 56,10 79,1 12,-5 18,-19 1,-3 0,-5 -1,-1 -4,0 -10,3 -20,0 -9,-2 -20,-2 -5,0 -4,1 0,1 5,2 18,4 30,9 4,1 4,3 -1,3 -6,6 -28,13 -82,1 -2,-17 -2,-36 20,11 31,29 0,2 1,2 l 4,-2 q 2,-2 2,-3 l -4,-3 q -14,-16 -34,-31 -1,-4 0,-14 0,-12 1,-17 0,-3 -1,-4 -2,-1 -2,2 -3,9 -4,20 -2,6 0,13 1,4 1,11 v 31 q -5,-2 -9,-3 -16,-4 -22,-7 -8,-3 -16,-2 -3,0 0,2 7,0 18,5 9,3 29,8 0,5 -5,9 z M 62,142 q -4,-16 5,-23 2,-5 -3,-6 -7,0 -12,13 -2,3 2,2 -1,7 5,16 1,1 2,0 1,0 1,-2 z m 51,0 q 1,-2 1,-3 0,-1 -1,-1 -11,-1 -11,-7 -1,-3 -2,-3 -1,0 -1,3 3,6 -12,2 -6,-1 0,2 17,12 26,7 z m 27,-19 q 2,-1 5,-1 2,-1 5,-1 4,0 8,1 6,2 6,-2 0,-2 2,-3 0,-1 1,-1 3,-1 6,-3 2,-3 -1,-6 -2,-2 -5,1 -18,9 -28,12 -3,0 -3,1 1,1 4,2 z M 110,111 Q 98,94 94,93 q -5,0 -4,4 9,6 18,15 4,4 2,-1 z m 51,-50 q 19,-31 34,-48 3,-6 15,-5 14,0 32,-7 7,-1 -1,-1 h -13 -17 q -12,0 -17,8 -6,6 -17,22 -11,15 -16,22 -1,-43 0,-53 1,-16 3,-25 0,-4 -2,-5 -3,-1 -3,0 -13,24 -13,33 0,4 2,1 2,-3 7,-9 h 2 q 1,1 1,3 -1,11 -2,28 V 51 Q 139,20 110,1 l -4,-1 q -1,1 3,4 13,10 15,12 -6,0 -10,4 l -17,17 -2,2 q -2,-52 2,-61 0,-5 -2,-6 -3,0 -3,1 -10,19 -13,33 0,4 2,0 2,-5 8,-8 1,-2 2,2 -2,15 -1,44 -19,-33 -46,-47 -7,-3 0,2 36,26 45,61 -7,-3 -16,-6 -8,-4 -20,0 -3,1 0,2 13,1 36,10 0,18 -3,27 -3,4 1,2 11,-9 11,-12 -3,-6 -2,-15 11,2 19,8 3,2 13,0 2,-1 2,-3 0,-2 -3,-2 -20,-5 -27,-8 L 96,53 q -2,-7 -1,-11 15,-8 30,-18 2,-1 3,-1 l 1,-1 q 0,-1 1,0 22,24 25,45 -8,-3 -16,-7 -6,-3 -20,0 -3,1 0,2 12,1 36,10 0,24 -4,35 -2,4 1,2 13,-10 12,-13 -2,-10 -2,-22 13,4 22,9 2,3 13,0 2,-1 2,-3 0,-2 -2,-2 -15,-2 -33,-8 -1,-1 -1,-3 l -2,-4 z"
       inkscape:connector-curvature="0"
       style="fill:currentColor" />
  </g>
</svg>
