<?xml version="1.0" encoding="UTF-8" standalone="no"?>
<svg
   xmlns:dc="http://purl.org/dc/elements/1.1/"
   xmlns:cc="http://creativecommons.org/ns#"
   xmlns:rdf="http://www.w3.org/1999/02/22-rdf-syntax-ns#"
   xmlns:svg="http://www.w3.org/2000/svg"
   xmlns="http://www.w3.org/2000/svg"
   xmlns:sodipodi="http://sodipodi.sourceforge.net/DTD/sodipodi-0.dtd"
   xmlns:inkscape="http://www.inkscape.org/namespaces/inkscape"
   version="1.1"
   viewBox="0 -52 768 256"
   id="svg6"
   sodipodi:docname="a5.svg"
   width="768"
   height="256"
   inkscape:version="0.92.2 5c3e80d, 2017-08-06">
  <metadata
     id="metadata12">
    <rdf:RDF>
      <cc:Work
         rdf:about="">
        <dc:format>image/svg+xml</dc:format>
        <dc:type
           rdf:resource="http://purl.org/dc/dcmitype/StillImage" />
        <dc:title></dc:title>
      </cc:Work>
    </rdf:RDF>
  </metadata>
  <defs
     id="defs10" />
  <sodipodi:namedview
     pagecolor="#ffffff"
     bordercolor="#666666"
     borderopacity="1"
     objecttolerance="10"
     gridtolerance="10"
     guidetolerance="10"
     inkscape:pageopacity="0"
     inkscape:pageshadow="2"
     inkscape:window-width="938"
     inkscape:window-height="575"
     id="namedview8"
     showgrid="false"
     inkscape:zoom="1.0572916667"
     inkscape:cx="384"
     inkscape:cy="128"
     inkscape:window-x="203"
     inkscape:window-y="102"
     inkscape:window-maximized="0"
     inkscape:current-layer="svg6" />
  <g
     transform="matrix(1,0,0,-1,6.6206896551,163.33004926)"
     id="g4">
    <path
       d="m 102,146 q -3,-16 -8,-24 7,2 15,6 3,4 16,1 2,-1 2,-3 -1,-1 -3,-1 -4,-1 -10,-3 -4,-1 -21,-4 -15,-5 -27,-4 -6,1 0,2 6,1 17,3 2,0 5,1 6,15 6,25 -21,-5 -38,-1 -4,0 -4,1 1,1 5,2 19,-2 38,6 3,28 -4,39 -2,2 -1,3 h 4 q 11,-5 10,-10 v -2 q -1,-11 -2,-28 17,10 32,3 2,-2 1,-5 -1,-2 -3,-1 -14,1 -30,-6 z M 151,12 h -3 q -6,3 -10,6 -6,5 -21,4 Q 80,17 37,3 25,0 12,2 10,3 10,4 l 3,1 q 8,0 22,3 19,5 44,11 -19,13 -4,24 3,2 2,-1 -4,-7 -2,-8 2,0 9,5 4,4 2,-2 -5,-8 -3,-10 0,-4 -1,-7 16,7 26,21 2,3 2,12 l -1,2 h 4 q 8,-3 9,-3 3,-4 0,-5 -4,-1 -8,-6 -9,-14 -23,-19 10,0 31,3 6,5 15,4 5,0 18,-13 2,-2 0,-4 -2,-1 -4,0 z m -40,90 q 1,5 12,1 l 12,-6 q 4,-4 -3,-7 -8,0 -11,-4 l -5,-5 q -4,-5 -12,-11 7,2 16,2 2,-1 1,-3 0,-2 -2,-2 -15,-2 -32,-12 -5,-3 -1,1 l 4,4 q 2,3 3,4 -9,-3 -17,-5 -4,-2 -5,-1 -1,1 2,5 -11,7 -10,20 0,1 1,2 1,0 2,-1 4,-13 13,-20 l 8,2 q 7,2 8,3 3,3 10,9 2,1 3,2 5,3 7,14 0,4 -3,3 Q 90,88 71,85 h -2 q 0,1 2,3 15,6 33,10 4,0 7,4 z M 217,66 q 3,-5 7,-8 1,-2 -1,-3 -1,-1 -3,-4 l -4,-4 Q 186,9 144,-4 q -3,-1 -4,1 0,2 3,2 37,15 65,49 7,12 7,18 z m -1,63 q 1,-1 3,-5 2,-5 4,-5 1,-3 0,-5 -5,-2 -7,-6 -32,-38 -66,-52 -2,0 0,2 35,22 57,51 8,12 7,19 -1,2 2,1 z m -8,52 q 0,-2 3,-4 l 5,-5 q 1,-2 0,-3 -3,-2 -9,-11 0,1 -1,-1 -21,-28 -54,-43 -3,0 0,2 28,17 47,46 7,12 7,18 1,1 2,1 z"
       id="path2"
       inkscape:connector-curvature="0"
       style="fill:currentColor" />
  </g>
  <g
     id="g88"
     transform="matrix(1,0,0,-1,515.21527094,161.18248993)">
    <path
       id="path86"
       d="m 199,185 q 2,3 11,-5 4,-4 -2,-8 -4,-2 -14,-11 -15,-14 -46,-37 3,0 9,2 10,2 20,5 7,2 7,5 0,4 5,4 12,1 17,-1 4,-6 -2,-7 -5,0 -12,-3 -4,-3 -17,-9 -9,-4 -15,-7 11,-5 7,-9 -2,-2 -2,-4 1,0 3,1 5,2 8,5 4,3 18,2 4,-4 -1,-7 -8,1 -28,-9 V 69 q 5,1 17,3 6,0 8,1 6,1 9,5 1,4 11,1 16,-5 26,-11 1,-4 -3,-6 -11,2 -17,6 -6,3 -12,3 -14,-1 -39,-6 -1,-33 2,-66 1,-8 2,-13 6,-5 11,-12 3,-7 -6,-9 -8,4 -11,10 l -8,10 q -5,10 8,14 -1,13 -3,38 -2,17 -2,26 -13,-2 -23,-6 -8,-5 -19,-1 -1,-5 -10,-4 -10,0 -24,-4 0,-2 4,-5 2,-3 1,-4 -2,-1 -5,0 -15,5 -14,10 -2,4 3,7 -1,1 -1,4 L 67,72 Q 49,13 24,-28 q -6,-5 -2,1 33,67 47,131 -8,-3 -21,-10 -6,-4 -19,-2 -3,-1 0,1 24,10 41,17 2,7 5,22 -12,-4 -23,-9 -5,-2 -11,-4 -10,-4 -24,-2 -3,0 -3,1 0,1 3,2 16,3 49,13 7,3 10,4 1,10 -4,15 -2,4 4,4 6,-2 12,-5 4,-5 1,-7 -2,-2 -2,-3 2,0 7,2 5,1 8,2 l 3,15 q 0,2 1,3 0,2 -2,2 -1,1 -3,0 -34,-13 -53,-6 -3,1 0,2 33,1 51,11 6,5 12,1 3,-3 8,-6 3,-3 5,-3 2,-3 2,-5 0,-2 -3,-2 -8,-3 -10,-9 15,6 22,3 7,6 8,17 0,2 1,2 2,1 3,-1 v -5 l 1,-3 q 0,-3 1,-3 2,0 5,3 21,15 33,18 5,0 12,6 z m -11,-8 q -39,-21 -43,-37 -4,-6 -7,-1 -1,1 -2,3 -1,2 -1,4 -3,-1 -7,-1 -12,-1 -17,-3 -2,-2 -3,-4 -8,-14 -14,-20 16,4 20,1 1,-4 -3,-5 -18,-1 -33,-8 -3,-3 -9,-25 1,-3 3,-7 17,5 30,11 6,5 19,-6 4,-4 -1,-7 -8,-3 -15,-13 7,0 11,-1 3,0 5,1 24,7 36,9 0,3 -1,13 v 9 q -11,-5 -28,-4 -2,0 -2,1 0,1 2,2 15,3 27,8 -1,3 -1,6 -1,5 -1,7 -1,3 -4,4 -2,0 -3,1 v 1 q -15,-6 -27,-6 -3,0 -3,1 0,1 3,2 12,4 27,16 19,16 46,44 2,2 1,4 -2,2 -5,0 z m -88,-37 q -4,-2 -8,-3 -5,-1 -8,-2 -2,-4 -4,-13 -2,-7 -2,-10 12,3 22,28 z m 70,-15 q -5,-2 -13,-5 -4,-2 -8,-3 1,-1 4,-2 2,-1 4,-1 2,2 8,5 4,2 6,4 3,3 -1,2 z M 103,81 Q 86,72 72,71 q 4,-14 8,-20 4,2 14,5 1,0 3,1 10,13 12,19 -1,6 -6,5 z"
       inkscape:connector-curvature="0"
       style="fill:currentColor" />
  </g>
  <g
     id="g145"
     transform="matrix(1,0,0,-1,262.84174877,162.64860427)">
    <path
       id="path143"
       d="m 104,189 q 2,0 5,-1 -1,0 1,0 6,-6 11,-9 1,-2 2,-2 l 3,-3 q -1,-5 -5,-5 -8,5 -8,0 -10,-24 -9,-73 3,4 7,11 6,10 9,13 1,3 0,0 -3,-8 -9,-18 -1,-2 -3,-5 -4,-6 -5,-8 -1,-18 0,-30 1,-12 4,-29 2,-15 10,-26 25,20 27,73 h -2 q -2,1 -5,4 -1,3 1,2 3,-2 6,-2 v 27 q 1,14 1,41 -1,5 -4,4 -5,-2 -7,-4 -8,-4 -11,1 -4,6 15,32 2,2 3,1 1,-1 0,-3 4,-1 17,4 4,1 9,2 14,4 17,4 5,0 20,-15 4,-8 -3,-10 -7,1 -10,-13 -7,-30 -2,-81 5,-46 19,-83 1,-4 -2,-5 -3,-1 -6,1 -23,23 -36,61 -1,3 0,3 l 3,-2 q 13,-22 21,-32 3,-5 5,-4 1,0 1,6 -18,99 -6,167 0,3 -1,4 -1,1 -3,1 -4,-1 -24,-9 -11,-3 -20,-1 -7,-9 -8,-19 -1,-3 -1,-4 1,-1 3,1 4,3 17,1 6,-4 5,-9 -5,-2 -4,-6 -1,-11 -2,-20 v -5 q 5,1 11,5 7,4 17,3 2,-1 2,-4 -1,-1 -3,-1 -9,-1 -18,-7 -3,-2 -4,-1 -1,0 1,3 -1,-2 -6,-1 -2,-15 -2,-32 4,0 12,4 l 6,3 q 5,3 14,0 2,-1 2,-3 0,-2 -2,-2 -9,-4 -32,-6 -2,-49 -16,-66 -14,-19 -37,-22 -3,0 -4,1 0,2 3,2 9,4 17,7 -2,0 -2,1 -11,12 -22,41 -1,4 1,1 2,-6 9,-13 2,-3 4,-4 1,-2 2,-1 1,1 1,4 -1,5 -2,13 -3,21 -2,42 -2,-4 -5,-9 L 91,69 Q 85,61 86,62 83,56 73,57 65,-3 28,-13 q -3,0 0,2 34,16 42,69 -6,4 -2,5 h 2 v 9 q 2,23 2,35 -10,-2 -13,1 -3,1 0,2 6,0 13,4 0,8 -2,25 v 5 q -1,6 -6,4 -6,-2 -13,-1 v 1 q -4,3 5,19 1,2 2,-1 -7,-16 2,-12 5,3 20,-4 1,-4 -1,-4 -3,-1 -2,-4 v -26 q 7,4 18,4 3,-2 1,-4 l -3,-3 q -2,-1 -3,-2 -4,-1 -6,-4 -2,-3 -1,1 1,4 -7,0 -3,-37 -3,-45 6,-1 12,7 5,7 12,16 1,2 3,4 -1,31 1,52 1,21 5,35 1,7 -4,6 -5,-2 -16,-7 -19,-9 -25,-3 -3,2 0,2 5,0 19,5 6,2 10,4 5,2 11,4 -1,0 3,1 z"
       inkscape:connector-curvature="0"
       style="fill:currentColor" />
  </g>
</svg>
