<?xml version="1.0" encoding="UTF-8" standalone="no"?>
<svg
   xmlns:dc="http://purl.org/dc/elements/1.1/"
   xmlns:cc="http://creativecommons.org/ns#"
   xmlns:rdf="http://www.w3.org/1999/02/22-rdf-syntax-ns#"
   xmlns:svg="http://www.w3.org/2000/svg"
   xmlns="http://www.w3.org/2000/svg"
   xmlns:sodipodi="http://sodipodi.sourceforge.net/DTD/sodipodi-0.dtd"
   xmlns:inkscape="http://www.inkscape.org/namespaces/inkscape"
   version="1.1"
   viewBox="0 -52 768 256"
   id="svg6"
   sodipodi:docname="a6.svg"
   width="768"
   height="256"
   inkscape:version="0.92.2 5c3e80d, 2017-08-06">
  <metadata
     id="metadata12">
    <rdf:RDF>
      <cc:Work
         rdf:about="">
        <dc:format>image/svg+xml</dc:format>
        <dc:type
           rdf:resource="http://purl.org/dc/dcmitype/StillImage" />
        <dc:title></dc:title>
      </cc:Work>
    </rdf:RDF>
  </metadata>
  <defs
     id="defs10" />
  <sodipodi:namedview
     pagecolor="#ffffff"
     bordercolor="#666666"
     borderopacity="1"
     objecttolerance="10"
     gridtolerance="10"
     guidetolerance="10"
     inkscape:pageopacity="0"
     inkscape:pageshadow="2"
     inkscape:window-width="640"
     inkscape:window-height="480"
     id="namedview8"
     showgrid="false"
     inkscape:zoom="0.66927083333"
     inkscape:cx="384"
     inkscape:cy="128"
     inkscape:window-x="0"
     inkscape:window-y="0"
     inkscape:window-maximized="0"
     inkscape:current-layer="svg6" />
  <g
     transform="matrix(1,0,0,-1,259.9844358,166.6459144)"
     id="g4">
    <path
       d="m 134,39 q 7,14 7,21 0,2 -1,3 -2,-2 -4,-5 l -1,-2 q -14,-17 -34,-34 -4,-3 -1,1 33,32 33,44 -3,2 -4,4 -17,-12 -30,-19 -4,-1 -1,1 37,27 53,42 1,1 0,2 -14,-6 -26,-11 -1,0 -4,-3 l -3,-1 q -4,-3 -5,0 -2,6 0,12 0,1 1,-1 -2,-3 10,-1 5,1 3,1 17,5 26,9 l 2,2 q 2,3 4,3 5,-2 8,-2 2,-1 2,-2 0,-2 -3,-3 -6,-4 -15,-12 -13,-10 -21,-16 6,0 13,-5 3,-1 7,-3 11,3 37,25 -1,2 1,3 2,2 3,2 1,-1 2,0 1,1 3,1 4,2 6,-2 0,-1 -2,-2 -2,-2 -5,-4 -2,-1 -3,-2 -16,-14 -40,-24 3,-2 16,-14 3,-4 8,-7 1,-2 3,-4 14,-11 23,-15 6,-5 16,-4 22,0 33,-6 3,-2 0,-2 h -14 q -5,1 -16,1 -11,-1 -16,4 -17,11 -31,24 -14,12 -22,16 5,-41 -6,-67 l -1,-1 v -3 q -1,0 -1,-1 -1,-2 -2,-3 -3,0 -3,1 -2,3 -7,8 -4,4 -8,11 -1,1 1,1 7,-5 11,-6 6,-2 9,3 9,21 2,57 -22,-43 -56,-63 -4,-1 -1,1 31,23 44,47 z m 32,126 q 5,-4 6,-6 1,-2 -2,-2 -6,-3 -9,-6 -6,-5 -12,-9 9,0 14,-1 1,-1 1,-2 -1,-1 -2,-1 -13,-3 -14,-3 -4,-3 -11,-5 -2,0 -6,-3 h -1 q -4,-3 -5,-3 -2,0 1,3 2,1 9,6 -4,-1 -7,-3 -1,-1 -2,-1 -4,-1 -5,2 -1,2 -6,5 -6,1 -6,6 v 2 8 q -1,4 2,1 4,-8 10,-14 3,-5 9,-5 0,1 5,4 8,5 23,19 1,1 0,2 -1,1 -3,1 -4,-1 -13,-4 -5,-2 -10,-3 -7,-2 -12,-1 -1,0 -1,1 -4,1 1,2 5,0 11,2 1,0 2,1 h 1 q 14,4 23,5 7,3 9,2 z m 29,-39 q 16,-5 18,-18 v -4 q -1,-1 -3,1 -5,3 -12,3 -3,-1 -6,-1 -4,-1 -19,-3 h -4 q 0,1 4,3 14,3 28,9 2,4 -9,7 -22,7 -58,-8 -14,-7 -23,-5 -5,0 -1,2 8,2 20,6 38,14 65,8 z M 81,72 q 7,10 2,-1 -24,-44 -33,-82 -2,-7 -8,-2 -6,8 -2,11 4,2 9,14 12,27 32,60 z m 87,108 q 0,3 5,3 11,0 20,-5 l 2,-2 q 0,-3 -5,-2 -10,1 -25,0 h -6 q -33,-5 -49,-9 -7,-4 -19,-3 -3,1 0,2 4,0 11,3 30,7 58,11 8,1 8,2 z M 48,172 q -4,4 1,2 16,-8 27,-12 1,-2 0,-4 -5,-4 -7,-2 -3,1 -2,0 -4,3 -7,2 -5,0 -4,3 1,2 -8,11 z m 79,28 q 22,-6 27,-12 1,-2 -1,-2 -7,-2 -11,-1 -7,-1 -2,2 1,1 -2,4 -4,2 -11,7 -3,1 0,2 z m -80,-95 2,-2 q 0,-2 -1,-2 -10,-3 -18,0 h -2 q -4,2 -9,2 -4,1 1,2 h 15 z m 48,0 q -1,-1 -1,-2 -4,-8 -2,-12 0,-4 -2,-8 -5,0 -5,3 0,14 9,20 3,2 1,-1 z"
       id="path2"
       inkscape:connector-curvature="0"
       style="fill:currentColor" />
  </g>
  <g
     id="g88"
     transform="matrix(1,0,0,-1,499.76361868,161.49027237)">
    <path
       id="path86"
       d="m 53,118 q 2,-14 2,-37 -2,-13 1,-18 2,-6 2,-13 0,-5 -2,-2 -3,5 -7,12 -3,3 1,5 2,0 1,3 -3,20 1,51 0,1 1,-1 z m 18,-1 q 3,1 6,0 1,-4 -1,-4 -4,-1 -11,-5 l -1,-1 q -4,-2 -1,2 2,1 -2,2 -2,1 0,2 4,0 10,4 z m 108,68 q 5,2 5,4 1,5 6,4 5,-1 11,1 5,-3 1,-6 -34,-15 -78,-26 -3,0 0,2 39,12 55,21 z m 19,-25 q -2,0 -2,1 1,1 3,2 7,-2 13,-6 2,-2 2,-3 -1,-2 -3,-2 -6,-3 -13,-5 -14,-5 -37,-14 -7,-2 0,1 21,9 37,20 3,2 3,3 0,2 -3,3 z m -33,-9 q -4,-2 -5,-7 -5,-5 -8,-1 l -5,5 q -1,1 -2,3 -3,1 -2,2 1,1 4,1 6,-5 17,0 2,0 3,-1 0,-1 -2,-2 z m -33,-8 q -1,-1 -2,-4 -2,-6 -2,-8 -2,-3 -5,0 -3,1 -7,7 -1,1 -1,2 -2,3 2,2 7,-7 12,2 1,1 2,1 1,-1 1,-2 z m -20,-36 q -2,-10 1,-14 3,-3 3,-7 -3,-6 -6,-2 -1,1 -2,3 -1,2 -1,4 -1,-1 -1,-2 -4,-5 -10,-13 -5,-9 -9,-14 -2,-28 1,-46 -1,-3 -2,-3 -1,-1 -1,2 -2,7 -4,9 -1,1 -2,4 v 3 q -1,2 0,3 h 2 q 3,-2 3,2 -2,7 -1,22 -15,-16 -36,-36 -7,-7 -12,1 -3,1 0,1 6,0 12,6 14,12 32,33 2,3 4,5 -2,5 -1,19 -6,-1 -12,-8 -5,-4 -2,1 2,2 0,2 -5,-2 -7,-2 -3,0 0,2 2,0 9,7 3,5 12,5 -2,47 1,61 1,8 -3,6 -5,-2 -3,-1 -2,-1 -8,-3 -3,-3 -9,-2 -4,1 1,2 l 10,4 q 3,2 9,2 3,1 15,-14 4,-6 -3,-8 -6,-1 -6,-11 -1,-16 -1,-29 0,-14 1,-29 5,5 8,9 4,4 10,11 h 1 q 0,1 1,2 -1,7 4,14 3,3 2,-1 z m 65,6 q 13,-10 12,-10 17,5 30,13 3,2 2,4 0,2 -3,4 -29,9 -74,-8 -10,-6 -20,-6 -6,-1 -1,2 46,18 70,18 27,1 45,-16 2,-2 2,-4 -1,-2 -3,-1 -10,3 -16,0 -12,-6 -32,-8 h -1 q 0,-3 -1,-7 0,-6 1,-7 11,3 17,6 1,3 11,0 2,-1 0,-2 l -18,-8 q -5,-2 -1,1 1,3 0,2 -4,-1 -9,-3 -1,-12 1,-24 6,1 17,3 3,0 6,1 1,6 7,5 10,-3 21,-11 0,-5 -3,-5 -15,13 -48,3 0,-30 2,-55 0,-10 8,-24 1,-1 0,-3 -2,-1 -4,-1 -3,1 -9,13 -2,2 -2,3 -3,10 1,10 3,0 3,3 l -1,15 q -2,29 -2,38 -31,-8 -38,-14 -2,-2 -3,-2 -1,1 0,3 -1,4 2,4 v -1 q 1,-1 2,0 3,3 6,3 -2,2 1,5 12,9 10,20 0,4 2,1 v -2 q 2,-3 5,-4 3,-4 0,-5 -3,0 -12,-12 3,1 7,2 10,3 18,5 -2,13 -3,24 -4,-2 -12,-4 -7,-2 -11,-3 -2,0 -2,1 0,1 2,2 10,2 23,7 -3,19 -8,28 -1,1 0,1 z M 116,57 q 15,-7 19,-9 6,12 12,28 v 3 h -2 q -9,-3 -18,-9 -2,-1 -3,-2 h -3 q -3,-5 -5,-10 z m 17,-15 h -1 q -2,1 -3,3 -5,4 -14,10 -3,-8 -6,-7 -2,3 2,8 17,26 20,50 1,3 2,0 4,-10 2,-12 -6,-9 -10,-17 -2,-5 2,-2 10,5 15,7 5,3 8,8 0,4 14,-2 2,-1 2,-3 0,-2 -2,-2 -9,-2 -13,-14 -22,-52 -56,-83 -2,-2 -3,-1 -1,2 2,4 22,22 39,53 z"
       inkscape:connector-curvature="0"
       style="fill:currentColor" />
  </g>
  <g
     id="g145"
     transform="matrix(1,0,0,-1,-3.1130566381,166.09610895)">
    <path
       id="path143"
       d="m 83,194 3,-6 q 3,-3 5,-4 1,-3 0,-7 -3,-7 -5,-17 -1,-12 -1,-35 5,2 6,0 0,-5 -6,-7 -2,-9 -1,-23 10,-9 21,-12 3,-1 1,-4 -3,-5 -10,1 -4,2 -11,8 -2,3 -2,4 0,-8 -1,-27 V 17 q -1,-17 5,-27 1,-4 -2,-6 -4,-2 -6,1 -14,20 -18,39 -1,3 2,0 4,-8 10,-16 l 1,-1 q 5,-3 5,3 0,28 -1,44 V 90 Q 59,59 28,45 q -8,-4 -1,2 36,21 51,57 -1,1 0,6 1,4 1,6 -4,-2 -9,-4 -17,-7 -24,-10 -16,-8 -32,-4 -4,1 1,2 12,-2 64,22 -1,20 1,42 0,3 1,5 1,14 -1,23 -2,2 -1,3 1,0 4,-1 z m 65,-9 q 2,0 9,2 5,2 7,3 8,4 13,-1 2,-3 6,-6 3,-3 5,-4 4,-5 -2,-7 -5,0 -6,-4 -4,-45 -10,-69 -1,-3 -3,-4 -1,0 -1,3 0,10 -1,15 -10,-4 -14,-2 -3,1 0,3 4,0 7,2 4,4 8,2 1,-2 2,-2 1,0 2,3 2,19 4,63 -1,5 -5,4 -16,-5 -21,-3 -5,1 0,2 z m 5,-42 q 1,0 5,2 1,0 2,1 3,2 7,1 l 2,-2 q 0,-1 -1,-1 -13,-7 -15,-3 -3,1 0,2 z m 31,-77 q 1,0 4,-1 h 2 q 2,-3 2,-4 0,-1 -3,-1 -4,0 -6,-3 -28,-30 -40,-38 -6,-4 -1,1 17,15 36,37 3,3 2,6 -1,3 4,3 z m -58,11 q -7,-4 -17,0 -4,1 1,2 h 2 q 8,2 17,5 60,17 87,20 5,-1 9,4 2,1 7,0 13,-7 18,-10 1,-1 1,-2 -1,-1 -2,-1 -6,-1 -10,4 -6,4 -16,3 -23,-2 -77,-18 -2,-5 -5,-8 6,-6 22,-3 34,3 44,-6 11,-9 15,-23 2,-9 -5,-10 -3,0 -9,-6 -21,-28 -63,-43 -4,-1 -6,-1 -2,1 0,3 2,1 -2,3 -7,9 -8,32 -1,7 2,0 2,-19 14,-28 2,-5 9,-2 40,16 56,46 l 1,1 q 7,12 2,17 -13,20 -56,13 1,-6 -2,-8 -5,-3 -11,-9 -3,-2 1,-1 4,1 14,5 9,4 14,6 7,1 0,-2 -51,-20 -52,-26 -3,-1 -3,1 8,11 10,10 4,-1 6,3 22,17 19,21 -7,1 -14,4 -2,-2 -4,-2 -4,-4 -8,-4 -4,0 -1,2 8,5 17,14 -4,-1 -11,-4 z m 23,59 q -4,-25 2,-29 1,-5 -1,-5 -5,-1 -5,3 -8,16 -4,20 l 2,6 q 3,18 3,33 -1,4 2,1 3,-5 3,-10 0,-4 -2,-19 z"
       inkscape:connector-curvature="0"
       style="fill:currentColor" />
  </g>
</svg>
