<?xml version="1.0" encoding="UTF-8" standalone="no"?>
<svg
   xmlns:dc="http://purl.org/dc/elements/1.1/"
   xmlns:cc="http://creativecommons.org/ns#"
   xmlns:rdf="http://www.w3.org/1999/02/22-rdf-syntax-ns#"
   xmlns:svg="http://www.w3.org/2000/svg"
   xmlns="http://www.w3.org/2000/svg"
   xmlns:sodipodi="http://sodipodi.sourceforge.net/DTD/sodipodi-0.dtd"
   xmlns:inkscape="http://www.inkscape.org/namespaces/inkscape"
   version="1.1"
   viewBox="0 -52 768 256"
   id="svg6"
   sodipodi:docname="a7.svg"
   width="768"
   height="256"
   inkscape:version="0.92.2 5c3e80d, 2017-08-06">
  <metadata
     id="metadata12">
    <rdf:RDF>
      <cc:Work
         rdf:about="">
        <dc:format>image/svg+xml</dc:format>
        <dc:type
           rdf:resource="http://purl.org/dc/dcmitype/StillImage" />
        <dc:title></dc:title>
      </cc:Work>
    </rdf:RDF>
  </metadata>
  <defs
     id="defs10" />
  <sodipodi:namedview
     pagecolor="#ffffff"
     bordercolor="#666666"
     borderopacity="1"
     objecttolerance="10"
     gridtolerance="10"
     guidetolerance="10"
     inkscape:pageopacity="0"
     inkscape:pageshadow="2"
     inkscape:window-width="1150"
     inkscape:window-height="730"
     id="namedview8"
     showgrid="false"
     inkscape:zoom="1.3333333333"
     inkscape:cx="384"
     inkscape:cy="128"
     inkscape:window-x="0"
     inkscape:window-y="0"
     inkscape:window-maximized="0"
     inkscape:current-layer="svg6" />
  <g
     transform="matrix(1,0,0,-1,-5.25,162.75)"
     id="g4">
    <path
       d="m 110,36 24,-22 q 9,-9 3,-11 -8,-3 -12,7 -4,8 -17,25 -4,5 2,1 z m 23,171 q 5,-2 10,-5 1,-1 0,-3 -1,-3 -3,-2 -4,1 -16,-9 -32,-23 -55,-33 -3,0 -1,3 18,9 60,41 1,2 -1,1 -56,-19 -60,-34 1,-4 -4,-4 -6,-3 -7,12 -1,2 2,4 2,0 8,16 1,4 2,0 -1,-4 0,-10 0,-1 1,-1 0,-3 5,0 l 20,10 q 18,6 35,11 3,2 4,3 z M 66,118 q 2,-4 3,-16 0,-3 1,-5 -1,-12 0,-17 1,-5 3,-7 10,3 26,9 1,2 3,2 h 11 q 3,0 3,-1 0,-3 -2,-2 -2,-1 -3,-1 -5,-3 -8,-2 -2,-1 -5,-2 h -4 q 9,-10 8,-11 0,-1 -1,-3 v -6 h 9 q 9,1 14,1 6,-1 9,4 2,3 9,0 0,-1 1,-1 10,-2 15,-6 3,-4 -4,-6 -13,4 -21,4 -7,1 -33,-1 Q 91,6 54,-13 44,-18 52,-11 86,8 93,50 61,44 48,39 q -9,-3 -21,0 -3,0 -3,1 0,1 3,2 8,1 16,3 33,5 51,10 1,10 -2,20 -2,-2 -3,-1 -1,-1 -2,-1 -8,-4 -13,-3 0,-2 -2,-4 -3,-3 -4,0 -5,4 -8,10 -2,-2 1,11 1,2 2,2 3,12 0,28 0,2 3,1 z m 30,-16 h 3 q 5,2 9,4 3,0 3,-1 0,-3 -2,-3 -4,-3 -11,-7 -3,-1 -6,-3 -7,-7 -2,1 0,1 -1,1 h -4 q 0,0 -2,1 -2,1 2,2 8,2 9,3 0,1 2,2 z m 35,-31 q -3,-6 -5,-6 -4,2 -3,5 1,20 0,32 0,13 -1,26 0,11 -16,8 -3,-3 -2,-10 -2,-4 12,-2 3,0 3,-1 -1,-5 -6,-4 -2,-1 -3,-1 -4,-1 -5,-2 -3,-2 -4,-1 -3,1 -4,4 v 1 q -1,0 0,3 1,7 1,11 l -10,-4 q -7,-27 -15,-22 -2,1 -1,2 5,6 6,15 -2,-1 -4,-1 -5,-1 -9,0 -3,0 0,1 1,0 3,1 5,3 11,6 l -1,1 v 3 q -3,7 8,-2 7,2 13,4 0,10 -6,17 -1,-1 -2,-1 -17,-5 -27,-9 -9,-4 -20,-1 -6,1 0,2 13,1 26,6 27,8 45,13 -1,0 0,1 l 3,3 q 3,3 5,3 5,0 11,-2 1,-1 5,-2 3,-1 5,-1 5,-2 3,-5 -2,-7 -7,-3 -12,6 -44,-3 13,-10 10,-16 19,4 29,-11 2,-3 2,-5 -1,-2 -3,-2 -5,-1 -4,-7 0,-4 -1,-10 0,-11 1,-13 1,-5 1,-16 z m 79,115 q 3,-4 6,-6 4,-4 6,-5 4,-5 -3,-7 -8,-2 -12,-12 -9,-22 -21,-36 35,-14 51,-38 3,-7 -3,-7 -15,5 -25,6 -15,2 -37,12 -1,-6 -1,-18 -2,-63 1,-89 7,-7 12,-17 1,-4 -5,-4 -1,1 -3,2 -4,3 -6,6 -4,7 -9,10 -3,7 7,15 0,31 -1,47 v 35 q 0,34 -1,76 0,12 -5,14 -3,1 -2,2 l 3,1 q 5,-2 10,-3 4,-2 2,-5 -3,-6 -2,-13 V 97 q 15,-10 41,-9 9,0 9,2 2,2 -4,7 -13,10 -35,20 -3,0 -3,1 0,1 3,4 13,14 23,50 1,4 -5,5 -16,-5 -28,-5 -5,0 0,2 16,3 26,9 4,7 11,3 z"
       id="path2"
       inkscape:connector-curvature="0"
       style="fill:currentColor" />
  </g>
  <g
     id="g88"
     transform="matrix(1,0,0,-1,256.31666667,169.08333333)">
    <path
       id="path86"
       d="m 127,212 q -5,4 1,2 9,-5 16,-12 2,-3 -1,-6 -6,-2 -9,-18 24,2 51,4 0,4 10,6 h 4 q 11,-9 23,-9 5,-6 4,-7 -6,-1 -10,0 -4,1 -13,5 -6,2 -16,3 -15,-2 -40,-6 -9,-1 -14,-1 -9,-23 -20,-43 18,5 38,8 0,2 2,2 h 2 q 9,-5 14,-8 4,-5 6,-6 1,-2 1,-3 -3,-5 -8,-5 -3,-1 -2,-7 -2,-26 1,-103 1,-14 2,-22 0,-9 4,-14 -2,-3 -6,-3 -1,1 -2,3 l -3,3 q -2,2 -3,4 -4,5 -8,9 -6,6 -11,12 -2,1 -2,2 -2,3 2,1 4,-3 14,-10 2,-3 4,-4 5,-1 6,3 0,18 -4,83 v 13 q -2,29 -4,43 -1,5 -7,4 -6,-2 -16,-5 -12,-6 -21,-2 -21,-38 -61,-67 -4,-1 -1,1 56,51 75,110 -2,-1 -4,-1 -15,-2 -35,-6 -27,-5 -33,-6 -11,-2 -17,4 -2,0 1,1 8,-1 16,0 9,1 19,4 12,1 22,3 23,4 32,5 3,13 3,20 1,15 -2,16 z m -16,-97 q 3,-2 5,-4 -1,-1 0,-1 l 1,-1 q -1,-3 -2,-7 v -5 q -1,-3 -2,-9 -1,-6 -1,-8 5,2 12,6 l 6,4 q 1,1 3,2 h 4 q 3,1 5,2 5,0 5,-3 -1,-5 -12,-10 -1,0 -3,-2 -1,-1 -2,-1 -2,-3 -1,1 2,1 -1,2 -2,-1 -6,-1 h -3 q -5,-2 -7,-1 -2,-21 -2,-41 0,-17 2,-21 1,-7 2,-13 -2,-3 -6,-1 -1,3 -3,7 -1,1 -2,4 -2,3 -3,9 -2,1 6,3 1,7 0,21 0,26 3,50 v 4 q 2,9 2,13 z m 19,-62 h 1 q 6,4 19,4 2,-1 1,-4 -2,-2 -4,-2 l -4,-2 h -4 q -9,-4 -24,-2 -2,0 1,2 8,1 14,4 z"
       inkscape:connector-curvature="0"
       style="fill:currentColor" />
  </g>
  <g
     id="g145"
     transform="matrix(1,0,0,-1,507.28205128,165.5)">
    <path
       id="path143"
       d="m 145,174 q 3,-2 8,-4 h 3 q 9,-3 7,-10 -2,-3 -8,-1 -5,6 -11,14 -3,2 1,1 z m 35,-30 q 4,2 16,-2 1,-1 1,-2 0,-2 -1,-2 -24,0 -63,-18 -3,-2 -15,-1 -5,1 0,2 20,2 47,17 2,3 15,6 z M 30,156 q 7,4 29,-5 2,-6 -4,-8 -5,2 -9,1 -4,-4 -2,1 2,2 -2,4 -6,5 -12,5 -4,0 0,2 z M 41,82 q 2,2 7,-1 0,-6 -3,-7 -10,-12 -5,-24 1,-5 8,-5 h 6 q 5,1 9,2 5,1 11,1 3,-3 0,-5 -8,-8 -12,-16 13,1 36,-8 l 4,-2 -2,2 q -2,5 3,10 3,-1 3,5 -2,34 -2,62 1,29 3,47 -4,-6 -9,-11 -21,-28 -31,-40 -5,-3 -2,2 31,38 53,83 3,9 2,16 -1,2 0,2 l 3,-1 q 1,-2 4,-5 2,-3 3,-3 3,-2 0,-6 -7,-8 -17,-27 3,-6 0,-15 -5,-32 -5,-92 6,-1 16,3 24,5 27,6 v 17 q -7,-3 -20,-2 -6,-1 -1,2 13,3 21,6 0,11 -1,13 -14,-3 -19,-1 -6,1 0,2 9,1 18,5 -1,9 -10,12 -3,0 -3,1 1,1 4,2 22,-3 23,-7 -2,-2 -1,-4 7,3 12,2 1,-1 1,-2 0,-1 -1,-1 -5,-1 -2,-1 -3,0 -10,-4 -2,-5 -1,-14 10,3 13,0 0,-3 -2,-5 -3,0 -7,-2 h -4 q -3,-10 -2,-18 6,0 13,1 10,2 13,2 4,-1 7,2 8,4 13,1 4,-5 11,-8 6,-5 10,-8 -1,-4 -3,-4 -9,0 -17,10 -4,4 -11,4 -32,1 -76,-11 -6,-3 -11,-1 -1,-6 1,-9 0,-15 7,-22 l 1,-2 q 27,-11 58,-12 7,0 17,1 10,1 26,1 h 32 q 6,-1 -1,-1 -37,-1 -56,-7 -6,-2 -17,0 h -2 q -11,3 -20,6 -25,4 -34,8 0,-1 1,-3 1,-2 4,-4 2,-6 -1,-6 -10,2 -12,10 l -4,8 q -2,0 -6,2 -4,1 -7,3 -14,7 -33,5 -4,-1 -24,-14 -3,0 -2,3 8,7 22,24 1,3 -5,7 -10,-1 -14,5 -4,3 -3,14 0,3 -2,4 -1,0 -5,-1 -18,-9 -24,-1 -1,2 1,1 6,-7 19,3 8,4 15,14 -1,-1 1,1 z"
       inkscape:connector-curvature="0"
       style="fill:currentColor" />
  </g>
</svg>
