<?xml version="1.0" encoding="UTF-8" standalone="no"?>
<svg
   xmlns:dc="http://purl.org/dc/elements/1.1/"
   xmlns:cc="http://creativecommons.org/ns#"
   xmlns:rdf="http://www.w3.org/1999/02/22-rdf-syntax-ns#"
   xmlns:svg="http://www.w3.org/2000/svg"
   xmlns="http://www.w3.org/2000/svg"
   xmlns:sodipodi="http://sodipodi.sourceforge.net/DTD/sodipodi-0.dtd"
   xmlns:inkscape="http://www.inkscape.org/namespaces/inkscape"
   version="1.1"
   viewBox="0 -52 768 256"
   id="svg6"
   sodipodi:docname="a8.svg"
   width="768"
   height="256"
   inkscape:version="0.92.2 5c3e80d, 2017-08-06">
  <metadata
     id="metadata12">
    <rdf:RDF>
      <cc:Work
         rdf:about="">
        <dc:format>image/svg+xml</dc:format>
        <dc:type
           rdf:resource="http://purl.org/dc/dcmitype/StillImage" />
        <dc:title></dc:title>
      </cc:Work>
    </rdf:RDF>
  </metadata>
  <defs
     id="defs10" />
  <sodipodi:namedview
     pagecolor="#ffffff"
     bordercolor="#666666"
     borderopacity="1"
     objecttolerance="10"
     gridtolerance="10"
     guidetolerance="10"
     inkscape:pageopacity="0"
     inkscape:pageshadow="2"
     inkscape:window-width="640"
     inkscape:window-height="480"
     id="namedview8"
     showgrid="false"
     inkscape:zoom="0.66927083333"
     inkscape:cx="384"
     inkscape:cy="128"
     inkscape:window-x="0"
     inkscape:window-y="0"
     inkscape:window-maximized="0"
     inkscape:current-layer="svg6" />
  <g
     transform="matrix(1,0,0,-1,265.96108949,163.65758755)"
     id="g4">
    <path
       d="m 90,90 q 2,-3 1,-2 12,-10 15,-16 17,4 38,9 l 4,18 q 0,8 -1,13 -1,1 0,2 1,0 4,-1 2,-1 6,-4 1,-1 3,-2 1,-1 -1,-5 -2,-2 -4,-9 -2,-6 -3,-10 1,0 5,1 3,0 5,1 8,1 10,6 3,4 8,2 2,-2 7,-3 5,-1 8,-1 2,-2 1,-5 -1,-2 -3,-1 -14,1 -24,-1 -4,-1 -9,-2 -6,-2 -9,-2 -11,-28 -30,-38 -5,-3 -1,2 15,11 23,34 -19,-5 -34,-9 0,-1 1,-3 0,-1 1,-1 0,-2 1,-6 1,-4 2,-5 0,-4 -1,-5 -1,-1 -3,0 -9,2 -12,17 h -1 q -13,-4 -28,1 -5,1 1,2 6,-1 12,0 5,1 13,3 h 1 q -3,9 -9,18 -3,3 -2,4 1,0 5,-2 z m 80,103 q 1,2 7,2 l 12,-4 q 3,-1 3,-3 0,-1 -2,-2 -14,-9 -19,-21 1,-1 5,0 3,1 4,1 2,0 3,-2 1,-2 -1,-2 -12,-5 -38,-8 -5,-14 -2,-22 1,-10 16,-12 17,-2 29,2 6,1 6,5 1,6 -1,14 -1,3 1,2 4,-5 7,-9 2,-5 6,-5 3,-4 0,-6 -36,-11 -57,-5 -17,4 -12,30 v 14 8 q -1,2 -1,3 1,1 3,0 2,-3 5,-11 l 2,-4 q 7,1 18,5 6,11 10,21 1,1 0,2 0,1 -2,2 -18,-6 -31,-7 -2,0 -2,1 1,1 3,2 3,1 10,2 7,1 11,3 4,0 7,4 z m -65,-11 q 2,3 4,3 l 14,-8 q 2,-4 -1,-5 -9,-4 -19,-16 5,1 10,1 1,0 2,-1 -1,-2 -2,-2 -3,-2 -6,-3 -2,-1 -3,-1 -6,-2 -19,-8 -2,-1 -3,-1 -9,-20 2,-27 7,-5 29,2 5,0 5,5 -1,4 -2,9 -1,2 1,1 0,-1 1,-2 2,-1 6,-6 2,-4 5,-3 l 2,-2 q 0,-3 -1,-2 -42,-12 -47,-6 -8,2 -9,15 -2,13 1,23 1,5 1,10 -1,2 1,1 6,-6 7,-10 h 1 1 q 6,2 8,4 0,2 2,5 l 2,2 q 5,6 8,14 1,2 0,2 0,1 -2,1 -17,-7 -28,-7 -3,0 0,1 1,0 2,1 3,2 8,3 1,0 4,1 11,3 15,6 z M 186,49 q 3,6 11,2 15,-7 30,-15 3,-2 1,-5 -4,-4 -7,-1 -20,14 -47,10 -56,-7 -102,-19 -23,-8 -33,1 -2,0 -2,1 1,1 3,2 11,-2 38,4 44,8 94,14 9,0 14,6 z M 153,20 q 21,-14 35,-31 2,-4 -2,-6 -6,-1 -9,3 -8,15 -25,32 -2,3 1,2 z M 91,11 q 3,4 2,-1 -8,-10 -4,-11 2,0 8,1 7,1 1,-2 -11,-6 -16,-14 -2,-2 -4,-1 -1,1 -1,3 -2,12 14,25 z"
       id="path2"
       inkscape:connector-curvature="0"
       style="fill:currentColor" />
  </g>
  <g
     id="g88"
     transform="matrix(1,0,0,-1,519.60194552,166.36527237)">
    <path
       id="path86"
       d="m 135,107 q 1,3 3,3 2,-2 7,-1 7,0 11,-3 1,-1 0,-2 0,-1 -2,-1 -16,-3 -20,-6 -3,-3 -10,-8 -3,-1 -4,-2 -7,-3 -1,2 6,5 2,4 -12,-1 -17,1 -4,1 1,2 28,5 30,11 z m 17,-72 q 5,2 18,-7 3,-6 -2,-7 -5,0 -6,-3 -5,-6 -14,-15 12,1 17,-1 3,-2 0,-6 -7,-1 -11,0 -8,4 -24,-1 1,-2 1,-5 -2,-5 -9,0 -9,7 -17,10 -5,1 -3,6 4,6 0,11 -6,10 1,17 2,1 2,-1 -4,-7 2,-11 2,0 6,2 4,2 8,3 13,6 31,8 z M 108,20 Q 109,4 125,0 h 6 q 2,0 5,1 16,12 17,26 1,5 -5,4 -9,-1 -16,-4 -7,-3 -14,-4 -6,0 -10,-3 z m 76,129 q 4,1 8,6 5,8 11,3 5,-5 13,-6 5,-2 10,-6 2,-3 -1,-5 -5,-2 -12,3 -23,4 -52,-3 -4,-1 -4,0 l 4,3 Q 76,132 47,126 q -17,-5 -31,0 -6,0 0,2 7,1 20,2 33,5 53,8 6,0 20,2 20,2 75,9 z m -66,37 q -4,3 1,2 27,-2 32,-12 -1,-6 -6,-4 -5,2 -10,1 -9,-4 -24,-6 -5,-2 0,2 2,2 5,4 6,4 8,6 2,1 -6,7 z M 134,74 q 4,3 10,3 8,-1 14,-2 2,-1 1,-3 0,-2 -2,-2 -9,2 -27,-10 -1,-1 -3,-2 -5,-4 -10,-9 -8,-5 -2,2 6,7 9,10 1,1 0,2 -1,1 -3,1 -16,-6 -24,-2 -2,0 -2,2 1,0 4,1 20,1 35,9 z"
       inkscape:connector-curvature="0"
       style="fill:currentColor" />
  </g>
  <g
     id="g145"
     transform="matrix(1,0,0,-1,-2.8835927349,164.09169718)">
    <path
       id="path143"
       d="m 204,61 q 1,4 6,4 h 7 q 10,-7 21,-10 1,-6 -1,-6 -6,1 -15,5 -7,5 -25,3 -16,-2 -36,-5 -2,-24 0,-50 0,-2 1,-4 -1,-7 4,-17 9,-16 3,-15 -3,0 -5,3 l -1,1 q -1,1 -2,3 -8,12 -10,13 -5,3 0,8 1,3 5,0 h 2 q 1,0 1,2 -1,3 -2,9 v 11 q 0,17 -1,23 0,7 -1,12 -4,-1 -7,-2 -13,-3 -24,-7 -7,-2 -11,-4 -3,-3 -16,0 -2,0 -2,1 -2,1 3,2 8,1 16,4 9,2 21,5 8,2 18,5 -1,1 -2,5 -2,1 2,0 7,-2 8,-4 21,3 43,5 z M 61,189 q 6,0 22,-9 -2,1 3,-1 1,-5 -4,-6 -8,3 -12,4 -4,-1 -2,1 1,0 -1,3 -4,1 -7,6 -4,2 1,2 z m 27,-38 q 3,2 14,-3 2,-3 -2,-5 -9,1 -22,-2 -10,-2 -41,-12 -14,-7 -28,-2 -5,1 0,2 h 7 q 6,1 9,2 30,7 53,15 1,0 3,2 2,1 7,3 z m -5,-37 q 1,-1 1,-2 0,-1 -1,-1 -5,-2 -10,-7 -4,-4 -12,-7 -5,-3 -1,1 l 1,2 2,2 q 0,2 -2,3 -8,-4 -12,-1 -3,0 0,1 8,2 12,4 h 1 q 4,0 7,4 0,2 14,1 z m 0,-24 1,-1 q 0,-1 -1,-2 -3,-3 -7,-4 -5,-2 -15,-8 8,5 -2,-1 l -3,-2 q 0,1 4,5 2,3 -2,2 -8,-3 -14,-1 -5,1 0,2 16,1 27,9 4,3 12,1 z M 78,60 q 4,1 9,-2 1,-1 1,-2 0,-1 -1,-1 -4,-3 -5,-6 -2,-4 -6,-9 l -1,-2 q 5,0 9,1 1,0 2,1 2,-3 -1,-6 -5,-2 -10,-1 -6,0 -16,-4 -3,-1 -4,0 0,1 3,3 1,0 4,1 6,3 9,4 1,4 4,8 3,6 3,9 0,3 -2,3 -1,-1 -2,-1 -3,-1 -4,-2 -4,-3 -13,-6 h -3 -3 q 0,1 3,3 5,4 24,9 z M 49,34 q -2,5 -1,10 0,3 2,0 0,-20 9,-25 0,-3 -2,-4 -7,2 -11,7 -3,2 0,7 3,2 3,5 z m 145,174 q 2,-1 6,-2 3,-2 6,-2 2,-2 2,-5 -1,-2 -4,-2 -16,0 -24,-4 -6,-4 -4,-3 -28,-15 -40,-24 7,-5 7,-13 l 24,6 q 1,5 2,14 0,2 -4,5 -4,3 2,2 11,-5 11,-11 0,-2 -1,-4 -1,-3 0,-4 17,2 31,1 8,-1 17,-17 1,0 2,-1 3,-8 -4,-7 -5,1 -9,-3 -17,-14 -26,-14 -2,-1 -3,0 0,2 2,3 18,7 26,26 3,10 -11,9 -8,0 -27,-2 -8,-14 -8,-20 2,0 1,0 19,3 23,2 2,-1 1,-2 0,-2 -2,-2 -14,-1 -42,-18 -6,-4 -1,2 l 5,3 q 7,4 10,6 2,2 -1,2 -19,-6 -35,-13 -1,-1 0,-3 1,-2 1,-3 0,-5 -2,-5 -4,7 -13,8 -9,1 -5,10 2,3 2,5 0,1 -3,2 -6,6 3,17 32,29 63,47 2,1 2,2 0,1 -2,1 -35,-11 -54,-5 -5,1 0,2 27,1 54,7 10,2 12,5 3,3 10,2 z m -60,-44 q -25,-19 -23,-26 7,3 14,7 9,5 11,6 1,6 -2,13 z m 32,-10 q -12,-3 -22,-7 v -19 q 1,1 8,3 7,1 9,3 2,7 5,20 z m -29,-9 q -3,-1 -11,-4 -11,-5 -15,-5 2,-14 12,-18 1,1 7,4 4,2 5,3 1,11 2,20 z m 45,-30 q 3,0 5,-2 0,-1 2,-1 2,-5 10,-11 2,-6 -2,-7 -7,0 -8,-4 -2,-12 -11,-25 -7,-9 -21,5 -5,-2 -12,-3 -2,-3 -4,-3 -5,-2 -15,6 -4,3 -2,6 2,2 1,4 0,3 -4,9 -4,1 4,11 1,2 1,0 -6,-10 0,-14 0,-2 2,-4 l 3,-3 q 3,-6 10,-9 4,0 12,4 1,0 2,1 7,4 18,4 1,-1 0,-3 l -6,-2 q -4,-2 -7,-3 11,-8 16,-1 8,8 10,34 0,6 -5,8 -4,3 -41,-12 -8,-3 -9,-1 -3,1 0,2 39,15 51,14 z M 167,95 q 1,-1 1,-2 0,-1 -1,-1 l -6,-4 q -5,-2 -6,-3 -5,-3 -3,-1 1,3 -15,-3 -5,-1 -1,1 8,5 14,7 1,1 3,2 2,0 4,2 2,2 10,2 z"
       inkscape:connector-curvature="0"
       style="fill:currentColor" />
  </g>
</svg>
