<?xml version="1.0" encoding="UTF-8" standalone="no"?>
<svg
   xmlns:dc="http://purl.org/dc/elements/1.1/"
   xmlns:cc="http://creativecommons.org/ns#"
   xmlns:rdf="http://www.w3.org/1999/02/22-rdf-syntax-ns#"
   xmlns:svg="http://www.w3.org/2000/svg"
   xmlns="http://www.w3.org/2000/svg"
   xmlns:sodipodi="http://sodipodi.sourceforge.net/DTD/sodipodi-0.dtd"
   xmlns:inkscape="http://www.inkscape.org/namespaces/inkscape"
   version="1.1"
   viewBox="0 -52 768 256"
   id="svg6"
   sodipodi:docname="c2.svg"
   width="768"
   height="256"
   inkscape:version="0.92.2 5c3e80d, 2017-08-06">
  <metadata
     id="metadata12">
    <rdf:RDF>
      <cc:Work
         rdf:about="">
        <dc:format>image/svg+xml</dc:format>
        <dc:type
           rdf:resource="http://purl.org/dc/dcmitype/StillImage" />
        <dc:title></dc:title>
      </cc:Work>
    </rdf:RDF>
  </metadata>
  <defs
     id="defs10" />
  <sodipodi:namedview
     pagecolor="#ffffff"
     bordercolor="#666666"
     borderopacity="1"
     objecttolerance="10"
     gridtolerance="10"
     guidetolerance="10"
     inkscape:pageopacity="0"
     inkscape:pageshadow="2"
     inkscape:window-width="640"
     inkscape:window-height="480"
     id="namedview8"
     showgrid="false"
     inkscape:zoom="0.66927083333"
     inkscape:cx="384"
     inkscape:cy="128"
     inkscape:window-x="0"
     inkscape:window-y="0"
     inkscape:window-maximized="0"
     inkscape:current-layer="svg6" />
  <g
     transform="matrix(1,0,0,-1,245.04280156,168.14007782)"
     id="g4">
    <path
       d="m 106,205 q -3,3 1,2 16,-4 28,-22 30,4 48,0 15,-2 18,-13 1,-1 -1,-3 0,-2 -4,-1 -8,2 -27,-6 -18,-8 -33,-11 -3,0 0,2 18,8 50,23 3,1 2,3 0,2 -3,3 -21,4 -48,0 1,-10 -5,-13 -3,-2 -5,0 -7,1 -9,8 -3,-1 -5,-2 -11,-4 -17,-7 -8,-4 -13,-2 -2,0 -2,1 1,1 3,2 16,7 33,12 -1,16 -11,24 z M 74,165 q 3,-22 10,-21 v -1 q 2,-1 2,-3 0,-7 -6,-6 -6,-1 -12,12 -3,1 -2,7 -1,3 1,3 3,3 5,9 0,1 2,0 z m 69,-32 h 14 q 7,0 6,-3 0,-5 -5,-4 -7,0 -16,-3 -3,-1 -7,-3 -14,-6 -23,-8 -7,-3 -10,-2 -14,-2 -18,1 -2,1 1,2 14,-3 54,16 -1,0 1,3 2,1 3,1 z m 33,-30 q 6,3 9,2 4,-3 6,-3 3,-2 7,-4 4,-1 6,-1 l 1,-1 q 3,-1 3,-2 0,-4 -3,-3 -5,-1 -10,1 -11,3 -24,2 -18,-2 -34,-5 -4,-6 -3,-10 -2,-12 -2,-19 0,-8 1,-18 1,-26 1,-56 -2,-6 0,-10 0,-2 -1,-3 -3,-1 -3,0 -10,5 -16,37 0,3 2,1 5,-10 10,-13 3,-3 4,-1 0,47 -4,75 -2,13 -4,14 -21,-3 -64,-18 -11,-4 -15,-2 -2,0 -3,1 -2,1 -9,3 -3,1 2,2 7,-1 24,4 3,1 5,2 28,7 57,12 0,1 1,2 0,2 3,2 8,0 13,-1 33,4 37,6 -1,2 3,4 z M 162,63 q -3,3 1,2 24,-8 43,-27 3,-2 0,-7 -1,-4 -12,1 -2,1 -3,2 -9,13 -29,29 z M 83,52 q -2,-9 -3,-15 0,-6 1,-10 1,-5 -1,-5 l -2,-2 q -2,-2 -3,1 -5,2 -2,18 0,4 2,5 3,0 6,7 1,2 2,1 z"
       id="path2"
       inkscape:connector-curvature="0"
       style="fill:currentColor" />
  </g>
  <g
     id="g143"
     transform="matrix(1,0,0,-1,516.51945525,158.7797233)">
    <path
       id="path141"
       d="m 178,14 q -6,4 1,2 26,-13 45,-31 4,-7 -2,-9 -6,-2 -10,5 -18,21 -34,33 z m -49,0 q 1,2 2,2 1,0 1,-2 -10,-24 -31,-31 -3,0 0,2 23,16 28,29 z m 28,132 q 2,3 9,2 4,-1 13,-3 2,-1 1,-3 -1,-2 -3,-1 -8,0 -17,-4 h -1 q -19,-7 -31,-16 -5,-4 -6,-3 -1,1 3,5 3,2 8,7 l 3,3 q -13,-3 -19,0 -5,0 0,2 4,0 11,1 5,1 17,4 9,0 12,6 z m -16,-19 q 9,-7 10,-19 4,0 11,2 4,0 11,2 15,2 22,-5 1,-2 4,-5 6,-6 10,-8 2,-2 2,-4 -1,-3 -5,-4 -6,-4 -5,-9 -8,-38 -26,-47 -1,-1 -3,0 -10,5 -15,12 -1,1 1,2 7,-5 12,-5 6,-4 9,1 16,19 12,53 -1,16 -13,16 -13,-2 -27,-5 -1,-4 -1,-12 -1,-8 -1,-11 6,1 8,3 1,2 5,2 h 4 q 3,1 4,1 3,0 3,-2 -1,-3 -3,-3 -6,-1 -15,-6 -4,-3 -2,0 1,0 -4,-1 0,-3 -1,-8 v -9 -8 h 2 q 10,4 21,4 3,-1 3,-2 -1,-2 -1,-1 -2,-6 -10,-4 -19,3 -36,-6 v -2 q 1,-1 3,-2 4,-4 2,-4 -5,-3 -4,-1 -7,3 -21,21 -2,1 -1,3 -1,1 2,5 -6,14 -3,33 0,4 1,4 1,0 2,-3 -5,-33 17,-52 l 6,2 q 7,3 11,4 -1,0 -1,1 0,4 1,7 v 16 q -23,-8 -26,-7 -5,-1 -1,2 6,2 19,7 4,1 8,3 v 24 q -15,-4 -17,-7 -2,-2 -7,-1 -3,0 -1,2 l 14,6 q 7,2 11,4 v 4 q 0,12 -2,16 -1,2 1,1 z m -9,64 q 10,-3 19,-12 33,4 44,1 11,-3 17,-7 5,-5 15,-14 -1,-6 -5,-4 -4,3 -11,3 -12,0 -36,-3 -4,-1 -4,0 0,1 4,3 17,3 34,9 2,0 2,2 0,1 -2,3 -10,5 -20,5 -11,1 -36,-2 0,-3 2,-7 l 3,-3 q -2,-7 -5,-6 -6,6 -12,7 h -2 q -5,1 -8,3 -16,-3 -33,-9 -5,-2 -1,1 12,8 42,16 0,3 -8,8 1,0 -1,2 -3,1 -2,2 1,1 4,2 z M 92,156 q -1,-9 0,-9 3,3 2,-1 -2,-6 1,-13 1,-3 0,-4 -2,-1 -3,1 -5,7 -11,13 -3,1 0,4 5,4 7,9 1,2 2,2 1,0 2,-2 z m -47,19 q 24,-2 33,-8 2,-2 0,-5 -2,-3 -5,-1 -8,5 -18,3 -5,-1 -5,0 -1,0 1,3 2,2 -7,7 -4,2 1,1 z m 3,-67 q 5,2 15,2 2,-5 -3,-8 -25,-5 -47,1 -6,1 0,2 15,-3 35,3 z M 83,74 Q 57,2 58,-11 q -1,-3 -2,-3 -1,0 -3,2 -4,1 -7,5 -2,3 -1,4 0,1 3,0 3,2 7,8 3,16 25,70 1,4 2,4 1,-1 1,-5 z"
       inkscape:connector-curvature="0"
       style="fill:currentColor" />
  </g>
  <g
     id="g200"
     transform="matrix(1,0,0,-1,-4.9902723718,167.29111543)">
    <path
       id="path198"
       d="m 116,211 q 2,-2 5,-3 l 6,-2 q 5,-4 2,-7 -3,0 -1,-24 6,1 19,3 4,1 6,2 4,1 6,4 1,5 9,2 3,-2 9,-4 h 3 q 3,-2 2,-4 -1,-1 -4,-1 -16,4 -49,-6 v -6 q 9,-7 5,-9 -4,-3 -6,-5 0,-4 -1,-11 -1,-7 0,-10 -4,-16 1,-24 1,-3 -1,-5 -2,-1 -3,1 -8,13 -4,21 2,5 2,24 -41,-30 -66,-53 -4,-3 -5,-2 -1,1 3,5 57,46 67,62 v 10 q -4,-1 -10,-3 -16,-3 -23,-5 -7,-4 -21,0 -5,1 -1,2 l 1,1 q 27,2 54,10 -1,25 -7,35 -4,4 2,2 z m 30,-65 q 51,-1 62,-16 -1,-5 -6,-3 -5,3 -17,3 -5,-1 -5,0 -1,1 2,3 1,1 0,2 0,1 -2,2 -16,6 -33,8 -5,0 -1,1 z m 1,-36 q 8,-3 14,-6 4,-3 4,-4 0,-2 -4,-5 -7,-4 -24,-28 6,-1 5,-4 0,-1 -1,-3 0,-6 1,-10 10,1 19,2 15,2 28,4 1,9 10,6 2,-3 9,-5 10,-3 21,-7 2,-2 2,-4 -1,-2 -3,-2 -12,2 -17,7 -8,3 -14,3 -40,-5 -55,-8 3,-30 2,-39 -1,-8 -8,-24 -3,-9 -12,-8 -22,0 -35,5 -6,4 1,2 24,-3 37,3 19,17 9,60 Q 73,34 52,28 43,25 33,27 q -3,0 -3,1 0,1 3,2 52,9 103,18 -4,17 -11,16 -3,0 -3,1 0,1 3,2 2,1 7,1 7,12 13,28 0,4 -1,5 -1,1 -5,-1 -31,-18 -42,-28 -5,-5 -7,1 -5,6 -1,8 1,0 5,6 -3,-5 2,2 4,4 2,-1 -2,-4 -2,-5 1,-1 4,1 13,7 34,16 6,2 6,7 -1,6 7,3 z"
       inkscape:connector-curvature="0"
       style="fill:currentColor" />
  </g>
</svg>
