<?xml version="1.0" encoding="UTF-8" standalone="no"?>
<svg
   xmlns:dc="http://purl.org/dc/elements/1.1/"
   xmlns:cc="http://creativecommons.org/ns#"
   xmlns:rdf="http://www.w3.org/1999/02/22-rdf-syntax-ns#"
   xmlns:svg="http://www.w3.org/2000/svg"
   xmlns="http://www.w3.org/2000/svg"
   xmlns:sodipodi="http://sodipodi.sourceforge.net/DTD/sodipodi-0.dtd"
   xmlns:inkscape="http://www.inkscape.org/namespaces/inkscape"
   version="1.1"
   viewBox="0 -52 768 256"
   id="svg6"
   sodipodi:docname="c5.svg"
   width="768"
   height="256"
   inkscape:version="0.92.2 5c3e80d, 2017-08-06">
  <metadata
     id="metadata12">
    <rdf:RDF>
      <cc:Work
         rdf:about="">
        <dc:format>image/svg+xml</dc:format>
        <dc:type
           rdf:resource="http://purl.org/dc/dcmitype/StillImage" />
        <dc:title></dc:title>
      </cc:Work>
    </rdf:RDF>
  </metadata>
  <defs
     id="defs10" />
  <sodipodi:namedview
     pagecolor="#ffffff"
     bordercolor="#666666"
     borderopacity="1"
     objecttolerance="10"
     gridtolerance="10"
     guidetolerance="10"
     inkscape:pageopacity="0"
     inkscape:pageshadow="2"
     inkscape:window-width="640"
     inkscape:window-height="480"
     id="namedview8"
     showgrid="false"
     inkscape:zoom="0.66927083333"
     inkscape:cx="384"
     inkscape:cy="128"
     inkscape:window-x="0"
     inkscape:window-y="0"
     inkscape:window-maximized="0"
     inkscape:current-layer="svg6" />
  <g
     transform="matrix(1,0,0,-1,259.9844358,166.6459144)"
     id="g4">
    <path
       d="m 119,204 q 22,-1 29,-14 1,-1 0,-3 -3,-3 -6,-1 -4,2 -11,1 -5,-3 -13,-2 -3,-1 0,1 2,0 7,6 3,4 0,6 -2,1 -6,5 -3,1 0,1 z m 78,-16 q 10,-5 19,-11 0,-1 -1,-1 -4,-3 -5,-1 h -3 q -4,2 -8,2 h -16 q -51,-1 -122,-20 -2,-1 -6,-2 -12,-4 -21,-1 -2,0 1,1 10,1 23,4 69,17 130,25 5,6 9,4 z m -70,-25 q 7,-1 12,-5 0,-1 -2,-2 -4,0 -8,-4 l -3,-3 q -13,-11 -25,-24 -2,-3 1,-1 31,8 50,16 -1,4 2,5 l 2,2 q 10,-4 18,-3 5,0 4,-4 0,-3 -4,-2 -18,-1 -40,-12 -15,-9 -21,-15 -1,-5 5,-5 5,0 8,-2 0,-4 -1,-3 -3,0 -4,-6 0,-13 -1,-19 4,0 11,5 5,3 14,6 -1,8 1,22 0,3 -1,4 h -4 q -3,-2 -6,-1 -2,0 3,3 8,3 17,-3 1,-2 3,-3 l 4,-2 q -1,-4 -2,-4 -9,-2 -9,-16 V 59 q 2,-2 0,-5 0,-33 6,-50 9,-22 9,-27 -3,-1 -3,0 -3,2 -6,7 -5,8 -9,14 -6,5 -15,23 -2,3 1,1 0,-2 2,-3 8,-12 14,-15 1,-1 2,0 1,1 1,4 -3,18 -6,45 -1,-1 -3,-2 h -3 q -5,-1 -4,1 1,0 -3,0 -5,-3 -15,-2 1,-58 -33,-68 -5,0 -1,2 20,11 28,32 6,37 4,80 0,4 -2,6 -9,5 -3,10 7,6 26,19 h -1 q -3,-1 -9,-4 -7,-2 -11,-3 -24,-7 -34,-13 -6,-4 -5,-1 1,4 1,7 0,2 3,2 h 1 q 9,0 13,6 l 22,22 6,6 q 3,4 1,8 0,1 2,2 z M 119,51 h 1 q 10,2 14,4 6,1 12,4 0,13 -1,22 -3,-3 -9,-4 -3,-1 -3,-2 -3,-2 -4,-2 l 1,3 q -6,-2 -10,-1 0,-3 -1,-12 z"
       id="path2"
       inkscape:connector-curvature="0"
       style="fill:currentColor" />
  </g>
  <g
     id="g90"
     transform="matrix(1,0,0,-1,503.76945525,170.4844358)">
    <path
       id="path88"
       d="m 111,204 q 4,-3 9,-6 3,-3 0,-6 -8,-12 5,-55 l 24,4 q 11,1 23,4 3,0 5,3 1,2 8,1 5,-2 16,-6 2,-2 1,-5 -2,-3 -5,-1 -11,6 -23,5 -12,-1 -49,-9 9,-37 36,-80 15,22 17,32 -1,3 0,3 1,1 3,-1 6,-9 2,-14 -7,-10 -18,-27 27,-39 60,-59 2,-1 3,0 1,1 2,3 -2,8 -1,33 0,5 1,6 1,0 2,-5 3,-31 9,-41 1,-4 0,-6 -1,-1 -4,0 -41,19 -75,65 -19,-21 -47,-34 -4,-2 -6,-2 -1,1 3,3 30,18 46,39 -25,42 -38,84 -2,-1 -5,-2 -28,-7 -43,-12 -8,-2 -5,-8 9,-86 -42,-115 -3,-1 -4,0 0,2 3,3 49,33 38,113 -1,0 -1,1 -1,8 -5,7 -3,0 -7,-1 -4,-1 -6,0 -8,3 -3,13 0,1 1,2 2,2 4,6 1,5 2,0 -2,-16 2,-16 10,1 16,0 3,-1 14,1 10,3 40,11 -1,1 -1,3 -6,28 -7,47 -1,2 -1,3 -1,9 -2,13 -2,2 -1,3 1,1 4,0 z m 48,-6 q 24,-6 33,-17 0,-4 -4,-5 -3,-3 -15,9 l -15,12 q -4,2 1,1 z M 123,86 q 3,-2 2,-5 0,-2 -3,-3 -2,0 -4,-7 -10,-31 -30,-44 -8,-3 -8,5 0,4 -4,10 -3,4 1,2 11,-14 17,-7 19,18 16,41 -1,7 -6,8 -8,1 -16,-4 -4,-3 -15,-1 -2,0 -2,1 0,1 2,2 12,2 20,6 7,2 15,1 6,-1 15,-5 z"
       inkscape:connector-curvature="0"
       style="fill:currentColor" />
  </g>
  <g
     id="g147"
     transform="matrix(1,0,0,-1,-0.09807609634,164.18612192)">
    <path
       id="path145"
       d="m 134,82 q -8,-31 -7,-62 0,-20 19,-27 34,-9 72,-1 8,1 5,8 -5,15 -15,36 -6,10 2,2 13,-17 31,-42 3,-5 -4,-7 -60,-10 -93,1 -20,7 -20,28 -1,13 -1,29 1,16 3,34 0,10 -4,21 -1,2 0,2 1,1 3,-1 0,-2 1,-3 l 2,-2 q 15,2 26,6 7,2 12,8 4,4 9,2 8,-6 13,-10 3,-3 3,-4 0,-2 -3,-2 -8,-3 -8,-9 -6,-36 -13,-51 -2,-4 -3,-4 -1,-1 -3,2 -9,6 -18,18 -4,6 2,2 7,-6 15,-10 3,-2 6,4 7,27 7,50 0,6 -6,4 -21,-9 -37,-9 6,-9 4,-13 z m -48,66 q -14,-4 -33,1 -6,1 1,2 h 5 q 10,1 30,4 l -1,2 q -3,13 -8,23 -1,2 -1,3 1,0 4,-1 13,-15 17,-24 19,3 41,9 6,13 10,26 2,4 -7,12 -3,4 2,2 19,-13 14,-19 -5,-9 -10,-19 3,1 9,2 6,1 10,3 6,1 10,5 2,6 8,3 3,-2 8,-4 4,-1 6,-1 2,-2 2,-4 -1,-2 -4,-1 -10,1 -24,-2 -5,-1 -16,-4 l -12,-2 v -1 q -16,-24 -33,-34 -6,-3 -1,2 13,8 25,31 -20,-6 -27,-8 -7,-2 -9,-2 1,-5 3,-10 2,-7 -3,-7 -7,0 -12,14 -1,0 -2,-1 -2,-1 -2,0 z m 2,-98 q 3,5 2,-1 -6,-18 -14,-39 -6,-12 -7,-30 -1,-2 -5,-1 -9,9 -3,9 3,2 5,6 4,14 22,56 z m -21,68 q 6,-3 18,-3 7,0 13,-4 1,-5 -4,-7 -3,-1 -7,0 -4,1 -6,1 -6,-1 -6,0 -1,1 4,4 -7,2 -13,7 -4,2 1,2 z m 1,-46 q 3,-4 1,-5 l -7,-7 -3,-2 q -1,0 0,3 -1,4 -5,4 -12,-1 -19,4 -4,2 1,1 13,-2 20,1 7,2 12,1 z"
       inkscape:connector-curvature="0"
       style="fill:currentColor" />
  </g>
</svg>
