<?xml version="1.0" encoding="UTF-8" standalone="no"?>
<svg
   xmlns:dc="http://purl.org/dc/elements/1.1/"
   xmlns:cc="http://creativecommons.org/ns#"
   xmlns:rdf="http://www.w3.org/1999/02/22-rdf-syntax-ns#"
   xmlns:svg="http://www.w3.org/2000/svg"
   xmlns="http://www.w3.org/2000/svg"
   xmlns:sodipodi="http://sodipodi.sourceforge.net/DTD/sodipodi-0.dtd"
   xmlns:inkscape="http://www.inkscape.org/namespaces/inkscape"
   version="1.1"
   viewBox="0 -52 768 256"
   id="svg6"
   sodipodi:docname="a_s.svg"
   width="768"
   height="256"
   inkscape:version="0.92.2 5c3e80d, 2017-08-06">
  <metadata
     id="metadata12">
    <rdf:RDF>
      <cc:Work
         rdf:about="">
        <dc:format>image/svg+xml</dc:format>
        <dc:type
           rdf:resource="http://purl.org/dc/dcmitype/StillImage" />
        <dc:title />
      </cc:Work>
    </rdf:RDF>
  </metadata>
  <defs
     id="defs10" />
  <sodipodi:namedview
     pagecolor="#ffffff"
     bordercolor="#666666"
     borderopacity="1"
     objecttolerance="10"
     gridtolerance="10"
     guidetolerance="10"
     inkscape:pageopacity="0"
     inkscape:pageshadow="2"
     inkscape:window-width="1077"
     inkscape:window-height="714"
     id="namedview8"
     showgrid="false"
     inkscape:zoom="1.23828125"
     inkscape:cx="384"
     inkscape:cy="128"
     inkscape:window-x="0"
     inkscape:window-y="0"
     inkscape:window-maximized="0"
     inkscape:current-layer="svg6" />
  <g
     id="g88"
     transform="matrix(1,0,0,-1,231.40201105,156.44321767)">
    <path
       id="path86"
       d="m 138,99 q 5,-10 6,-13 1,-3 0,-5 -14,-29 -10,-60 1,-21 24,-27 32,-6 68,1 7,3 6,6 -1,21 -2,34 -1,3 0,3 2,1 3,-2 3,-21 15,-34 3,-3 -2,-7 -52,-14 -91,-3 -24,7 -25,29 -4,22 5,55 2,13 1,22 0,4 2,1 z m 53,21 q 3,-3 3,-4 0,-2 -4,-3 -3,-2 -5,-7 v -1 q -9,-33 -24,-48 -6,-5 -7,1 -1,1 -3,7 -2,5 -3,11 -2,5 2,1 0,-1 1,-2 4,-6 8,-9 3,-3 6,1 13,17 14,46 0,11 -8,11 -11,-1 -23,-6 -4,-4 -14,-2 -2,0 -2,1 0,1 3,2 15,5 36,9 3,1 20,-8 z M 114,105 Q 83,88 78,76 q 1,-1 7,-3 6,-2 14,-5 8,14 19,36 1,2 0,2 -1,1 -4,-1 z m -22,20 q 7,-6 7,-8 0,-3 -5,-10 v -1 q -7,-8 -12,-19 10,9 29,20 l 2,2 q 2,1 2,3 -1,3 8,4 6,-1 9,-4 3,-4 -3,-8 -8,-2 -26,-39 15,-9 22,-18 3,-5 -2,-6 -4,-1 -7,4 -5,7 -12,12 -1,2 -3,4 Q 97,55 94,48 81,23 75,13 58,-16 20,-22 q -7,-1 0,2 42,7 77,83 -13,8 -20,11 -8,-17 -11,-13 -7,1 -2,13 2,3 4,3 2,-1 6,5 17,24 16,41 -2,4 2,2 z m 2,68 q -6,3 0,2 20,-6 37,-20 39,6 60,0 16,-6 20,-16 1,-3 -1,-5 -2,-1 -5,1 -9,2 -18,1 -11,-3 -25,-4 -9,0 -1,2 21,4 35,12 2,1 2,2 l -3,2 q -17,11 -61,1 0,-2 -1,-5 -1,-3 0,-4 -2,-5 -6,-6 -9,1 -15,10 -20,-5 -25,-10 -2,-3 -13,0 -9,-7 -9,-13 -1,-5 3,-11 4,-5 4,-9 -3,-6 -8,-1 -10,11 -5,22 3,4 8,10 4,6 8,11 2,0 1,-1 0,-1 -1,-2 v -3 q 4,0 11,3 7,3 24,8 -3,2 -2,8 -1,7 -14,15 z"
       inkscape:connector-curvature="0"
       style="fill:currentColor" />
  </g>
  <g
     id="g198"
     transform="matrix(1,0,0,-1,-10.852073006,165.38107256)">
    <path
       id="path196"
       d="m 151,117 q 14,-10 11,-11 -4,-6 -3,-16 2,0 12,3 15,3 19,5 4,4 8,4 13,-3 20,-7 0,-2 -1,-4 -1,-1 -3,1 -8,2 -20,0 -11,-1 -35,-7 V 69 q 19,-33 38,-53 4,-7 14,-7 21,-3 35,-9 1,0 0,0 h -8 q -17,1 -27,1 -9,0 -16,11 -21,23 -36,48 -2,-41 1,-66 1,-9 5,-18 0,-4 -6,-4 -4,2 -5,7 -2,7 -7,14 -5,6 -9,13 -2,5 2,1 1,-3 6,-7 5,-4 7,-7 0,-1 1,0 1,0 2,2 -1,7 -1,19 -1,19 0,46 -21,-42 -48,-58 -5,-2 -1,2 28,19 47,64 -2,2 -5,7 -2,3 -2,5 -2,-1 -10,-4 -11,-5 -21,-2 -3,1 1,2 10,2 29,9 5,2 8,3 0,22 -3,27 -3,4 1,2 z m -5,92 q -3,3 2,1 20,-14 15,-19 -5,-8 -11,-19 32,5 37,9 v 1 q 1,4 6,3 5,-2 13,-5 3,-2 8,-3 2,-2 1,-5 0,-2 -3,0 -19,3 -65,-6 -13,-19 -29,-25 -5,-3 -1,1 14,9 21,23 -10,-2 -29,-4 -11,-2 -14,-2 1,-5 3,-10 1,-8 -3,-7 -8,0 -13,14 -14,-5 -36,2 -5,1 1,2 15,-2 33,3 -3,11 -8,20 v 3 q -2,2 -1,3 1,1 3,0 1,-2 2,-3 13,-14 16,-21 32,2 48,6 8,13 11,25 2,4 -7,13 z M 68,41 l 8,5 q 1,2 1,17 -11,-4 -15,-3 -5,-1 -1,1 l 16,6 q -1,2 -1,5 -1,9 -2,12 -7,-3 -14,-2 -4,1 0,2 10,3 16,5 10,4 22,8 5,1 11,-3 3,-4 7,-8 3,-2 4,-2 1,-4 -1,-5 -6,-2 -7,-9 -4,-19 -10,-29 -4,-11 -18,-3 -3,1 -2,2 l 3,1 q 9,-4 14,4 9,19 7,38 -2,10 -6,9 -13,-2 -23,-6 8,-9 6,-8 v -8 q 5,2 1,0 4,2 9,1 3,-1 2,-4 -3,0 -6,-1 H 85 Q 82,65 81,62 V 61 48 q 6,3 12,3 l 2,-2 q 0,-1 -1,-1 l -4,-2 q -19,-8 -21,-7 0,-5 -3,-4 -4,0 -6,4 -1,0 -5,1 -5,0 -3,6 2,3 1,6 -4,4 -4,14 -1,10 -2,14 -3,5 9,13 6,5 17,12 6,4 14,10 3,2 -1,2 -2,0 -5,-1 h -2 q -2,0 -2,1 0,1 2,2 12,4 18,7 4,4 8,2 1,-1 4,-2 3,-2 5,-2 2,-2 1,-4 0,-1 -2,-1 -10,0 -25,-9 -7,-5 -14,-9 Q 64,95 57,91 49,86 50,81 50,54 68,41 Z m 104,104 q 2,-4 6,-3 6,-4 8,-5 2,-1 1,-2 -2,-3 -6,-1 -2,2 -14,-3 -27,-13 -43,-15 -2,-1 0,1 19,7 38,19 8,4 4,7 1,2 6,2 z m -95,-9 q 7,-6 1,-10 -23,-24 -35,-31 -4,-2 -4,-1 0,1 3,4 15,10 28,27 4,4 5,11 -1,3 2,0 z M 39,9 q 3,-9 8,-9 h 2 q 1,0 1,-2 -1,-2 2,-6 1,-1 1,-3 -1,-1 -3,-2 -4,0 -7,4 l -1,1 q -6,8 -5,17 0,4 2,0 z m 41,18 q -2,2 0,1 Q 92,20 93,14 94,10 91,8 85,9 80,27 Z M 61,20 Q 66,19 72,6 73,1 71,1 65,1 61,18 q -2,4 0,2 z m 40,13 q 8,-8 15,-14 1,-5 -2,-6 -4,1 -7,7 -2,5 -7,11 -2,4 1,2 z"
       inkscape:connector-curvature="0"
       style="fill:currentColor" />
  </g>
  <g
     id="g253"
     transform="matrix(1.1597704394,0,0,-1.1597704394,465.88545119,180.35710195)">
    <path
       id="path251"
       d="m 90,149 q 1,-3 -1,-3 -14,-1 -27,-10 -8,-4 -1,2 1,2 1,3 h -2 q -9,-3 -21,-4 h -5 q -2,0 -2,1 0,1 2,2 24,2 36,10 5,3 20,-1 z M 56,120 q 15,-12 11,-12 -1,-2 -1,-7 -1,-6 -1,-7 8,7 16,8 4,-3 -1,-6 -4,-2 -13,-9 L 65,86 Q 62,65 64,50 76,67 92,84 95,87 94,84 72,50 62,39 54,32 46,17 q -7,-4 -9,1 -1,4 1,2 2,-1 6,4 5,8 17,22 l 2,2 q -5,4 -7,12 -1,6 1,8 2,1 2,15 -2,-1 -4,-3 -6,-2 -12,-7 -4,-2 -11,0 -2,1 1,2 13,5 26,15 2,24 -4,29 -2,3 1,1 z m 70,-17 q 12,-4 21,-11 1,-4 -2,-4 -7,-1 -11,5 -2,0 -4,2 l -5,5 q -2,1 -2,2 1,0 3,1 z m 39,90 q 13,-16 10,-17 -1,-1 -1,-3 -2,-13 -1,-39 4,1 17,4 l 12,4 q 6,6 9,6 13,-1 20,-5 -1,-7 -5,-5 -12,7 -52,-8 v -13 q 17,-35 33,-55 3,-5 14,-6 16,0 33,-6 1,-2 -1,-2 -9,1 -15,1 -5,1 -17,1 -12,-1 -18,10 -14,22 -28,46 0,-80 5,-113 -1,-2 -2,-2 -1,-1 -3,0 -5,4 -5,9 -2,7 -5,12 -1,0 -3,2 -5,7 -7,13 -2,5 2,1 6,-7 15,-17 1,-2 2,-2 1,1 2,5 -2,17 -3,46 -2,28 -3,46 Q 149,61 123,44 V 43 20 17 q 1,-8 5,-13 1,-3 0,-4 h -2 q -3,0 -4,2 l -6,12 q -4,5 -8,16 -1,4 1,1 0,-1 1,-3 4,-5 8,-6 1,-3 2,-2 l 1,3 -1,19 q 0,-1 0,1 0,9 -1,25 v 35 Q 102,69 78,56 q -5,-2 -1,1 25,16 42,60 -1,1 0,9 1,7 1,9 -6,-3 -11,-4 -8,-2 -13,-4 -10,-4 -21,-1 -4,1 1,2 9,-1 44,12 v 22 q 1,24 1,28 -2,4 2,1 10,-9 7,-9 -3,-6 -4,-14 -1,-7 -1,-27 h 2 q 14,5 20,5 4,-2 1,-5 -6,-1 -17,-4 -4,-1 -7,-1 v -7 q 3,-3 -1,-17 -1,-21 -1,-37 0,-17 1,-29 28,23 45,70 l -3,6 q -1,2 -1,4 -11,-4 -21,-7 -8,-4 -15,-2 -3,1 0,2 13,4 40,13 0,28 -2,39 0,12 -3,20 -3,6 2,2 z"
       inkscape:connector-curvature="0"
       style="fill:currentColor" />
  </g>
</svg>
