<?xml version="1.0" encoding="UTF-8" standalone="no"?>
<svg
   xmlns:dc="http://purl.org/dc/elements/1.1/"
   xmlns:cc="http://creativecommons.org/ns#"
   xmlns:rdf="http://www.w3.org/1999/02/22-rdf-syntax-ns#"
   xmlns:svg="http://www.w3.org/2000/svg"
   xmlns="http://www.w3.org/2000/svg"
   xmlns:sodipodi="http://sodipodi.sourceforge.net/DTD/sodipodi-0.dtd"
   xmlns:inkscape="http://www.inkscape.org/namespaces/inkscape"
   version="1.1"
   viewBox="0 -52 768 256"
   id="svg6"
   sodipodi:docname="a_tk.svg"
   width="768"
   height="256"
   inkscape:version="0.92.2 5c3e80d, 2017-08-06">
  <metadata
     id="metadata12">
    <rdf:RDF>
      <cc:Work
         rdf:about="">
        <dc:format>image/svg+xml</dc:format>
        <dc:type
           rdf:resource="http://purl.org/dc/dcmitype/StillImage" />
        <dc:title />
      </cc:Work>
    </rdf:RDF>
  </metadata>
  <defs
     id="defs10" />
  <sodipodi:namedview
     pagecolor="#ffffff"
     bordercolor="#666666"
     borderopacity="1"
     objecttolerance="10"
     gridtolerance="10"
     guidetolerance="10"
     inkscape:pageopacity="0"
     inkscape:pageshadow="2"
     inkscape:window-width="1134"
     inkscape:window-height="733"
     id="namedview8"
     showgrid="false"
     inkscape:zoom="1.23828125"
     inkscape:cx="384"
     inkscape:cy="128"
     inkscape:window-x="51"
     inkscape:window-y="91"
     inkscape:window-maximized="0"
     inkscape:current-layer="svg6" />
  <g
     id="g159"
     transform="matrix(1,0,0,-1,540.95606129,164.55775297)">
    <g
       id="g86"
       transform="translate(-268.78571429,-0.49074860435)">
      <path
         id="path84"
         d="m 140,207 8,-6 q 0,0 1,-5 -3,-3 -5,-19 v -6 q 21,6 33,9 4,1 7,3 1,1 6,0 2,-1 1,-1 6,-1 8,-3 2,-2 0,-4 h -1 q -7,-4 -11,-4 -4,0 -6,-3 -23,-14 -42,-18 -1,-1 -1,-2 -1,-2 -1,-6 3,0 11,2 3,1 5,2 8,1 10,5 1,4 7,2 l 9,-3 q 2,-2 3,-4 -1,-2 -3,-2 -16,-1 -44,-11 -1,-2 -2,-6 -2,-4 -2,-5 9,1 20,3 -1,1 -5,4 3,-2 -1,1 -2,1 2,2 10,-3 9,-5 24,3 30,6 6,3 13,-1 4,-2 16,-7 2,-3 -1,-4 -8,-1 -19,6 -4,2 -7,2 -4,-1 -11,-2 -9,-2 -20,-4 15,-28 34,-48 5,-5 14,-6 23,-1 44,-7 3,-2 3,-3 0,-1 -3,0 -7,1 -19,2 -10,-1 -14,2 -6,1 -10,-1 -7,-3 -11,4 -1,0 -2,1 -15,17 -21,28 -12,-1 -24,-3 -11,-1 -25,-3 -8,-1 -1,2 15,5 30,8 4,0 5,2 0,2 10,1 -4,3 -8,9 -4,7 -6,11 -9,-2 -16,-3 -4,-1 -7,-1 -22,-50 -50,-65 1,-24 3,-34 1,-9 6,-17 2,-3 0,-5 -4,-2 -6,1 -17,17 -31,39 -2,2 -1,3 1,0 4,-2 10,-14 20,-21 3,-3 5,-2 1,1 1,6 -1,2 -1,6 Q 76,55 76,82 61,69 52,66 46,7 13,-5 9,-5 8,-4 l 3,2 q 29,15 38,67 -4,-1 -4,0 0,1 4,4 4,55 0,83 0,3 2,1 7,-8 5,-9 -3,1 -2,-28 8,1 20,10 0,26 4,40 0,3 -1,4 -1,1 -4,0 -25,-13 -30,-7 -3,1 0,2 11,1 29,10 4,3 8,1 4,-3 9,-8 3,-2 5,-3 3,-4 3,-6 -1,-2 -5,-2 -9,0 -9,-9 -3,-12 -4,-24 -1,-13 0,-30 9,9 13,15 -2,0 -3,1 -2,0 -3,1 -4,2 1,2 4,-1 10,1 l 6,6 q 3,4 5,6 -2,0 -4,1 -2,1 -3,2 -2,1 1,2 1,0 5,1 3,1 5,2 3,4 10,12 1,2 2,2 1,-1 1,-3 -3,-5 -4,-9 1,0 5,2 2,0 5,2 4,13 6,23 -19,-8 -23,-19 -1,-3 -4,-3 -2,0 -2,3 -1,5 -2,8 -2,1 0,4 3,3 6,8 1,1 2,3 3,6 2,0 -1,-8 6,-5 2,1 8,3 l 8,4 q 1,10 3,26 0,7 -3,10 -3,3 2,2 z m -12,-76 q -5,-2 -3,-1 -2,-1 -10,-3 -3,-5 -6,-9 7,0 15,3 l 2,6 z m -5,-16 q -2,-1 -6,-2 -10,-1 -13,-2 Q 92,96 78,85 77,75 79,60 q 0,-3 1,-5 25,19 43,60 z M 53,71 q 12,8 22,20 0,3 -1,10 v 13 Q 64,110 54,112 54,96 53,90 Z m 121,106 q -14,-4 -31,-11 -2,-6 -3,-12 14,1 36,21 4,4 -2,2 z M 146,86 q 1,-1 3,-2 8,-3 7,-5 -2,-2 -1,-7 6,3 13,1 2,-1 2,-2 0,-2 -2,-2 -8,-2 -13,-3 -2,-6 -1,-14 4,3 11,2 2,-1 2,-2 0,-2 -2,-2 -5,0 -12,-3 0,-9 -2,-16 15,3 28,0 8,-3 18,-14 4,-3 1,-8 -8,-16 -19,-25 -4,-1 -6,-6 -2,-3 -5,0 -8,5 -13,9 -4,4 1,2 6,-3 13,-5 5,0 7,1 18,13 17,30 -2,9 -13,13 -21,5 -54,-8 -7,-5 -11,-1 -1,1 -1,2 1,1 3,1 1,-1 4,0 1,0 2,1 -5,4 -9,11 -3,4 0,7 2,1 2,7 -3,7 -2,21 1,4 2,0 2,-21 6,-31 4,-10 4,-14 9,1 20,6 0,2 -1,5 0,4 1,6 v 1 q 1,1 2,4 -7,-2 -17,-6 -6,-2 -8,1 0,3 2,3 4,-2 8,0 6,3 15,6 v 14 q -2,-1 -8,-2 -9,-3 -13,-3 -4,0 0,2 2,0 7,3 8,3 13,5 -1,1 -1,2 -1,9 -3,13 -1,1 -1,2 z m 17,-62 q 8,-7 13,-11 1,-2 2,-3 0,-3 -1,-3 -1,-1 -3,1 -5,4 -12,15 -3,2 1,1 z m -25,-5 q -2,1 1,1 7,-5 12,-16 1,-3 -1,-3 -5,2 -6,6 0,1 -3,6 -2,2 -3,6 z m -17,-9 q 7,-8 9,-10 1,0 -2,-1 -6,1 -9,11 -1,2 2,0 z M 103,8 q 1,1 2,0 -1,-6 3,-8 1,0 3,-3 0,-1 1,-2 -1,-3 -4,-1 -9,6 -5,14 z"
         inkscape:connector-curvature="0"
         style="fill:currentColor" />
    </g>
  </g>
  <g
     id="g165"
     transform="matrix(1,0,0,-1,6.9416403784,163.53259727)">
    <path
       id="path163"
       d="m 140,196 q 3,-4 9,-8 2,-4 1,-6 -2,-1 -5,-5 v -1 q -4,-7 -11,-15 1,-1 2,0 1,1 3,1 1,-1 3,1 6,4 14,1 2,-3 6,-8 3,-2 4,-2 2,-6 -2,-7 -5,0 -6,-6 -2,-21 -4,-38 5,-2 2,-6 -2,-2 -2,-3 -1,-72 12,-104 0,-2 -2,-4 -3,-1 -4,1 l -4,8 q -4,6 -12,24 -2,5 2,1 5,-5 7,-9 1,-2 2,-2 1,0 1,3 -3,14 -4,32 -1,15 -2,44 -6,-8 -16,-23 -4,-5 -7,-10 -7,-12 -17,-16 -7,-4 -9,-9 5,1 9,0 2,-4 1,-6 -5,-3 -10,-2 -9,0 -16,-4 -4,1 -1,5 4,3 10,5 -2,1 4,14 v 3 h -3 q -4,-2 -20,-8 4,-11 5,-16 1,-6 5,-8 1,-5 -4,-5 -15,7 -9,12 3,6 2,9 -5,7 -4,18 1,3 2,0 0,-2 1,-4 0,-3 1,-4 18,8 20,11 3,2 8,1 9,-3 10,-5 13,10 34,46 -7,-5 -15,-10 v -4 l 1,-1 q 0,-4 -3,-3 -3,1 -4,5 -1,-1 -6,-3 -3,-2 -5,0 -2,3 0,6 3,3 7,10 1,1 2,3 0,2 -1,7 -2,-1 -3,1 -2,1 0,3 h 2 q 0,1 1,1 1,7 1,20 -3,0 -3,1 0,1 3,2 0,11 -1,17 l -4,-4 q -5,-2 -4,3 1,7 8,11 6,2 15,22 5,9 1,15 -3,4 2,2 z m 7,-33 q -8,-1 -15,-8 -4,-8 -5,-25 h 1 q 3,1 5,3 2,4 10,5 3,-1 1,-4 -6,-5 -12,-13 -5,-5 -2,2 4,7 1,5 -2,-2 -4,-1 -1,-3 -1,-9 v -9 q 4,0 9,6 1,3 16,6 -1,18 1,30 0,2 1,4 1,7 -6,8 z m 4,-46 q -7,-1 -24,-23 0,-2 1,-4 0,-3 1,-4 11,6 15,10 2,5 5,2 l 2,2 z m -21,-13 q -1,0 -2,-1 -1,-1 -1,0 v -4 q 1,3 3,5 z m -7,-17 q -1,-1 -2,-3 v -1 l 2,1 z m 69,101 q 9,-8 12,-9 4,-2 1,-6 -7,-8 -2,-56 24,5 24,9 2,3 9,3 5,-2 10,-3 1,-1 1,-2 0,-1 -1,-1 -10,-1 -43,-10 1,-70 7,-109 -1,-4 -6,-3 -7,11 -12,16 -2,1 -5,5 -3,3 -8,11 -2,5 2,2 8,-12 19,-16 3,-2 4,4 -3,47 -6,88 -14,-3 -24,-7 -8,-3 -13,0 -3,1 0,2 6,1 16,4 12,3 21,5 -5,75 -8,72 -3,4 2,1 z M 76,187 q 6,-3 14,-5 h 2 q 5,-1 14,-8 2,-4 -1,-5 -10,2 -22,1 -6,1 0,2 4,1 4,2 1,1 -1,4 -2,1 -5,3 -3,2 -5,4 -3,2 0,2 z m 30,-81 q 2,-1 2,-3 0,-1 -2,-1 -5,0 -8,-3 L 86,93 q -6,-2 -2,2 L 73,92 h -2 q 0,1 3,3 13,5 20,12 3,3 12,-1 z M 91,81 q 2,2 12,1 2,-3 0,-5 -13,0 -28,-21 -4,-3 -1,1 8,10 9,12 2,4 -1,2 -7,-3 -10,-3 -5,0 0,2 8,3 19,11 z m 83,-1 q 2,-1 5,-3 5,-2 9,-3 3,-1 3,-7 -2,-5 -6,-2 -5,3 -13,12 -2,1 -2,2 1,1 4,1 z m -54,50 q -13,-3 -25,-3 -9,0 -21,-3 -14,-6 -48,-14 -13,-4 -20,1 -2,0 -2,2 1,1 4,2 21,-4 90,19 9,2 22,1 2,-1 2,-3 0,-2 -2,-2 z"
       inkscape:connector-curvature="0"
       style="fill:currentColor" />
  </g>
  <g
     id="g244"
     transform="matrix(1,0,0,-1,509.8373089,164.64370838)">
    <path
       id="path242"
       d="m 126,129 q 9,1 23,-11 2,-5 -2,-8 -7,-1 -6,-7 -1,-12 -1,-19 0,-7 1,-17 0,-16 -1,-22 -2,-6 -4,-6 -3,-1 -9,8 -4,2 1,2 7,-3 8,3 v 13 q -1,-2 -5,-4 -3,-2 -4,-2 Q 116,54 108,40 84,3 59,-19 52,-23 57,-18 84,6 110,50 96,46 85,39 62,25 65,38 q 0,2 2,4 1,0 2,1 3,2 2,-1 -2,-3 2,-1 23,8 41,18 l 1,1 q 4,1 9,7 2,3 6,2 1,-1 3,-2 h 3 q -1,5 -1,15 -2,23 -1,39 0,4 -5,4 -10,0 -20,-4 -6,-3 -11,-2 -4,-1 0,2 19,8 28,8 z m -26,75 q -1,2 2,1 1,-1 4,-2 2,-1 4,-1 11,-4 15,-10 30,5 58,2 15,-5 19,-13 3,-5 5,-9 0,-4 -3,-5 -2,0 -11,1 -4,0 -6,1 -10,0 -17,-1 -8,-1 -21,-3 -4,0 0,2 19,6 39,9 10,1 9,7 -2,5 -12,8 -26,4 -58,-2 0,-8 2,-13 -1,-4 -6,-4 -5,-1 -9,6 -1,1 -2,1 -3,-1 0,4 1,2 -2,1 -23,-6 -30,-10 -1,0 -3,-1 H 65 q -3,0 1,2 5,1 14,4 19,6 31,10 -2,4 -6,7 -1,1 -1,2 -3,3 -4,6 z m 34,-33 q -1,1 0,2 2,0 3,-1 6,-12 -4,-21 9,1 24,7 4,0 7,4 3,3 7,2 8,-3 9,-3 1,-1 1,-3 -1,-1 -2,-1 -5,-1 -14,-3 2,0 -5,-1 -12,-4 -30,-7 -7,-9 -14,-14 -5,-3 -2,2 l 5,5 q 2,3 4,5 l -12,-3 q -3,-1 -4,-1 v -3 q 2,-3 2,-4 -2,-5 -7,-4 -2,0 -3,3 -2,2 -2,3 -16,-5 -27,2 -3,1 0,2 12,-4 25,3 -1,4 -2,9 -2,1 -3,6 -2,2 1,2 5,0 13,-15 h 3 q 15,4 19,6 7,11 8,21 z M 122,36 q 5,-8 2,-10 -8,-13 -4,-28 1,-9 15,-12 14,-3 31,-2 16,0 42,5 4,2 4,10 -1,1 -2,4 -2,12 -6,24 -4,7 2,2 9,-13 18,-33 3,-7 -4,-10 -55,-10 -80,-4 -24,2 -25,18 -2,14 2,24 3,7 3,12 0,3 2,0 z m -25,68 q -1,-5 -1,-8 9,3 13,8 -1,2 16,4 3,-2 1,-5 -7,-1 -14,-9 -2,-3 -3,-3 -1,0 0,3 -1,4 -2,3 -7,-3 -11,-3 -1,-11 1,-19 2,0 6,1 8,3 9,5 0,1 2,2 l 1,1 q 2,0 6,1 1,0 2,1 4,0 3,-3 -8,-5 -14,-11 -4,-3 -4,0 4,4 -11,-1 0,-3 1,-6 1,-3 2,-5 0,-3 -1,-4 -2,-1 -3,1 -5,3 -6,9 -3,3 0,7 2,4 1,11 v 20 q 0,4 -1,8 -1,2 2,1 7,-6 5,-9 z m 55,-76 q 10,2 20,-2 7,-3 5,-11 -3,-5 -10,2 -8,7 -13,8 -2,0 -3,1 -1,1 1,2 z M 58,167 q -2,-14 4,-23 -1,-6 -4,-5 -5,3 -6,9 -4,11 5,20 1,1 1,-1 z"
       inkscape:connector-curvature="0"
       style="fill:currentColor" />
  </g>
</svg>
