<?xml version="1.0" encoding="UTF-8" standalone="no"?>
<svg
   xmlns:dc="http://purl.org/dc/elements/1.1/"
   xmlns:cc="http://creativecommons.org/ns#"
   xmlns:rdf="http://www.w3.org/1999/02/22-rdf-syntax-ns#"
   xmlns:svg="http://www.w3.org/2000/svg"
   xmlns="http://www.w3.org/2000/svg"
   xmlns:sodipodi="http://sodipodi.sourceforge.net/DTD/sodipodi-0.dtd"
   xmlns:inkscape="http://www.inkscape.org/namespaces/inkscape"
   version="1.1"
   viewBox="0 -52 768 256"
   id="svg6"
   sodipodi:docname="a_tsai.svg"
   width="768"
   height="256"
   inkscape:version="0.92.2 5c3e80d, 2017-08-06">
  <metadata
     id="metadata12">
    <rdf:RDF>
      <cc:Work
         rdf:about="">
        <dc:format>image/svg+xml</dc:format>
        <dc:type
           rdf:resource="http://purl.org/dc/dcmitype/StillImage" />
        <dc:title></dc:title>
      </cc:Work>
    </rdf:RDF>
  </metadata>
  <defs
     id="defs10" />
  <sodipodi:namedview
     pagecolor="#ffffff"
     bordercolor="#666666"
     borderopacity="1"
     objecttolerance="10"
     gridtolerance="10"
     guidetolerance="10"
     inkscape:pageopacity="0"
     inkscape:pageshadow="2"
     inkscape:window-width="1077"
     inkscape:window-height="714"
     id="namedview8"
     showgrid="false"
     inkscape:zoom="1.23828125"
     inkscape:cx="384"
     inkscape:cy="128"
     inkscape:window-x="0"
     inkscape:window-y="0"
     inkscape:window-maximized="0"
     inkscape:current-layer="svg6" />
  <g
     transform="matrix(1,0,0,-1,-16.958990536,166.04416404)"
     id="g4">
    <path
       d="m 88,153 q 0,-3 1,-4 2,-4 0,-7 l -2,-8 q 7,3 14,7 h 1 q 3,2 5,5 0,1 1,1 1,3 3,3 11,-3 12,-3 2,-1 2,-3 0,-2 -3,-2 -4,-1 -7,-6 -2,-3 -5,-7 -4,-5 -5,-7 2,-1 2,-2 l -4,-3 q -1,-2 -3,-5 Q 93,101 87,88 51,23 35,15 31,13 33,16 57,43 85,94 81,94 79,91 63,77 61,86 q -1,0 0,1 7,0 13,7 5,5 13,8 l 1,1 q 0,1 3,5 3,6 5,9 -4,0 -6,-3 -1,0 -2,-1 -2,-2 -5,-3 -4,-2 -2,1 5,6 -2,6 -1,-1 -4,-3 l -4,-4 -1,-1 q -1,-2 -2,-1 -3,0 -2,2 -1,6 4,11 9,9 15,32 1,2 3,0 z m 79,1 q 1,0 2,1 4,1 6,3 0,3 12,2 2,-1 2,-3 0,-2 -2,-2 -11,-4 -17,-11 -9,-12 -19,-22 10,-14 41,-46 3,-7 18,-6 18,0 39,-8 4,-3 0,-2 -23,2 -38,1 -9,-2 -17,8 -15,15 -42,46 -3,3 -4,5 -23,-19 -36,-21 -3,-1 -4,0 0,1 2,5 7,17 19,26 4,3 9,3 4,0 6,-2 0,-1 1,-2 1,-2 3,-3 8,7 17,23 -3,-1 -10,-2 -4,-1 -6,-1 -6,-1 -1,2 14,5 19,6 z m -78,11 q -13,-4 -32,1 -6,0 0,2 10,0 33,3 1,0 3,1 -2,3 -3,6 -2,5 -9,15 -2,2 1,1 13,-8 21,-20 18,3 38,8 12,21 15,29 0,2 2,2 1,0 2,-2 4,-11 -2,-16 -3,-3 -6,-7 -2,-3 -3,-4 1,0 3,1 8,2 20,4 8,1 10,6 2,4 8,2 2,-2 7,-2 4,-1 7,-2 2,-2 2,-4 -1,-2 -4,-2 -13,1 -24,-1 -8,-1 -32,-7 -9,-11 -20,-24 -6,-5 -2,2 4,4 11,16 1,2 3,4 -8,-2 -15,-4 -10,-2 -17,-4 7,-12 1,-12 -8,-3 -11,7 -2,1 -1,2 -2,0 -3,-1 -2,-1 -3,0 z m 64,-93 q 2,4 5,4 4,-1 5,-2 0,-1 2,-1 8,-3 12,-4 3,-1 3,-2 -1,-6 -11,-1 -9,3 -35,-4 0,-1 -1,-3 -2,-1 -2,-6 0,-22 -1,-32 V -1 q -1,-12 1,-17 0,-3 3,-9 0,-2 -1,-3 -4,-1 -6,2 -4,8 -8,20 -2,5 -5,9 -1,2 -2,5 -1,2 1,1 l 10,-10 q 2,-2 3,0 h 1 q 1,14 -3,46 v 8 q -1,5 -4,8 -13,-3 -31,-10 -9,-4 -20,2 -3,0 1,1 6,-2 14,1 17,6 34,10 2,3 13,2 10,3 22,7 z m -21,23 q 13,3 19,0 l 2,-1 q 1,-3 -5,-3 l -1,-1 q -9,-2 -22,-7 -8,-3 -15,-6 -4,-3 -17,2 -2,0 0,1 8,1 26,7 3,2 6,3 4,1 5,4 0,1 2,1 z m 13,28 q -4,5 -10,4 -11,-1 -22,-22 -1,-4 2,-3 12,4 30,21 z m 16,-85 q -2,0 0,1 19,-10 30,-28 0,-2 -1,-2 l -1,-1 q -4,-3 -5,0 h -1 q -5,3 -5,6 -9,14 -17,24 z M 87,35 q 1,1 2,0 Q 88,21 92,8 92,7 93,7 94,5 92,4 91,2 90,3 80,7 81,24 q 3,9 6,11 z m 15,101 q -9,-3 -16,-8 h -1 q -1,-1 -1,-3 -1,-1 -3,-5 1,0 4,1 2,0 3,1 4,1 11,1 3,4 6,11 1,2 0,2 -1,1 -3,0 z"
       id="path2"
       inkscape:connector-curvature="0"
       style="fill:currentColor" />
  </g>
  <g
     id="g102"
     transform="matrix(1,0,0,-1,257.10835962,161.13260683)">
    <path
       id="path100"
       d="m 124,140 q -10,-8 -19,-6 -1,-4 -1,-15 v -16 q 10,2 19,5 -1,4 0,16 1,11 1,16 z m 1,64 q 5,-1 17,-10 1,-2 4,-3 3,-7 -1,-10 -7,-1 -10,-17 -2,-5 -3,-17 -1,-12 -1,-36 -1,-19 -3,-28 -1,-3 -3,-3 -3,0 -3,3 -2,4 -2,9 -1,2 1,3 1,0 1,6 -6,-2 -17,-4 0,-11 -3,-12 -4,1 -5,5 -2,4 -2,7 -2,7 -2,9 -1,5 2,4 3,-1 3,4 -1,10 -1,20 -1,29 -2,43 -1,2 0,3 1,0 3,-1 7,-8 7,-13 -1,-8 -1,-16 1,-7 1,-11 2,-1 6,3 7,5 13,5 0,11 1,24 0,8 1,21 0,5 -4,4 -4,0 -9,-1 -6,-2 -9,-1 -3,-1 -3,0 0,2 3,3 18,9 21,7 z M 110,87 q 0,-8 -7,-18 38,11 69,8 18,-3 29,-24 2,-6 -4,-7 -2,-1 -6,-7 -1,-1 -1,-2 -22,-32 -58,-51 -7,-3 -10,-7 -7,-6 -10,2 -8,12 -16,25 -16,-15 -35,-28 -8,-4 -2,2 l 12,12 q 15,12 23,20 -2,5 -3,10 -1,2 0,3 1,0 3,-2 0,-2 1,-5 1,-2 2,-3 17,18 35,39 1,2 2,3 1,2 1,3 1,1 -1,1 -3,-1 -3,0 -1,0 2,3 5,7 14,4 3,-1 3,-3 1,-1 -1,-2 -6,-4 -49,-53 15,-21 26,-21 61,36 62,77 -14,14 -71,1 2,-9 -2,-11 Q 79,24 63,9 57,2 51,0 h -5 l 3,3 q 35,28 57,54 4,4 4,9 Q 98,66 95,62 64,35 47,28 q -6,-1 -2,2 54,36 63,58 1,3 2,-1 z"
       inkscape:connector-curvature="0"
       style="fill:currentColor" />
  </g>
  <g
     id="g159"
     transform="matrix(1,0,0,-1,522.3819288,164.55775297)">
    <path
       id="path157"
       d="m 133,83 6,-3 q 2,-1 4,-1 2,-1 2,-3 0,-2 -2,-2 -8,-4 -19,-15 6,2 19,4 l 6,2 -2,8 q -3,2 1,1 4,-3 8,-8 19,2 36,1 10,-2 20,-14 4,-5 1,-7 -3,-3 -3,-7 -4,-27 -22,-39 -5,-2 -9,0 -8,6 -17,15 -4,5 1,1 14,-10 21,-11 20,9 21,46 -2,7 -12,12 -17,2 -38,-1 -2,-29 -3,-61 0,-7 3,-10 3,-2 5,-7 0,-1 -3,-3 -3,0 -5,5 -3,7 -8,11 -1,3 3,4 3,0 3,4 v 20 36 q -14,-2 -26,-6 v -3 q 0,-7 3,-12 1,-2 3,-15 -2,-5 -5,-1 -3,5 -2,13 -1,10 -3,17 l -6,-2 q -3,-2 -1,2 5,3 6,3 5,6 10,14 1,1 3,4 3,4 -1,7 -2,2 2,1 z M 104,45 q -2,-2 0,-6 2,-4 1,-8 -2,-2 -1,-3 0,-1 1,-3 4,-9 7,-11 0,-3 -1,-4 -2,-1 -3,1 -11,9 -8,14 1,8 0,15 -1,4 3,6 2,0 1,-1 z m 52,150 q 1,5 17,-3 4,-5 -2,-7 -6,2 -12,1 -5,-1 -21,-6 6,-4 9,-13 39,8 64,-1 8,-3 14,-22 0,-4 -1,-5 -2,-1 -4,1 -1,1 -5,0 -7,-3 -17,-4 -9,-1 -14,0 -3,0 0,2 16,3 29,9 8,5 -2,14 -23,9 -64,1 -1,-2 -2,-8 0,-8 -1,-14 14,5 20,13 5,4 2,4 -2,1 1,2 2,0 5,-3 h 2 q 1,-2 -1,-5 -4,-2 -9,-5 -4,-2 -7,-3 -8,-4 -13,-5 -2,-24 -2,-39 3,0 12,2 5,2 8,3 4,7 8,7 7,-2 16,-8 2,-3 -2,-2 -11,1 -31,-7 l -6,-2 q -3,-2 -5,-2 -3,-1 0,2 h 2 q 2,1 3,2 2,2 0,2 -27,-11 -31,-10 -6,0 -10,2 -3,1 1,2 2,-1 7,0 4,0 12,3 h 3 q 5,2 9,4 -1,6 -3,12 l -1,1 q 0,1 3,3 1,6 1,12 -6,-5 -16,-16 -5,-6 -7,-8 -4,-5 -5,-2 -2,2 -1,12 0,4 2,1 2,-3 4,-1 5,3 18,14 3,2 5,4 v 10 q 1,13 1,20 -10,-3 -22,-9 -4,-2 -11,0 -3,0 -3,1 -1,1 2,2 l 18,6 q 9,3 15,6 0,10 -1,12 -2,2 0,3 -2,0 -4,-1 -9,0 -14,2 -3,0 -3,1 1,1 4,2 10,0 29,6 6,2 7,5 z m -36,-55 q 4,2 12,1 3,-4 -2,-6 -3,-1 -7,-3 -1,-1 -2,-1 -3,-2 -4,-2 l 1,3 q 2,2 -8,4 -2,0 0,1 5,0 10,3 z m -21,6 h -1 q -3,-11 0,-20 1,-6 1,-8 -4,-4 -6,-1 -5,7 -4,17 -1,4 2,4 2,-2 6,8 2,2 2,0 z m 79,-22 q 3,-9 -4,-8 -6,3 -9,3 -3,-2 -2,2 2,4 -12,8 -2,0 -2,1 0,1 2,2 14,-3 27,-8 z M 74,184 q 2,-4 7,-8 1,-1 2,-1 3,-3 3,-4 0,-1 -4,-3 -6,-3 -10,-20 -6,-18 -8,-61 -2,-42 2,-70 v -4 q 0,0 2,-3 6,-8 15,-15 0,-5 -5,-5 -8,10 -24,16 -6,3 -3,9 2,1 8,2 4,-3 4,6 -1,7 -1,20 -2,47 2,102 -31,-50 -50,-66 -8,-6 -2,2 24,29 55,86 5,10 5,15 -2,7 2,2 z"
       inkscape:connector-curvature="0"
       style="fill:currentColor" />
  </g>
</svg>
