<?xml version="1.0" encoding="UTF-8" standalone="no"?>
<!-- Created with Inkscape (http://www.inkscape.org/) -->

<svg
   xmlns:dc="http://purl.org/dc/elements/1.1/"
   xmlns:cc="http://creativecommons.org/ns#"
   xmlns:rdf="http://www.w3.org/1999/02/22-rdf-syntax-ns#"
   xmlns:svg="http://www.w3.org/2000/svg"
   xmlns="http://www.w3.org/2000/svg"
   xmlns:sodipodi="http://sodipodi.sourceforge.net/DTD/sodipodi-0.dtd"
   xmlns:inkscape="http://www.inkscape.org/namespaces/inkscape"
   width="596.44122314"
   height="136.1000061"
   viewBox="0 0 157.80840333 36.009794299"
   version="1.1"
   id="svg8"
   inkscape:version="0.92.2 5c3e80d, 2017-08-06"
   sodipodi:docname="a_tsai_email.svg">
  <defs
     id="defs2" />
  <sodipodi:namedview
     id="base"
     pagecolor="#ffffff"
     bordercolor="#666666"
     borderopacity="1.0"
     inkscape:pageopacity="0.0"
     inkscape:pageshadow="2"
     inkscape:zoom="0.65388608305"
     inkscape:cx="331.23554995"
     inkscape:cy="-278.29817856"
     inkscape:document-units="mm"
     inkscape:current-layer="layer1"
     showgrid="false"
     fit-margin-top="5"
     fit-margin-right="5"
     fit-margin-bottom="5"
     fit-margin-left="5"
     units="px"
     inkscape:window-width="1680"
     inkscape:window-height="929"
     inkscape:window-x="3"
     inkscape:window-y="29"
     inkscape:window-maximized="0" />
  <metadata
     id="metadata5">
    <rdf:RDF>
      <cc:Work
         rdf:about="">
        <dc:format>image/svg+xml</dc:format>
        <dc:type
           rdf:resource="http://purl.org/dc/dcmitype/StillImage" />
        <dc:title />
      </cc:Work>
    </rdf:RDF>
  </metadata>
  <g
     inkscape:label="Layer 1"
     inkscape:groupmode="layer"
     id="layer1"
     transform="translate(-17.360594075,-38.857140196)">
    <g
       aria-label="luther0429@gmail.com"
       transform="scale(0.26458333333)"
       style="font-style:normal;font-variant:normal;font-weight:normal;font-stretch:normal;font-size:40px;line-height:1.25;font-family:Raleway;-inkscape-font-specification:Raleway;letter-spacing:0px;word-spacing:0px;fill:#000000;fill-opacity:1;stroke:none"
       id="flowRoot10">
      <path
         d="m 118.01484375,160.06163224 q 0,1.4 -1.1,4.1 -1.1,2.7 -3.2,6.3 -2,3.5 -5,7.6 -2.9,4 -6.7,8 -3.7,4 -8.2,7.7 -4.5,3.6 -9.6,6.4 -0.9,1.6 -2.5,4.3 -1.6,2.7 -3.2,5.7 -1.5,3 -2.7,5.9 -1.1,2.9 -1.1,4.9 0,3.2 2.9,3.2 2.5,0 5.2,-1.4 2.7,-1.4 5.1,-3.4 2.5,-2 4.6,-4.2 2.2,-2.3 3.7,-4.1 0.7,-0.7 0.8,-0.3 0.1,0.3 -0.3,0.7 -1.8,2.2 -4.3,4.7 -2.4,2.5 -5.2,4.6 -2.7,2.1 -5.7,3.5 -3,1.4 -6,1.4 -2.6,0 -3.8,-1.2 -1.1,-1.3 -1.1,-3.1 0,-1.8 1.5,-5.1 1.6,-3.4 3.7,-7.1 2.1,-3.7 4.2,-7 2.1,-3.3 3.1,-5 1.7,-2.9 3.5,-6 1.9,-3.2 3.7,-6.2 1.8,-3 3.4,-5.7 1.7,-2.8 3.1,-4.9 1.7,-2.6 3.5,-4.9 1.8,-2.3 4.6,-4.6 3.8,-3.2 7,-4.9 3.2,-1.7 4.3,-1.7 0.8,0 1.3,0.5 0.5,0.4 0.5,1.3 z m -4.5,2.6 q 0,-1.6 -1.3,-1.6 -0.5,0 -1.1,0.3 -0.6,0.3 -1.6,1.3 -0.9,0.9 -2.3,2.6 -1.3,1.7 -3.4,4.4 -0.8,1.1 -2.3,3.2 -1.4,2.1 -3.7,5.6 -2.2,3.4 -5.4,8.5 -3.1,5 -7.4,11.9 6,-3.4 11.2,-8.2 5.3,-4.9 9.1,-10 3.8,-5.1 6,-9.9 2.2,-4.8 2.2,-8.1 z"
         style="font-style:normal;font-variant:normal;font-weight:normal;font-stretch:normal;font-family:Zapfino;-inkscape-font-specification:Zapfino"
         id="path11" />
      <path
         d="m 121.52734375,213.26163224 q -1.7,2.4 -4,5.1 -2.3,2.6 -4.8,4.8 -2.5,2.2 -5.1,3.6 -2.6,1.5 -4.9,1.5 -1.7,0 -2.7,-0.9 -0.9,-0.9 -0.9,-2.8 0,-0.9 0.2,-2 0.3,-1.2 0.9,-2.6 -0.6,0.7 -1.4,1.7 -0.7,0.9 -1.7,1.8 -0.9,0.8 -2.1,1.4 -1.1,0.5 -2.5,0.5 -1.1,0 -1.8,-0.6 -0.7,-0.7 -0.7,-2.1 0,-0.8 0.3,-2 0.4,-1.2 1.3,-3.2 1,-2.1 2.6,-5.1 1.7,-3.1 4.3,-7.6 0.5,-1 0.9,-1 0.7,0 1.4,0.9 0.8,0.8 0.8,1.1 0,0.3 -0.6,1.2 -1.6,2.4 -3,4.8 -1.4,2.4 -2.5,4.5 -1,2.1 -1.7,3.8 -0.6,1.6 -0.6,2.5 0,1.5 1.1,1.5 1,0 2.7,-1.5 1.8,-1.6 4.2,-5.3 0.9,-1.6 1.8,-3.3 1,-1.8 1.9,-3.4 0.9,-1.6 1.7,-2.9 0.8,-1.4 1.2,-2.1 0.5,-0.7 0.8,-0.7 0.4,0 0.9,0.9 0.5,0.8 0.5,2 0,0.8 -0.4,1.5 -1.2,1.8 -2.6,3.6 -1.3,1.7 -2.5,3.6 -1.1,1.9 -1.9,4 -0.8,2.1 -0.8,4.6 0,2.2 2.1,2.2 1.4,0 3.3,-1.1 2,-1 4.3,-2.9 2.3,-1.9 4.7,-4.6 2.5,-2.7 4.7,-5.9 0.6,-0.2 0.6,0.5 z"
         style="font-style:normal;font-variant:normal;font-weight:normal;font-stretch:normal;font-family:Zapfino;-inkscape-font-specification:Zapfino"
         id="path13" />
      <path
         d="m 139.93046875,188.76163224 q -0.8,0.2 -1.8,0.8 -1,0.5 -1.5,1.3 -2.3,3.2 -4.5,6.7 -2.1,3.5 -4.1,7 h 12.4 q 0.3,0.2 0.3,0.4 0,0.2 -0.2,0.3 -0.8,0 -2.4,0.1 -1.6,0 -3.5,0.1 -1.9,0.1 -3.9,0.2 -2,0.1 -3.5,0.2 -2.8,5 -4.3,8.5 -1.5,3.5 -1.5,6.1 0,3.6 3.3,3.6 1.6,0 3.6,-0.8 2.1,-0.9 4.4,-2.3 0.3,-0.3 0.6,0.1 0.3,0.3 -0.2,0.5 -3.4,2.2 -6.3,3.2 -2.9,1 -5.9,1 -1.6,0 -2.8,-0.9 -1.2,-1 -1.2,-3.3 0,-2 1.8,-5.9 1.8,-3.9 5.3,-9.6 -1.2,0.1 -3,0.3 -1.7,0.1 -2,0.1 -0.5,0 -0.5,-0.4 0.4,-0.7 1.3,-1.4 l 5.1,-0.1 q 0.9,-1.5 2,-3.3 1.1,-1.9 2.2,-3.7 1.1,-1.9 2.2,-3.6 1.2,-1.8 2.1,-3.3 1.1,-0.5 3,-1.3 2,-0.8 3.5,-1.3 0.2,0 0.3,0.3 0.1,0.2 -0.3,0.4 z"
         style="font-style:normal;font-variant:normal;font-weight:normal;font-stretch:normal;font-family:Zapfino;-inkscape-font-specification:Zapfino"
         id="path15" />
      <path
         d="m 201.59609375,159.36163224 q 0,1.6 -0.2,2.4 -0.1,0.8 -0.3,1.1 -0.1,0.3 -0.3,0.2 -0.1,-0.2 -0.1,-0.4 0,-0.7 -0.4,-1.9 -0.3,-1.2 -1.4,-2.3 -1,-1.2 -2.9,-2 -1.9,-0.9 -4.9,-0.9 -2.6,0 -5.4,0.8 -2.7,0.7 -5.9,2.9 -3.2,2.1 -6.9,5.9 -3.6,3.8 -7.9,9.9 -4.3,6 -9.4,14.7 -5,8.6 -11,20.4 0.7,-0.6 2.2,-1.8 1.5,-1.2 3.3,-2.4 1.8,-1.2 3.5,-2.1 1.7,-0.9 2.9,-0.9 0.9,0 0.9,0.7 0,0.6 -0.9,1.8 -0.8,1.2 -2.1,3.3 -1.3,2.1 -2.6,4.5 -1.2,2.4 -2.1,4.7 -0.9,2.3 -0.9,3.7 0,1.6 0.8,2.4 0.8,0.8 2.2,0.8 2.3,0 6.5,-3 4.2,-3 9.6,-10.2 0.2,-0.2 0.4,-0.2 0.2,0 0.2,0.4 -1.9,2.7 -4.5,5.4 -2.5,2.7 -5.2,4.9 -2.6,2.2 -5.3,3.5 -2.6,1.4 -4.8,1.4 -1.7,0 -2.7,-1 -1,-0.9 -1,-2.6 0,-1.6 1.1,-4.1 1.1,-2.5 2.4,-5 1.4,-2.6 2.5,-4.7 1.1,-2.2 1.1,-3.1 0,-0.5 -0.3,-0.5 -0.9,0 -3.3,1.7 -2.3,1.7 -5.8,6.4 -1.4,2.5 -2.9,5.2 -1.5,2.7 -2.6,4.8 -0.8,1.6 -1.5,1.6 -0.5,0 -1.3,-0.3 -0.8,-0.2 -0.8,-0.9 0,-0.5 0.3,-1.1 4.2,-7.6 8.2,-14.3 4,-6.8 8.1,-13.3 4.8,-7.5 9.9,-15.3 5.2,-7.8 10.6,-14.2 5.4,-6.4 10.9,-10.4 5.6,-4.1 11.2,-4.1 1.4,0 2.9,0.4 1.5,0.3 2.8,1.1 1.4,0.8 2.2,2.3 0.9,1.4 0.9,3.7 z"
         style="font-style:normal;font-variant:normal;font-weight:normal;font-stretch:normal;font-family:Zapfino;-inkscape-font-specification:Zapfino"
         id="path17" />
      <path
         d="m 188.15859375,213.36163224 q -1.7,2.1 -4.1,4.4 -2.3,2.2 -5.1,4.1 -2.7,1.8 -5.7,3 -2.9,1.1 -5.8,1.1 -4.7,0 -4.7,-4.2 0,-2.8 1.4,-6 1.5,-3.3 3.8,-6 2.3,-2.8 5,-4.6 2.8,-1.9 5.3,-1.9 1.4,0 1.9,0.5 0.6,0.5 0.6,1.3 0,1.2 -0.8,2.6 -0.7,1.4 -2.2,2.7 -1.5,1.2 -3.8,2.1 -2.3,0.8 -5.5,0.8 -0.5,0.9 -1.1,2.9 -0.6,1.9 -0.6,3.9 0,4.1 3.7,4.1 2.3,0 4.7,-1.1 2.5,-1.1 4.8,-2.7 2.3,-1.7 4.2,-3.6 2,-2 3.3,-3.7 0.2,-0.2 0.4,-0.1 0.3,0.1 0.3,0.4 z m -10.5,-7.8 q 0,-1.3 -1.3,-1.3 -1,0 -2.1,0.8 -1,0.7 -2,1.9 -1,1.2 -1.9,2.6 -0.9,1.4 -1.5,2.7 0.2,0.1 0.7,0.2 0.5,0 0.8,0 2.9,0 5.1,-2 2.2,-2.1 2.2,-4.9 z"
         style="font-style:normal;font-variant:normal;font-weight:normal;font-stretch:normal;font-family:Zapfino;-inkscape-font-specification:Zapfino"
         id="path19" />
      <path
         d="m 205.62734375,204.86163224 q -0.6,0.7 -1.3,1.7 -0.6,1 -0.8,1.5 -0.1,0.3 -0.4,0.3 -0.1,0 -0.3,-0.3 -0.2,-0.3 -0.6,-0.6 -0.3,-0.4 -0.9,-0.7 -0.6,-0.3 -1.7,-0.3 -1.3,0 -2.9,0.9 -1.6,0.9 -2.8,2 -1.9,1.6 -3.4,3.5 -1.4,1.9 -2.7,4 -1.3,2 -2.5,4.2 -1.2,2.1 -2.6,4.3 -0.1,0.3 -0.6,0.3 -0.2,0 -0.9,-0.6 -0.6,-0.6 -0.6,-0.9 0,-0.6 0.7,-1.8 1.6,-2.8 3.2,-5.6 1.7,-2.9 3.1,-5.4 1.5,-2.5 2.6,-4.3 1.1,-1.9 1.5,-2.8 0.5,-0.9 0.7,-0.9 0.2,0 1,0.5 0.8,0.5 0.8,1.4 0,0.3 -0.4,1 -0.3,0.7 -0.8,1.5 -0.4,0.7 -0.8,1.4 -0.4,0.7 -0.6,1 -0.3,0.5 -0.1,0.5 0.2,0 0.5,-0.3 1,-1 2.4,-2.2 1.5,-1.2 3.1,-2.2 1.6,-1.1 3.1,-1.8 1.6,-0.7 2.8,-0.7 0.9,0 1.5,0.5 0.7,0.4 0.7,0.9 z"
         style="font-style:normal;font-variant:normal;font-weight:normal;font-stretch:normal;font-family:Zapfino;-inkscape-font-specification:Zapfino"
         id="path21" />
      <path
         d="m 246.65859375,189.86163224 q 0,3.3 -1.2,7.3 -1.1,4 -3.1,8.1 -2,4.1 -4.8,7.9 -2.7,3.8 -6,6.8 -3.2,2.9 -6.9,4.7 -3.6,1.8 -7.4,1.8 -1.4,0 -3.1,-0.3 -1.7,-0.3 -3.2,-1.2 -1.4,-0.9 -2.4,-2.6 -1,-1.7 -1,-4.5 0,-2.7 0.9,-5.8 1,-3.1 2.6,-6.3 1.7,-3.3 4,-6.6 2.3,-3.3 5,-6.3 1.3,-1.4 3.6,-3.3 2.3,-1.9 4.8,-2.9 1.5,-0.6 3.3,-1.4 1.9,-0.8 3.7,-1.6 1.9,-0.8 3.5,-1.5 1.6,-0.7 2.5,-1.2 0.7,0.1 1.6,0.6 0.9,0.4 1.7,1.5 0.8,1 1.3,2.7 0.6,1.6 0.6,4.1 z m -4.4,2.4 q 0,-3.1 -1,-5.5 -0.9,-2.5 -3.6,-2.5 -0.7,0 -2.2,0.4 -1.5,0.3 -3.4,1.2 -1.8,0.9 -3.9,2.4 -2.1,1.5 -4.1,3.8 -3.4,3.8 -5.6,7.5 -2.2,3.6 -3.5,6.9 -1.3,3.2 -1.8,5.9 -0.4,2.6 -0.4,4.4 0,3.8 1.8,6 1.8,2.1 4.8,2.1 4.1,0 8.1,-2.6 4.1,-2.7 7.4,-7.2 3.3,-4.5 5.3,-10.4 2.1,-5.9 2.1,-12.4 z"
         style="font-style:normal;font-variant:normal;font-weight:normal;font-stretch:normal;font-family:Zapfino;-inkscape-font-specification:Zapfino"
         id="path23" />
      <path
         d="m 285.96484375,215.56163224 q -0.2,0.2 -0.4,0.1 -0.2,-0.1 -0.2,-0.3 0.6,-0.8 0.6,-1.6 0,-0.7 -0.9,-1 -1,-0.3 -2.6,-0.6 -1.5,-0.3 -3.3,-0.5 -1.7,-0.3 -3.5,-0.4 -1.8,-0.1 -3.3,-0.1 -1,1.9 -2,4 -1,2 -1.8,4 -0.8,1.9 -1.3,3.5 -0.5,1.6 -0.5,2.5 0,0.3 0,0.6 0,0.4 0.2,0.7 0,0.4 -0.6,0.4 -0.4,-0.8 -1,-1.6 -0.5,-0.9 -1.1,-1.7 -0.7,-0.8 -0.7,-1.8 0,-0.8 0.5,-1.8 1.4,-2.6 2.7,-5.1 1.4,-2.6 2.1,-3.7 -1.2,0 -3.5,0.1 -2.2,0.1 -4.9,0.3 -2.7,0.2 -5.7,0.6 -3,0.4 -5.8,1 -0.3,0 -0.3,-0.4 0.3,-1.4 0.3,-2.3 0,-0.7 1,-0.9 0.5,-0.1 1,-0.3 0.6,-0.2 2,-1 7.7,-4.5 12.9,-8.1 5.2,-3.6 8.7,-7.4 1.1,-1.2 1.6,-2.6 0.5,-1.5 0.5,-2.9 0,-1.7 -0.7,-3.3 0,-0.3 0.5,-0.7 0.5,-0.4 1.1,-0.8 0.7,-0.4 1.3,-0.6 0.6,-0.3 0.8,-0.3 0.5,0.2 0.8,1 0.4,0.7 0.4,1.8 0,2.1 -1.4,4.4 -1.3,2.2 -3.7,4.5 -1.5,1.5 -4,3.4 -2.4,1.9 -5.3,4 -2.8,2 -5.9,4.1 -3.1,2.1 -5.9,4 -0.4,0.2 -0.4,0.4 0.1,0.2 0.6,0.2 4.5,-0.2 8.6,-0.2 4.1,-0.1 6.7,-0.1 4.2,-7.1 7.3,-11.6 3.2,-4.6 6.2,-7.2 2.6,-2.3 6.3,-4.5 0.8,-0.2 0.6,0.6 -3,1.8 -4.9,3.6 -1.8,1.8 -3.8,4.9 -1.7,2.5 -3.8,6 -2,3.4 -4.6,8.2 1.6,0 3.7,0.1 2.1,0 4.1,0.1 2,0.1 3.6,0.3 1.7,0.1 2.3,0.2 0.7,0.1 0.7,1.1 0,0.9 -0.6,2.4 -0.6,1.5 -1.3,2.3 z"
         style="font-style:normal;font-variant:normal;font-weight:normal;font-stretch:normal;font-family:Zapfino;-inkscape-font-specification:Zapfino"
         id="path25" />
      <path
         d="m 300.25234375,219.96163224 q -0.6,-0.1 -1.9,-0.1 -1.3,-0.1 -2.4,-0.1 -4.8,0 -7.4,0.5 -2.5,0.5 -2.5,2.2 0,0.7 0.8,1.2 0.8,0.5 2.5,0.5 4.1,0 6.8,-1.5 2.7,-1.5 4.1,-2.7 z m 21.9,5.4 q -1,-0.9 -3,-1.7 -1.9,-0.8 -4.6,-1.5 -2.7,-0.7 -6,-1.2 -3.2,-0.6 -6.9,-0.9 -1.3,1 -2.9,2.1 -1.6,1 -3.4,1.9 -1.7,0.8 -3.4,1.3 -1.7,0.6 -3.2,0.6 -1.7,0 -3,-0.4 -1.3,-0.3 -1.3,-1.7 0,-1.3 1.1,-2.5 1.1,-1.3 2.9,-2.3 1.9,-1 4.3,-1.6 2.5,-0.6 5.3,-0.6 1.8,0 3.4,0 1.6,0 2.7,0.1 3.2,-2.6 6.9,-5.9 3.8,-3.3 6.9,-6.7 3.2,-3.5 5.3,-6.9 2.1,-3.5 2.1,-6.4 0,-3.2 -1.6,-4.9 -1.5,-1.8 -4.6,-1.8 -2.4,0 -4.3,0.7 -1.9,0.6 -3.5,1.7 -1.5,1.1 -2.8,2.5 -1.3,1.3 -2.5,2.8 -0.3,0.4 -0.6,0.2 -0.3,-0.3 -0.1,-0.7 1.5,-1.8 3.4,-3.7 1.9,-2 4,-3.5 2.2,-1.6 4.7,-2.6 2.5,-1 5.3,-1 1.1,0 2.3,0.3 1.2,0.2 2.3,0.9 1.1,0.7 1.8,2 0.7,1.3 0.7,3.5 0,2.9 -2.5,6.8 -2.5,3.9 -6.3,8 -3.7,4.1 -8,8 -4.2,3.9 -7.7,6.7 5,0.4 9.7,0.9 4.7,0.5 7.2,1.3 1.2,0.3 1.2,1.6 -0.2,1 -0.5,2.4 -0.3,1.3 -0.6,2.1 z"
         style="font-style:normal;font-variant:normal;font-weight:normal;font-stretch:normal;font-family:Zapfino;-inkscape-font-specification:Zapfino"
         id="path27" />
      <path
         d="m 323.77109375,222.46163224 q 1.2,1.6 3.1,2.2 2,0.6 3.8,0.6 5.1,0 9.6,-2.6 4.6,-2.7 8.4,-6.8 3.9,-4.1 6.8,-8.9 2.9,-4.9 4.7,-9.2 -2.3,2.5 -5.6,4.6 -3.3,2.1 -7.2,2.1 -2.5,0 -4.4,-1.3 -1.9,-1.3 -1.9,-4.1 0,-2.6 1.8,-5.7 1.9,-3.1 4.8,-5.8 3,-2.8 6.6,-4.6 3.6,-1.9 7.1,-1.9 2,0 3.2,0.6 1.2,0.5 1.9,1.4 0.7,0.9 0.9,2 0.3,1 0.3,2 0,2.6 -1.3,6.5 -1.3,3.9 -4,8.4 -2.6,4.5 -6.6,9.2 -4,4.6 -9.3,8.7 -4.2,3.2 -8.7,5.1 -4.4,1.9 -8,1.9 -2,0 -3.8,-1 -1.7,-0.9 -2.5,-3 z m 39.7,-36.2 q 0,-1.6 -0.8,-2.7 -0.8,-1.2 -2.5,-1.2 -2.9,0 -5.9,1.9 -3,1.8 -5.4,4.5 -2.4,2.7 -4,5.7 -1.5,2.9 -1.5,5.1 0,1.8 1.2,2.8 1.2,0.9 3.2,0.9 2.9,0 5.7,-1.6 2.8,-1.6 5,-4 2.2,-2.5 3.6,-5.5 1.4,-3.1 1.4,-5.9 z"
         style="font-style:normal;font-variant:normal;font-weight:normal;font-stretch:normal;font-family:Zapfino;-inkscape-font-specification:Zapfino"
         id="path29" />
      <path
         d="m 426.04609375,191.76163224 q 0,3.6 -1.8,7.7 -1.7,4 -4.7,7.5 -3,3.4 -7,5.7 -4,2.2 -8.5,2.2 -2.9,0 -4.2,-1.1 -1.2,-1.2 -1.2,-3.3 0,-1.8 0.9,-4.3 0.9,-2.6 2.2,-5.3 -5.5,6.6 -9,9.9 -3.5,3.3 -5.9,3.3 -1.7,0 -1.7,-2.2 0,-1.5 0.9,-3.7 1,-2.3 2.5,-4.7 1.6,-2.5 3.6,-4.8 2,-2.4 4.2,-4 2.3,-1.7 4.6,-2.5 2.4,-0.9 5.1,-0.9 2,0 3.7,0.5 0.8,0.3 -0.1,0.9 -0.9,0.6 -1.9,2.4 -2.3,4.4 -4,8.3 -1.7,3.8 -1.7,6.3 0,2.1 1.2,3 1.2,0.9 3.3,0.9 2.9,0 5.8,-1.7 2.9,-1.8 5.2,-4.7 2.4,-3 3.9,-6.9 1.5,-4 1.5,-8.3 0,-5.6 -3.8,-8.7 -3.8,-3.2 -10.1,-3.2 -6.5,0 -13,2.9 -6.4,2.9 -11.6,7.7 -5.1,4.8 -8.3,11 -3.2,6.2 -3.2,12.7 0,6.8 4.1,10.8 4.1,4 11,4 4.6,0 8.6,-1.5 4.1,-1.4 7.2,-3.5 3.2,-2.1 5.2,-4.4 2,-2.3 2.4,-3.9 0.2,-0.4 0.4,-0.3 0.2,0 0.2,0.5 -0.4,2.2 -2.9,4.8 -2.5,2.6 -6.1,4.8 -3.6,2.2 -8,3.7 -4.3,1.5 -8.5,1.5 -3.4,0 -6.6,-1 -3.2,-0.9 -5.7,-2.9 -2.4,-1.9 -3.9,-4.7 -1.4,-2.9 -1.4,-6.7 0,-3.9 1.6,-8.1 1.7,-4.3 4.6,-8.3 3,-4.1 6.9,-7.7 4,-3.6 8.5,-6.3 4.6,-2.8 9.5,-4.4 5,-1.6 9.9,-1.6 3.3,0 6.2,0.8 3,0.7 5.1,2.2 2.2,1.5 3.5,3.9 1.3,2.4 1.3,5.7 z m -19.8,0.5 q -0.3,-0.1 -0.8,-0.1 -0.4,0 -0.7,0 -2.5,0 -5.1,2.2 -2,1.7 -4,4.1 -1.9,2.4 -3.5,4.8 -1.5,2.4 -2.5,4.5 -0.9,2.1 -0.9,3.2 0,0.9 0.7,0.9 0.8,0 2.2,-1.2 1.5,-1.2 3.2,-3 1.7,-1.9 3.6,-4.2 1.9,-2.3 3.5,-4.5 1.6,-2.2 2.7,-4 1.2,-1.8 1.6,-2.7 z"
         style="font-style:normal;font-variant:normal;font-weight:normal;font-stretch:normal;font-family:Zapfino;-inkscape-font-specification:Zapfino"
         id="path31" />
      <path
         d="m 447.44921875,198.56163224 q 0,0.9 -0.5,1.8 -5,9.3 -9,16.5 -4,7.1 -7.6,13.1 -3.6,6.1 -7.1,11.7 -3.5,5.7 -7.4,12.1 -3.2,5.1 -6.9,9.5 -3.8,4.5 -8.3,7.7 -4.6,3.3 -9.9,5.1 -5.4,1.9 -11.8,1.9 -4.7,0 -7.7,-1.3 -3.1,-1.2 -4.8,-3.3 -1.8,-2.1 -2.5,-4.8 -0.7,-2.7 -0.7,-5.6 0,-1.2 0.2,-2.6 0.2,-1.3 0.5,-2.1 0.1,-0.4 0.4,-0.4 0.3,0 0.3,0.5 -0.2,0.7 -0.4,1.6 -0.2,1 -0.2,2.1 0,3.5 1.5,6 1.5,2.6 4.2,4.2 2.6,1.7 6.2,2.5 3.6,0.9 7.7,0.9 4.3,0 8.7,-1.4 4.3,-1.4 8.6,-4.7 4.3,-3.2 8.5,-8.4 4.1,-5.2 8.1,-12.8 2.6,-4.8 5.5,-10.2 2.9,-5.4 5.6,-10.4 2.7,-4.9 4.8,-8.8 2.2,-4 3.2,-5.8 -2,2.7 -3.9,5.1 -1.9,2.4 -3.6,4.2 -1.6,1.8 -3.1,2.8 -1.5,1.1 -2.7,1.1 -0.9,0 -1.5,-0.6 -0.6,-0.6 -0.6,-1.9 0,-1.5 1.2,-4.2 1.3,-2.8 3.3,-5.8 2.1,-3 4.7,-5.7 2.6,-2.7 5.3,-4 2.4,-1.2 4.8,-1.2 0.7,0 1.1,0.1 0.8,-1.4 1.6,-2.8 0.9,-1.4 1.8,-3 0.7,-1.3 1.3,-1.3 0.4,0 0.7,0.9 0.4,0.9 0.4,1.7 z m -6.4,5.9 q -0.3,-0.1 -0.8,-0.1 -0.4,0 -0.7,0 -1.4,0 -2.7,0.3 -1.2,0.2 -2.1,1 -2.5,2.1 -4.3,4.7 -1.8,2.6 -3,5.1 -1.2,2.5 -1.8,4.6 -0.5,2 -0.5,2.9 0,1.1 0.6,1.1 0.6,0 2.4,-1.7 1.8,-1.7 4,-4.5 2.3,-2.8 4.7,-6.3 2.4,-3.5 4.2,-7.1 z"
         style="font-style:normal;font-variant:normal;font-weight:normal;font-stretch:normal;font-family:Zapfino;-inkscape-font-specification:Zapfino"
         id="path33" />
      <path
         d="m 485.13359375,216.66163224 q -1.4,1.6 -3.4,3.6 -1.9,2 -4.1,3.8 -2.2,1.8 -4.6,3 -2.3,1.2 -4.5,1.2 -2,0 -2.8,-0.8 -0.8,-0.8 -0.8,-2.5 0,-1.1 1.1,-3.6 1.2,-2.5 2.6,-5.2 1.4,-2.7 2.5,-5.1 1.2,-2.5 1.2,-3.5 0,-0.6 -0.5,-0.6 -1.3,0.7 -3,2.1 -1.6,1.3 -3.2,2.9 -1.6,1.6 -3,3.1 -1.3,1.5 -2,2.5 -0.7,1 -1.4,2.4 -0.7,1.4 -1.4,2.7 -0.6,1.3 -1.3,2.2 -0.6,0.9 -1.1,0.9 -0.5,0 -0.9,-0.5 -0.4,-0.5 -0.4,-1 0,-0.3 0.3,-1 0.3,-0.8 1.1,-1.9 1.3,-1.8 2.3,-3.8 1.1,-2 1.8,-3.7 0.8,-1.7 1.2,-2.9 0.4,-1.2 0.4,-1.4 0,-0.8 -0.4,-0.8 -0.6,0 -2.1,1.3 -1.4,1.2 -3.1,3 -1.7,1.8 -3.4,3.8 -1.6,2 -2.7,3.6 -1.4,2.1 -2.4,3.7 -1,1.6 -1.5,1.6 -0.8,0 -1,-0.7 -0.1,-0.7 -0.1,-1.4 0,-0.8 0.4,-1.3 2.7,-4.3 5.3,-8.8 2.6,-4.5 5.2,-8.9 0.5,-0.9 1.1,-0.9 0.5,0 0.9,0.6 0.4,0.5 0.4,1 -0.7,2 -2.4,4.9 -1.7,2.9 -3,5.3 4,-4.6 6.7,-6.9 2.7,-2.4 4.4,-2.4 1.1,0 1.1,1.5 0,1 -0.9,3.1 -0.9,2 -1.6,3.3 -0.2,0.4 -0.1,0.4 0.2,-0.1 0.4,-0.3 1.2,-1.4 2.7,-2.9 1.6,-1.6 3.3,-3 1.8,-1.4 3.5,-2.6 1.8,-1.2 3.3,-1.9 1.5,0 1.5,1.4 0,0.3 -0.1,0.6 -0.1,0.3 -0.3,0.7 -0.5,1.1 -1.9,3.6 -1.3,2.5 -2.7,5.4 -1.4,2.8 -2.5,5.5 -1,2.6 -1,4 0,2 1.9,2 1.8,0 3.8,-1.2 2,-1.2 4,-2.9 2,-1.7 3.7,-3.5 1.7,-1.9 2.9,-3.3 0.4,-0.6 0.8,-0.5 0.4,0.1 -0.2,1 z"
         style="font-style:normal;font-variant:normal;font-weight:normal;font-stretch:normal;font-family:Zapfino;-inkscape-font-specification:Zapfino"
         id="path35" />
      <path
         d="m 516.96796875,211.56163224 q -2.3,2.8 -5.1,5.7 -2.7,2.8 -5.5,5.1 -2.8,2.3 -5.6,3.7 -2.7,1.4 -5,1.4 -2,0 -2.8,-1 -0.8,-1 -0.8,-2.5 0,-1.4 0.8,-3.7 0.9,-2.4 2.6,-5.1 -1.3,1.7 -3,3.6 -1.7,1.9 -3.5,3.5 -1.8,1.5 -3.6,2.6 -1.8,1 -3.2,1 -2.1,0 -2.1,-2.1 0,-2.3 1.8,-5.8 1.8,-3.5 4.8,-6.7 3.1,-3.3 7,-5.6 3.9,-2.4 8.1,-2.4 0.5,-1 0.9,-1.4 0.4,-0.4 0.8,-0.6 l 2.8,-0.8 0.2,0.1 q -0.5,0.5 -1,1.3 -0.4,0.7 -0.9,1.5 0.5,0 1.5,0.1 1,0.1 1.5,0.2 0.5,0.2 0.5,0.5 0,0.3 -0.3,0.3 -0.6,-0.2 -1.8,-0.3 -1.2,-0.1 -1.8,-0.1 -4.6,8.1 -6.8,12.9 -2.1,4.7 -2.1,7 0,0.9 0.4,1.5 0.5,0.6 1.9,0.6 1.6,0 3.8,-1.1 2.2,-1.2 4.7,-3.2 2.5,-2.1 5.1,-4.8 2.7,-2.7 5.1,-5.7 0.2,-0.3 0.4,-0.1 0.2,0.1 0.2,0.4 z m -15.6,-7.6 q -3.4,0 -6.5,2.4 -3.1,2.4 -5.5,5.7 -2.4,3.2 -3.9,6.4 -1.4,3.2 -1.4,4.7 0,0.8 0.6,0.8 0.6,0 1.8,-0.8 1.3,-0.8 2.9,-2.1 1.6,-1.4 3.2,-3.2 1.7,-1.8 3.1,-3.9 1.6,-2.4 3.1,-5.1 1.5,-2.7 2.7,-4.8 z"
         style="font-style:normal;font-variant:normal;font-weight:normal;font-stretch:normal;font-family:Zapfino;-inkscape-font-specification:Zapfino"
         id="path37" />
      <path
         d="m 529.78359375,189.86163224 q 0,1.2 -1.1,2.4 -1,1.2 -2.3,1.2 -1.2,0 -1.2,-1.2 0,-1.3 0.9,-2.5 1,-1.2 2.4,-1.2 1.3,0 1.3,1.3 z m 4.5,22.3 q -2.4,3.1 -5.5,5.9 -3.1,2.8 -5.7,4.5 -2,1.3 -4.1,2 -2.1,0.7 -3.8,0.7 -0.6,0 -1.4,-0.1 -0.8,-0.1 -1.5,-0.5 -0.6,-0.4 -1.1,-1 -0.4,-0.7 -0.4,-1.8 0,-1.3 1,-3.5 1,-2.3 2.3,-4.7 1.4,-2.4 2.7,-4.6 1.4,-2.2 2.2,-3.3 0.5,-0.8 1.7,-1.3 1.3,-0.6 1.7,-0.6 0.5,0 0.5,0.3 0,0.2 -0.2,0.6 -0.1,0.4 -0.3,0.6 -1.3,2 -2.7,4.4 -1.3,2.4 -2.4,4.7 -1.1,2.2 -1.8,4.1 -0.6,1.9 -0.6,3 0,1.2 0.6,1.8 0.7,0.5 1.8,0.5 2,0 4.4,-1.3 2.4,-1.4 4.7,-3.3 2.4,-1.9 4.4,-4 2,-2.1 3.1,-3.6 0.5,-0.5 0.5,-0.2 0.1,0.2 -0.1,0.7 z"
         style="font-style:normal;font-variant:normal;font-weight:normal;font-stretch:normal;font-family:Zapfino;-inkscape-font-specification:Zapfino"
         id="path39" />
      <path
         d="m 576.60859375,160.06163224 q 0,1.4 -1.1,4.1 -1.1,2.7 -3.2,6.3 -2,3.5 -5,7.6 -2.9,4 -6.7,8 -3.7,4 -8.2,7.7 -4.5,3.6 -9.6,6.4 -0.9,1.6 -2.5,4.3 -1.6,2.7 -3.2,5.7 -1.5,3 -2.7,5.9 -1.1,2.9 -1.1,4.9 0,3.2 2.9,3.2 2.5,0 5.2,-1.4 2.7,-1.4 5.1,-3.4 2.5,-2 4.6,-4.2 2.2,-2.3 3.7,-4.1 0.7,-0.7 0.8,-0.3 0.1,0.3 -0.3,0.7 -1.8,2.2 -4.3,4.7 -2.4,2.5 -5.2,4.6 -2.7,2.1 -5.7,3.5 -3,1.4 -6,1.4 -2.6,0 -3.8,-1.2 -1.1,-1.3 -1.1,-3.1 0,-1.8 1.5,-5.1 1.6,-3.4 3.7,-7.1 2.1,-3.7 4.2,-7 2.1,-3.3 3.1,-5 1.7,-2.9 3.5,-6 1.9,-3.2 3.7,-6.2 1.8,-3 3.4,-5.7 1.7,-2.8 3.1,-4.9 1.7,-2.6 3.5,-4.9 1.8,-2.3 4.6,-4.6 3.8,-3.2 7,-4.9 3.2,-1.7 4.3,-1.7 0.8,0 1.3,0.5 0.5,0.4 0.5,1.3 z m -4.5,2.6 q 0,-1.6 -1.3,-1.6 -0.5,0 -1.1,0.3 -0.6,0.3 -1.6,1.3 -0.9,0.9 -2.3,2.6 -1.3,1.7 -3.4,4.4 -0.8,1.1 -2.3,3.2 -1.4,2.1 -3.7,5.6 -2.2,3.4 -5.4,8.5 -3.1,5 -7.4,11.9 6,-3.4 11.2,-8.2 5.3,-4.9 9.1,-10 3.8,-5.1 6,-9.9 2.2,-4.8 2.2,-8.1 z"
         style="font-style:normal;font-variant:normal;font-weight:normal;font-stretch:normal;font-family:Zapfino;-inkscape-font-specification:Zapfino"
         id="path41" />
      <path
         d="m 560.12109375,220.86163224 q 0,0.5 -0.4,1.4 -0.4,0.8 -1.1,1.6 -0.6,0.8 -1.4,1.4 -0.8,0.5 -1.6,0.5 -0.7,0 -1.3,-0.4 -0.5,-0.4 -0.5,-1.2 0,-2 1.3,-3.5 1.4,-1.5 3.1,-1.5 0.5,0 1.2,0.4 0.7,0.3 0.7,1.3 z"
         style="font-style:normal;font-variant:normal;font-weight:normal;font-stretch:normal;font-family:Zapfino;-inkscape-font-specification:Zapfino"
         id="path43" />
      <path
         d="m 598.58984375,211.86163224 q -1.5,1.9 -3.4,3.9 -1.9,1.9 -3.9,3.7 -2,1.7 -4.1,3.1 -2.1,1.4 -4,2.2 -1.5,0.6 -2.8,0.8 -1.2,0.3 -2.3,0.3 -5.5,0 -5.5,-4.6 0,-1.8 0.8,-3.8 1.9,-4.7 5.3,-8.3 3.5,-3.7 7.5,-5.4 1.2,-0.5 2,-0.5 3.7,0 3.7,2.9 0,1.5 -0.7,2.3 -0.6,0.6 -2,1.7 l -0.3,-0.1 q 0.3,-0.8 0.3,-1.7 0,-1 -0.8,-1.9 -0.7,-0.9 -2.3,-0.9 -1.9,0 -3.7,1.3 -1.7,1.2 -3.1,3.3 -1.3,2 -2.1,4.7 -0.8,2.6 -0.8,5.4 0,2.1 1.1,3.2 1.2,1 2.9,1 2.8,0 7.5,-3.2 4.8,-3.3 10.2,-9.9 0.5,-0.5 0.7,-0.2 0.3,0.2 -0.2,0.7 z"
         style="font-style:normal;font-variant:normal;font-weight:normal;font-stretch:normal;font-family:Zapfino;-inkscape-font-specification:Zapfino"
         id="path45" />
      <path
         d="m 627.09609375,208.26163224 q -1.7,2.3 -4.2,4.2 -2.4,1.8 -5.5,1.8 -1.7,0 -3.4,-0.8 -1.6,-0.9 -2.6,-2.6 -0.7,1.6 -1.8,3.7 -1.1,2 -2.6,4.1 -1.5,2 -3.4,3.7 -1.8,1.7 -3.9,2.8 -1.8,0.8 -3,0.8 -3.6,0 -3.6,-3.2 0,-1.8 0.6,-3.7 0.7,-1.9 1.7,-3.7 1,-1.8 2.1,-3.4 1.2,-1.6 2.2,-2.6 2.1,-2.3 4.8,-3.9 2.7,-1.6 5.8,-1.9 0.2,-0.8 0.6,-1.8 0.4,-1.1 1.4,-1.3 0.5,-0.1 1,-0.2 0.5,-0.1 0.9,-0.3 0.3,-0.2 0.6,0 0.3,0.1 0.1,0.5 -0.7,1.1 -1.1,2.8 -0.3,1.7 -0.3,3.7 0,2.8 1,4.6 1.1,1.8 3.7,1.8 2.6,0 4.7,-1.7 2.1,-1.7 3.5,-3.7 0.2,-0.5 0.6,-0.3 0.5,0.2 0.1,0.6 z m -16.5,0.7 q -0.2,-0.9 -0.3,-2.1 -0.1,-1.2 -0.1,-2.3 0,-0.5 -0.4,-0.5 -1.1,0 -2.3,0.8 -1.2,0.7 -2.4,2 -1.2,1.2 -2.4,2.8 -1.2,1.6 -2.2,3.3 -1.3,2.2 -2.4,4.8 -1,2.5 -0.9,4.8 0,0.7 0.2,1.3 0.3,0.6 1.2,0.6 1.7,0 3.7,-1.9 2,-1.9 3.8,-4.4 1.8,-2.6 3,-5.2 1.3,-2.6 1.5,-4 z"
         style="font-style:normal;font-variant:normal;font-weight:normal;font-stretch:normal;font-family:Zapfino;-inkscape-font-specification:Zapfino"
         id="path47" />
      <path
         d="m 656.69609375,216.66163224 q -1.4,1.6 -3.4,3.6 -1.9,2 -4.1,3.8 -2.2,1.8 -4.6,3 -2.3,1.2 -4.5,1.2 -2,0 -2.8,-0.8 -0.8,-0.8 -0.8,-2.5 0,-1.1 1.1,-3.6 1.2,-2.5 2.6,-5.2 1.4,-2.7 2.5,-5.1 1.2,-2.5 1.2,-3.5 0,-0.6 -0.5,-0.6 -1.3,0.7 -3,2.1 -1.6,1.3 -3.2,2.9 -1.6,1.6 -3,3.1 -1.3,1.5 -2,2.5 -0.7,1 -1.4,2.4 -0.7,1.4 -1.4,2.7 -0.6,1.3 -1.3,2.2 -0.6,0.9 -1.1,0.9 -0.5,0 -0.9,-0.5 -0.4,-0.5 -0.4,-1 0,-0.3 0.3,-1 0.3,-0.8 1.1,-1.9 1.3,-1.8 2.3,-3.8 1.1,-2 1.8,-3.7 0.8,-1.7 1.2,-2.9 0.4,-1.2 0.4,-1.4 0,-0.8 -0.4,-0.8 -0.6,0 -2.1,1.3 -1.4,1.2 -3.1,3 -1.7,1.8 -3.4,3.8 -1.6,2 -2.7,3.6 -1.4,2.1 -2.4,3.7 -1,1.6 -1.5,1.6 -0.8,0 -1,-0.7 -0.1,-0.7 -0.1,-1.4 0,-0.8 0.4,-1.3 2.7,-4.3 5.3,-8.8 2.6,-4.5 5.2,-8.9 0.5,-0.9 1.1,-0.9 0.5,0 0.9,0.6 0.4,0.5 0.4,1 -0.7,2 -2.4,4.9 -1.7,2.9 -3,5.3 4,-4.6 6.7,-6.9 2.7,-2.4 4.4,-2.4 1.1,0 1.1,1.5 0,1 -0.9,3.1 -0.9,2 -1.6,3.3 -0.2,0.4 -0.1,0.4 0.2,-0.1 0.4,-0.3 1.2,-1.4 2.7,-2.9 1.6,-1.6 3.3,-3 1.8,-1.4 3.5,-2.6 1.8,-1.2 3.3,-1.9 1.5,0 1.5,1.4 0,0.3 -0.1,0.6 -0.1,0.3 -0.3,0.7 -0.5,1.1 -1.9,3.6 -1.3,2.5 -2.7,5.4 -1.4,2.8 -2.5,5.5 -1,2.6 -1,4 0,2 1.9,2 1.8,0 3.8,-1.2 2,-1.2 4,-2.9 2,-1.7 3.7,-3.5 1.7,-1.9 2.9,-3.3 0.4,-0.6 0.8,-0.5 0.4,0.1 -0.2,1 z"
         style="font-style:normal;font-variant:normal;font-weight:normal;font-stretch:normal;font-family:Zapfino;-inkscape-font-specification:Zapfino"
         id="path49" />
    </g>
  </g>
</svg>
