<?xml version="1.0" encoding="UTF-8" standalone="no"?>
<svg
   xmlns:dc="http://purl.org/dc/elements/1.1/"
   xmlns:cc="http://creativecommons.org/ns#"
   xmlns:rdf="http://www.w3.org/1999/02/22-rdf-syntax-ns#"
   xmlns:svg="http://www.w3.org/2000/svg"
   xmlns="http://www.w3.org/2000/svg"
   xmlns:sodipodi="http://sodipodi.sourceforge.net/DTD/sodipodi-0.dtd"
   xmlns:inkscape="http://www.inkscape.org/namespaces/inkscape"
   version="1.1"
   viewBox="0 -52 768 256"
   id="svg6"
   sodipodi:docname="a_y.svg"
   width="768"
   height="256"
   inkscape:version="0.92.2 5c3e80d, 2017-08-06">
  <metadata
     id="metadata12">
    <rdf:RDF>
      <cc:Work
         rdf:about="">
        <dc:format>image/svg+xml</dc:format>
        <dc:type
           rdf:resource="http://purl.org/dc/dcmitype/StillImage" />
        <dc:title />
      </cc:Work>
    </rdf:RDF>
  </metadata>
  <defs
     id="defs10" />
  <sodipodi:namedview
     pagecolor="#ffffff"
     bordercolor="#666666"
     borderopacity="1"
     objecttolerance="10"
     gridtolerance="10"
     guidetolerance="10"
     inkscape:pageopacity="0"
     inkscape:pageshadow="2"
     inkscape:window-width="1097"
     inkscape:window-height="893"
     id="namedview8"
     showgrid="false"
     inkscape:zoom="1.23828125"
     inkscape:cx="384"
     inkscape:cy="128"
     inkscape:window-x="110"
     inkscape:window-y="7"
     inkscape:window-maximized="0"
     inkscape:current-layer="svg6" />
  <g
     id="g85"
     transform="matrix(1,0,0,-1,499.18717139,158.62502629)">
    <path
       id="path83"
       d="m 59,197 q 4,-2 10,-4 0,-1 1,-1 3,-3 2,-5 -3,-5 -6,-21 15,5 15,8 1,1 5,1 l 4,-2 q 6,-1 8,-2 2,-4 -2,-5 -6,1 -14,-2 -5,-3 -12,-6 -4,-2 -5,-2 -5,-12 -13,-30 10,6 38,14 7,1 10,-1 12,-9 14,-17 -1,-4 -5,-2 -4,3 -6,-3 -4,-13 -16,-29 -9,-11 -14,-8 -5,-1 -10,8 -3,-1 -6,1 1,-6 -1,-6 -5,-2 -9,1 -8,5 -7,12 1,5 0,7 -4,7 -7,9 -5,-1 -4,3 v 2 q 1,3 2,5 2,3 7,0 0,-2 3,0 7,2 8,9 6,18 7,24 -13,-4 -25,1 -3,1 1,2 15,0 26,5 0,5 3,21 0,9 -3,12 -2,3 1,1 z m 31,-63 q -22,-5 -38,-10 -2,-3 -6,-4 -6,-7 -2,-10 4,-6 8,-17 1,-4 8,-2 10,5 16,7 5,1 4,-1 0,-2 -6,-5 h -1 q -3,0 -7,-3 4,-6 13,0 15,14 17,40 0,7 -6,5 z m 110,-18 q 7,-5 13,-10 3,-4 0,-5 l -2,-2 q -4,-2 -3,-6 0,-31 -1,-55 V 21 q -1,-21 2,-42 -1,-4 -6,-2 -8,7 -14,9 -17,8 -21,14 -3,1 1,0 10,-2 26,-5 6,-1 7,4 4,55 -3,106 -3,9 -9,6 -3,-2 -7,-3 -4,-1 -6,-2 -6,-5 -16,0 -3,1 0,2 11,0 26,9 7,4 13,-1 z m -56,-12 q 3,0 12,-7 2,-3 2,-4 0,-1 -2,-2 -5,-3 -4,-8 -3,-29 -2,-48 0,-19 3,-44 0,-2 -1,-3 -2,-1 -3,0 -6,10 -12,10 -3,0 -9,2 -2,1 -2,2 1,1 3,1 15,-2 16,6 v 33 51 q 0,5 -6,4 -8,0 -19,-6 -12,-5 -17,-1 -3,0 0,1 4,1 13,4 6,3 11,5 3,1 17,4 z M 88,69 q -1,2 0,2 h 4 q 3,0 6,-1 10,-2 12,-7 -1,-3 -4,-1 -9,3 -14,2 -16,-4 -23,-7 0,-11 -1,-37 -1,-26 8,-33 0,-4 -2,-5 -7,4 -17,18 -2,1 0,3 4,3 8,3 V 56 L 29,44 q -10,-5 -17,0 -1,1 1,2 5,-1 21,5 8,3 23,6 5,2 8,3 -1,13 -9,15 -2,0 -1,3 1,2 7,0 2,-2 1,-1 7,-5 6,-7 v -8 q 17,4 19,7 z m 77,116 q -6,-8 -10,-13 12,-1 20,-11 12,-20 31,-36 9,-8 22,-6 9,0 23,-5 4,-2 0,-2 -13,0 -24,-1 -10,-1 -21,9 -17,15 -36,38 -8,10 -16,10 -27,-51 -49,-66 -6,-3 -1,2 28,27 48,72 2,4 0,4 -2,0 1,3 5,5 8,5 6,-1 4,-3 z M 135,52 q 2,2 3,2 1,-1 0,-4 -15,-27 -34,-39 -9,-3 -7,5 -1,2 2,0 -1,-2 6,2 13,11 30,34 z m 52,32 q 6,-2 3,-7 -5,-2 -10,-6 -3,-2 -2,1 1,2 0,3 0,1 -2,1 -2,-1 -4,-1 -4,-1 -7,-2 -2,-1 -3,0 0,2 2,3 13,6 23,8 z m -52,-7 q 2,-1 3,-3 0,-3 -2,-3 -8,-2 -12,-7 -3,-3 -4,-2 l 1,4 q 1,3 -5,-2 -5,-3 -2,2 7,13 21,11 z m 37,-36 q 7,5 16,7 2,0 2,-1 1,-1 -1,-3 -5,-5 -17,-9 -11,-4 -13,-2 -1,2 1,1 4,-1 12,7 z M 51,104 q -5,-1 -1,1 1,0 3,2 13,7 14,9 l 2,2 q 1,-1 4,0 2,1 3,1 4,1 5,-1 2,-2 -5,-5 -18,-7 -25,-9 z"
       inkscape:connector-curvature="0"
       style="fill:currentColor" />
  </g>
  <g
     id="g140"
     transform="matrix(1,0,0,-1,-5.6300385548,161.4659306)">
    <path
       id="path138"
       d="m 83,194 3,-6 q 3,-3 5,-4 1,-3 0,-7 -3,-7 -5,-17 -1,-12 -1,-35 5,2 6,0 0,-5 -6,-7 -2,-9 -1,-23 10,-9 21,-12 3,-1 1,-4 -3,-5 -10,1 -4,2 -11,8 -2,3 -2,4 0,-8 -1,-27 V 17 q -1,-17 5,-27 1,-4 -2,-6 -4,-2 -6,1 -14,20 -18,39 -1,3 2,0 4,-8 10,-16 l 1,-1 q 5,-3 5,3 0,28 -1,44 V 90 Q 59,59 28,45 q -8,-4 -1,2 36,21 51,57 -1,1 0,6 1,4 1,6 -4,-2 -9,-4 -17,-7 -24,-10 -16,-8 -32,-4 -4,1 1,2 12,-2 64,22 -1,20 1,42 0,3 1,5 1,14 -1,23 -2,2 -1,3 1,0 4,-1 z m 65,-9 q 2,0 9,2 5,2 7,3 8,4 13,-1 2,-3 6,-6 3,-3 5,-4 4,-5 -2,-7 -5,0 -6,-4 -4,-45 -10,-69 -1,-3 -3,-4 -1,0 -1,3 0,10 -1,15 -10,-4 -14,-2 -3,1 0,3 4,0 7,2 4,4 8,2 1,-2 2,-2 1,0 2,3 2,19 4,63 -1,5 -5,4 -16,-5 -21,-3 -5,1 0,2 z m 5,-42 q 1,0 5,2 1,0 2,1 3,2 7,1 l 2,-2 q 0,-1 -1,-1 -13,-7 -15,-3 -3,1 0,2 z m 31,-77 q 1,0 4,-1 h 2 q 2,-3 2,-4 0,-1 -3,-1 -4,0 -6,-3 -28,-30 -40,-38 -6,-4 -1,1 17,15 36,37 3,3 2,6 -1,3 4,3 z m -58,11 q -7,-4 -17,0 -4,1 1,2 h 2 q 8,2 17,5 60,17 87,20 5,-1 9,4 2,1 7,0 13,-7 18,-10 1,-1 1,-2 -1,-1 -2,-1 -6,-1 -10,4 -6,4 -16,3 -23,-2 -77,-18 -2,-5 -5,-8 6,-6 22,-3 34,3 44,-6 11,-9 15,-23 2,-9 -5,-10 -3,0 -9,-6 -21,-28 -63,-43 -4,-1 -6,-1 -2,1 0,3 2,1 -2,3 -7,9 -8,32 -1,7 2,0 2,-19 14,-28 2,-5 9,-2 40,16 56,46 l 1,1 q 7,12 2,17 -13,20 -56,13 1,-6 -2,-8 -5,-3 -11,-9 -3,-2 1,-1 4,1 14,5 9,4 14,6 7,1 0,-2 -51,-20 -52,-26 -3,-1 -3,1 8,11 10,10 4,-1 6,3 22,17 19,21 -7,1 -14,4 -2,-2 -4,-2 -4,-4 -8,-4 -4,0 -1,2 8,5 17,14 -4,-1 -11,-4 z m 23,59 q -4,-25 2,-29 1,-5 -1,-5 -5,-1 -5,3 -8,16 -4,20 l 2,6 q 3,18 3,33 -1,4 2,1 3,-5 3,-10 0,-4 -2,-19 z"
       inkscape:connector-curvature="0"
       style="fill:currentColor" />
  </g>
  <g
     id="g195"
     transform="matrix(1,0,0,-1,241.7806875,224.10646688)">
    <path
       id="path193"
       d="m 120,181 c 4,0 8.33333333,-0.33333333 13,-1 1.33333333,-0.66666667 2,-1.33333333 2,-2 0,-1.33333333 -0.66666667,-2 -2,-2 -0.66666667,-0.66666667 -2,-1.33333333 -4,-2 -3.33333333,-1.33333333 -5.66666667,-2.33333333 -7,-3 -14,-9.33333333 -29.666666667,-18 -47,-26 -4,-2 -4.333333333,-1.33333333 -1,2 22.666666667,14.66666667 36,25 40,31 0.66666667,2 2.66666667,3 6,3 z"
       inkscape:connector-curvature="0"
       style="fill:currentColor"
       sodipodi:nodetypes="scsccccccs" />
  </g>
  <g
     id="g250"
     transform="matrix(1,0,0,-1,189.1692429,18.854679284)">
    <path
       id="path248"
       d="m 200.03415754,67.246635116 c 14.66666667,1.33333333 26,-2.33333333 34,-11 0.66666667,-2 2.33333333,-4 5,-6 1.33333333,-1.33333333 2.66666667,-2.33333333 4,-3 4.66666667,-3.33333333 6.66666667,-5.66666667 6,-7 -0.66666667,-2 -2.33333333,-3.33333333 -5,-4 -2.66666667,-0.66666667 -4.66666667,-2.33333333 -6,-5 v -1 c -7.33333333,-18.66666667 -16,-32.66666667 -26,-42 -4,-4 -7.66666667,-5 -11,-3 -6,2 -11,5.33333333 -15,10 -0.66666667,-0.66666667 -2,-1.66666667 -4,-3 l -8,-4 c -4,-3.33333333 -4.33333333,-2.66666667 -1,2 0.66666667,2 0,2.66666667 -2,2 h -1 c -5.33333333,-1.33333333 -11.66666667,-3.66666667 -19,-7 -6,-5.33333333 -9.33333333,-5.66666667 -10,-1 -0.66666667,2 0.33333333,4.33333333 3,7 0.66666667,1.33333333 1.66666667,2.66666667 3,4 -4,5.33333333 -9,9.66666667 -15,13 -2,0.66666667 -3,1.66666667 -3,3 -0.66666667,2.66666667 0.33333333,5.66666667 3,9 -0.66666667,0.66666667 -1.33333333,2.33333333 -2,5 -2.66666667,6.66666667 -4.33333333,12.66666667 -5,18 l 1,1 c 0.66666667,-1.33333333 1.33333333,-3 2,-5 l 2,-2 c 2.66666667,-8.66666667 5.33333333,-14.66666667 8,-18 18,3.33333333 31,7.66666667 39,13 1.33333333,0.66666667 3,1.33333333 5,2 1.33333333,0 2.33333333,0.33333333 3,1 1.33333333,0 3.33333333,0.33333333 6,1 2.66666667,0.66666667 5,1 7,1 1.33333333,0 1.66666667,-0.66666667 1,-2 l -1,-1 c -0.66666667,-2 -1.66666667,-3 -3,-3 -6.66666667,-3.33333333 -11.66666667,-6 -15,-8 -4.66666667,-3.33333333 -7,-3.66666667 -7,-1 1.33333333,0.66666667 -0.33333333,0.33333333 -5,-1 -2,-0.66666667 -5,-1.33333333 -9,-2 -4.66666667,-0.66666667 -11.33333333,-1.33333333 -20,-2 0.66666667,-2.66666667 3.33333333,-6.66666667 8,-12 l 4,-2 4,-6 c 0.66666667,-0.66666667 1.33333333,-1 2,-1 0.66666667,-2 2.66666667,-2 6,0 2,0.66666667 5.66666667,1.66666667 11,3 2.66666667,0.66666667 4.33333333,1.33333333 5,2 2,2.66666667 4,4.33333333 6,5 h 8 c 3.33333333,0.66666667 6,1.33333333 8,2 2,0 3,-1 3,-3 0,-2.66666667 -1,-4 -3,-4 -6,-2 -10.33333333,-3.66666667 -13,-5 8.66666667,-7.33333333 16.33333333,-7 23,1 12,10 18,25.33333333 18,46 0.66666667,15.33333333 -9.33333333,22 -30,20 -18.66666667,-3.33333333 -34,-7 -46,-11 -4,-1.33333333 -7,-1.33333333 -9,0 -1.33333333,0.66666667 -1.33333333,1.33333333 0,2 15.33333333,6 34,10.33333333 56,13 z"
       inkscape:connector-curvature="0"
       style="fill:currentColor"
       sodipodi:nodetypes="cccccsccccccccccccccccccccccccccsscccccccccccccsccccscccccsccc" />
  </g>
  <g
     id="g369"
     transform="matrix(1,0,0,-1,116.26606989,4.8384407391)">
    <path
       id="path367"
       d="m 232.9022082,-67.129337539 6,-3 c 1.33333333,-0.666666667 2.66666667,-1 4,-1 0.66666667,0 1,-2 1,-6 v -1 c 3.33333333,0 8.33333333,0.666666667 15,2 6.66666667,0.666666667 12,1.333333333 16,2 v 5 c 0,3.333333333 -1.33333333,7.33333333 -4,12 -0.66666667,0.66666667 -1,1.66666667 -1,3 -2,2 -1.66666667,2.66666667 1,2 11.33333333,-6 15.33333333,-9.66666667 12,-11 0,-0.666666667 -0.33333333,-2 -1,-4 -0.66666667,-2 -1,-4.333333333 -1,-7 9.33333333,0.666666667 20,1.666666667 32,3 8,0 12.33333333,1.666666667 13,5 3.33333333,4 8,4.33333333 14,1 6.66666667,-6 15.33333333,-11 26,-15 4,-4 4.33333333,-7 1,-9 -7.33333333,1.333333333 -14.33333333,4.666666667 -21,10 -6.66666667,3.333333333 -12.33333333,4.666666667 -17,4 -17.33333333,-1.333333333 -33.33333333,-2.666666667 -48,-4 -0.66666667,-10.666666667 -1,-24.666666671 -1,-42.000000001 0,-17.33333333 0.33333333,-35.66666667 1,-55 0.66666667,-6 4.33333333,-12.33333333 11,-19 1.33333333,-0.66666667 1.66666667,-1.33333333 1,-2 -0.66666667,0 -2,-0.33333333 -4,-1 -4,0.66666667 -8.33333333,4.66666667 -13,12 -0.66666667,1.33333333 -1,1.66666667 -1,1 -1.33333333,3.33333333 -3,5.33333333 -5,6 -2,2 -2,4.33333333 0,7 1.33333333,3.33333333 3.66666667,3.66666667 7,1 -1.33333333,20 -2,36.66666667 -2,50 -0.66666667,14.66666667 -0.66666667,28.666666668 0,42.000000001 l -18,-3 c -6.66666667,-0.666666667 -11.33333333,-1 -14,-1 -2,-38.666666671 -10.66666667,-65.333333331 -26,-80.000000001 -6,-3.33333333 -6.66666667,-3 -2,1 13.33333333,16.66666667 20.66666667,41.66666667 22,75.000000001 -0.66666667,0.666666667 -0.33333333,1.666666667 1,3 -10.66666667,-1.333333333 -24.66666667,-3.666666667 -42,-7 -2,-0.666666667 -3.33333333,-1 -4,-1 -6.66666667,-2.666666667 -13,-2.333333333 -19,1 -4,0.666666667 -3.33333333,1.333333333 2,2 1.33333333,0 4,0.333333333 8,1 4.66666667,0.666666667 8.66666667,1.333333333 12,2 6.66666667,1.333333333 16.66666667,3 30,5 l 12,2 c -1.33333333,4.666666667 -3,7.666666667 -5,9 -1.33333333,0.666666667 -2,1.333333333 -2,2 0.66666667,0.666666667 1.66666667,1 3,1 z"
       inkscape:connector-curvature="0"
       style="fill:currentColor"
       sodipodi:nodetypes="cssscccsccccscccccccccsccccccccccccccccccccccsccccc" />
  </g>
</svg>
