<?xml version="1.0" encoding="UTF-8" standalone="no"?>
<svg
   xmlns:dc="http://purl.org/dc/elements/1.1/"
   xmlns:cc="http://creativecommons.org/ns#"
   xmlns:rdf="http://www.w3.org/1999/02/22-rdf-syntax-ns#"
   xmlns:svg="http://www.w3.org/2000/svg"
   xmlns="http://www.w3.org/2000/svg"
   xmlns:sodipodi="http://sodipodi.sourceforge.net/DTD/sodipodi-0.dtd"
   xmlns:inkscape="http://www.inkscape.org/namespaces/inkscape"
   version="1.1"
   viewBox="0 -52 768 256"
   id="svg6"
   sodipodi:docname="p_assistant.svg"
   width="768"
   height="256"
   inkscape:version="0.92.2 5c3e80d, 2017-08-06">
  <metadata
     id="metadata12">
    <rdf:RDF>
      <cc:Work
         rdf:about="">
        <dc:format>image/svg+xml</dc:format>
        <dc:type
           rdf:resource="http://purl.org/dc/dcmitype/StillImage" />
        <dc:title />
      </cc:Work>
    </rdf:RDF>
  </metadata>
  <defs
     id="defs10" />
  <sodipodi:namedview
     pagecolor="#ffffff"
     bordercolor="#666666"
     borderopacity="1"
     objecttolerance="10"
     gridtolerance="10"
     guidetolerance="10"
     inkscape:pageopacity="0"
     inkscape:pageshadow="2"
     inkscape:window-width="1359"
     inkscape:window-height="816"
     id="namedview8"
     showgrid="false"
     inkscape:zoom="1.0000000042"
     inkscape:cx="330.37897276"
     inkscape:cy="68.426783827"
     inkscape:window-x="0"
     inkscape:window-y="0"
     inkscape:window-maximized="0"
     inkscape:current-layer="svg6" />
  <g
     transform="matrix(1.0707511307,0,0,-1.0707511307,-3.9212928261,189.00230615)"
     id="g4">
    <path
       d="m 141,185 q 0,5 5,3 7,-3 14,-7 1,-4 -3,-5 -8,0 -12,-6 -11,-12 -31,-41 -3,-6 -5,-8 39,-44 72,-63 10,-9 25,-5 19,4 45,-2 3,-1 3,-3 0,-1 -4,-1 h -25 q -11,-1 -23,-2 -9,-2 -22,6 -35,24 -74,66 -35,-42 -70,-71 -8,-5 -1,2 33,30 66,74 -9,10 -17,0 -6,-4 -2,1 8,11 12,10 5,1 7,-2 1,-2 2,-3 0,-1 2,-2 1,2 5,7 19,29 23,38 -9,-5 -24,-14 -6,-3 -12,-7 -8,-6 -12,-6 -8,-13 -16,-20 -3,-3 -4,-2 -1,0 0,4 -1,1 0,3 1,1 1,3 0,5 5,6 7,-2 22,34 v 1 q 3,6 2,9 0,5 4,4 9,-4 5,-8 -2,-2 -4,-7 -5,-9 -9,-16 -2,-3 -1,-4 0,-1 3,1 1,0 4,2 26,15 38,23 6,1 6,8 z M 122,55 q 4,-3 0,-6 -12,-3 -30,2 -3,0 -3,1 0,1 3,2 17,4 30,1 z M 104,6 q 5,-1 15,-1 h 12 q 6,0 15,-5 2,-2 -2,-4 -17,0 -21,3 -7,2 -20,5 -5,2 1,2 z"
       id="path2"
       inkscape:connector-curvature="0"
       style="fill:currentColor" />
  </g>
  <g
     id="g126"
     transform="matrix(0.91509962257,0,0,-0.91509962257,278.56973318,155.13909887)">
    <path
       id="path124"
       d="m 87,134 c 0,-2.66666667 0.333333333,-4.66666667 1,-6 2.666666667,-8.66666667 3.333333333,-13 2,-13 C 83.333333333,105.66666667 79.333333333,94.333333333 78,81 77.333333333,72.333333333 76.666666667,61 76,47 75.333333333,30.333333333 75,16 75,4 c -1.333333333,-7.3333333333 2.666666667,-15.333333333 12,-24 2.666666667,-1.333333333 2.666666667,-3.666666667 0,-7 -1.333333333,-2 -3.666666667,-2 -7,0 -5.333333333,3.333333333 -11.333333333,10.666666667 -18,22 -2,3.3333333333 0.666666667,6.3333333333 8,9 -0.666666667,32.666666667 0,59.333333333 2,80 C 61.333333333,66.666666667 46.333333333,50.666666667 27,36 c -4.666666667,-2.666666667 -5,-2 -1,2 33.333333333,34 53,66 59,96 0,2.66666667 0.666666667,2.66666667 2,0 z M 190,-3 c 2,-3.3333333333 8,-5.3333333333 18,-6 12,0.6666666667 24,-2 36,-8 2,-1.333333333 2,-2 0,-2 -7.33333333,1.333333333 -14,2.333333333 -20,3 -6.66666667,0.666666667 -13.33333333,0.666666667 -20,0 -4,0 -7.33333333,1.333333333 -10,4 -14,12 -26,24.333333333 -36,37 -8.66666667,-15.3333333333 -19.66666667,-26 -33,-32 -5.33333333,-1.3333333333 -6,-0.6666666667 -2,2 11.33333333,6 22,17.333333333 32,34 l -8,8 -7,9 c -2,3.333333333 -5,4.666666667 -9,4 -2,0 -2.33333333,0.666666667 -1,2 2.66666667,1.333333333 5.66666667,2.666666667 9,4 0.66666667,0 1.66666667,-0.666666667 3,-2 1.33333333,-3.333333333 4,-7.666666667 8,-13 l 6,-9 c 4.66666667,8.666666667 9.33333333,20 14,34 2.66666667,6 2.33333333,10.333333333 -1,13 -0.66666667,0 -0.33333333,0.333333333 1,1 4.66666667,-1.333333333 9,-3.333333333 13,-6 v -2 c -1.33333333,-1.333333333 -2.33333333,-2 -3,-2 -1.33333333,0 -2.33333333,-1.333333333 -3,-4 -6.66666667,-16 -12.33333333,-28.666666667 -17,-38 6.66666667,-9.333333333 16.66666667,-19.6666666667 30,-31 z m -40,151 c -8,-5.33333333 -16.66666667,-9.33333333 -26,-12 -3.33333333,-0.66666667 -3.66666667,0 -1,2 14.66666667,7.33333333 24.66666667,14 30,20 2.66666667,3.33333333 2.66666667,5.66666667 0,7 -1.33333333,2 -0.33333333,3.33333333 3,4 4,-1.33333333 7.66666667,-2.66666667 11,-4 1.33333333,-0.66666667 2,-1.33333333 2,-2 0,-1.33333333 -0.66666667,-2 -2,-2 -2.66666667,-1.33333333 -5.33333333,-3.33333333 -8,-6 -1.33333333,-0.66666667 -2.66666667,-1.66666667 -4,-3 -1.33333333,-1.33333333 -2.33333333,-2 -3,-2 m 2.71689429,-3.73814894 c 0.21032962,0.17728258 2.10028179,1.54558574 3.43361512,0.8789191 C 161.48384274,145.80743683 160.66666667,145.66666667 162,145 c 0.66666667,-1.33333333 0.66666667,-2.33333333 0,-3 -2,-4.66666667 -3,-7.66666667 -3,-9 -4.66666667,-24 -9.66666667,-40 -15,-48 16,3.333333333 32.33333333,11 49,23 4,2.66666667 6,5.33333333 6,8 -0.66666667,1.33333333 0,2.66666667 2,4 h 1 2 c 2.66666667,-1.33333333 5.66666667,-2.66666667 9,-4 0,-0.66666667 0.33333333,-1 1,-1 1.33333333,-0.66666667 2.33333333,-1 3,-1 1.33333333,0 2,-1 2,-3 0,-2 -1.66666667,-2.66666667 -5,-2 -6.66666667,-0.66666667 -16.66666667,-4.33333333 -30,-11 -21.33333333,-12.666666667 -35,-17.666666667 -41,-15 0,0 -4.35008418,-6 -6,-6 -1.64991582,0 -1,1 -1,1 6.53506814,14.578228935 11.36437871,28.77740063 14.4879317,42.59751509 C 151.50676743,125.10533886 152.34412353,129.57283384 153,134 c 1.33333333,6.99756519 1.28812639,9.78112375 1.43935416,10.70628562 M 109,23 c 2.66666667,-4.666666667 5,-8.666666667 7,-12 0.66666667,-4 -1.33333333,-5.3333333333 -6,-4 -4,0.6666666667 -9,6 -15,16 -3.333333333,4 -2.333333333,7.333333333 3,10 2,0 3,2.666666667 3,8 -0.66666667,20 0,35.333333333 2,46 v 6 c 1.33333333,8 1.66666667,13.66666667 1,17 -0.66666667,1.33333333 -0.66666667,2.33333333 0,3 0.66666667,0 2,-0.66666667 4,-2 4.66666667,-8 6,-13 4,-15 -2.66666667,-6 -4.33333333,-13.666666667 -5,-23 -2.66666667,-14 -3.33333333,-26 -2,-36 -0.66666667,-6.666666667 0.66666667,-11.333333333 4,-14 z m 40,185 c 6,-5.33333333 7.66666667,-9.33333333 5,-12 -7.33333333,-16 -17,-27.66666667 -29,-35 -2,-0.66666667 -3,-0.66666667 -3,0 -0.66666667,0 0,1 2,3 -10,-0.66666667 -21,-4 -33,-10 4.666666667,-2.66666667 8.333333333,-8.66666667 11,-18 0,-3.33333333 -1.33333333,-4.33333333 -4,-3 -2.666666667,-0.66666667 -4.333333333,0.66666667 -5,4 -1.333333333,9.33333333 -4,14.33333333 -8,15 -2,0 -2.666666667,0.66666667 -2,2 0,1.33333333 1,2.33333333 3,3 13.333333333,4 21.66666667,8.33333333 25,13 0.66666667,2 3.33333333,2.66666667 8,2 2,-1.33333333 5.33333333,-2.66666667 10,-4 5.33333333,6.66666667 11,15.33333333 17,26 2,4.66666667 2,9 0,13 v 2 c 0.66666667,0 1.66666667,-0.33333333 3,-1 z m 32,-18 c 0,2.66666667 2.33333333,3.66666667 7,3 5.33333333,-2 9.66666667,-3.33333333 13,-4 1.33333333,-0.66666667 2,-1.66666667 2,-3 0,-2 -0.66666667,-3 -2,-3 -5.33333333,1.33333333 -13,-0.33333333 -23,-5 -15.33333333,-6.66666667 -26,-9.33333333 -32,-8 -2,0 -3,0.33333333 -3,1 0,0.66666667 1,1.33333333 3,2 8,1.33333333 17.33333333,4.66666667 28,10 3.33333333,1.33333333 5.66666667,3.66666667 7,7 z m -100,1 c 8.666666667,-11.33333333 10.333333333,-20 5,-26 -7.333333333,-13.33333333 -18.666666667,-24 -34,-32 -2.666666667,-0.66666667 -3,-0.33333333 -1,1 13.333333333,10 23,22 29,36 2,5.33333333 1.666666667,12 -1,20 -1.333333333,2.66666667 -0.666666667,3 2,1 z"
       inkscape:connector-curvature="0"
       style="fill:currentColor"
       sodipodi:nodetypes="ccccccccccccccccccccccccccccccccccccccccsccccccccccsccsccccccccccccccssccczcscccccccccccccccccccccccccccccccccccccccscccscccccccccc" />
  </g>
  <g
     id="g190"
     transform="matrix(1,0,0,-1,505.14708652,161.31917096)">
    <path
       id="path188"
       d="m 84,160 q -7,-4 -25,1 -4,1 1,2 h 7 q 10,1 17,3 l 4,1 q -3,7 -8,14 -4,3 1,2 10,-4 15,-14 10,2 21,4 9,2 19,4 13,19 9,31 -2,3 2,1 1,-2 3,-3 7,-5 5,-8 -3,-9 -10,-19 3,0 9,1 1,0 2,1 h 1 q 7,2 9,6 2,4 8,2 7,-3 14,-4 2,-2 2,-5 -2,-2 -4,-1 -16,0 -24,-2 -1,-1 -3,-1 -7,-1 -17,-3 l -5,-5 q -16,-17 -25,-22 7,-3 11,-6 20,5 39,1 14,-1 22,-17 1,-4 0,-5 -1,-1 -4,0 -13,5 -51,-6 -8,-2 -1,2 3,1 12,5 5,2 11,5 12,2 16,5 3,1 3,3 -1,3 -4,4 -21,4 -41,-1 1,-12 -5,-11 -5,-1 -9,4 -1,2 -1,3 l -4,-2 q -12,-4 -21,-5 -2,0 -2,1 0,1 2,2 3,1 8,2 10,4 16,6 -2,4 -12,9 l -3,1 q 1,1 6,1 4,0 9,-1 13,13 23,25 -8,-2 -15,-4 -14,-3 -19,-4 1,-5 3,-10 -1,-4 -4,-2 -6,3 -7,9 l -1,1 q -1,0 -2,-1 z M 136,32 q 4,5 10,1 l 4,-4 q 5,-3 8,-6 2,-3 2,-5 -1,-2 -4,-2 -5,0 -9,-4 -5,-5 -15,-12 h 19 q 5,-3 1,-7 -4,-1 -9,0 -8,4 -28,3 -3,1 0,1 4,3 8,3 9,11 14,23 2,3 -2,2 -8,-1 -15,-4 -7,-3 -11,-3 -3,0 0,2 7,4 15,5 6,0 10,5 z m -13,52 q 11,4 17,-5 24,-40 46,-56 3,-6 21,-7 29,-4 44,-9 l 3,-3 q -1,-1 -3,0 -11,1 -38,3 -5,0 -9,1 -6,0 -17,7 l -3,3 q -24,21 -47,57 -6,8 -13,7 -2,0 -1,2 z m -14,2 q 2,3 7,-3 1,-2 -1,-4 -8,-1 -16,-17 -41,-67 -66,-87 -6,-4 -2,1 31,29 64,90 l 1,2 q 7,13 13,18 z M 92,29 q 0,3 1,0 1,-11 4,-12 1,-5 3,-10 1,-9 12,-16 2,-4 -2,-5 -8,2 -16,12 -3,2 0,6 1,2 0,6 -2,6 -2,19 z m 21,73 q 5,2 1,0 -5,-4 -8,-7 -10,-7 -15,-12 -4,-3 -2,-6 1,-4 -3,-4 -8,6 -7,15 0,3 4,2 0,-3 6,0 3,1 9,5 11,5 15,7 z m -34,24 q 4,2 1,-1 -9,-14 -6,-18 4,-6 2,-10 -5,-4 -7,0 -11,14 10,29 z m 72,-14 q 3,3 9,-5 1,-3 0,-3 0,-1 -3,0 -2,0 -11,-2 2,1 -2,0 -6,-3 -15,-5 h -3 q -5,-2 -1,2 16,7 26,13 z"
       inkscape:connector-curvature="0"
       style="fill:currentColor" />
  </g>
</svg>
