<?xml version="1.0" encoding="UTF-8" standalone="no"?>
<svg
   xmlns:dc="http://purl.org/dc/elements/1.1/"
   xmlns:cc="http://creativecommons.org/ns#"
   xmlns:rdf="http://www.w3.org/1999/02/22-rdf-syntax-ns#"
   xmlns:svg="http://www.w3.org/2000/svg"
   xmlns="http://www.w3.org/2000/svg"
   xmlns:sodipodi="http://sodipodi.sourceforge.net/DTD/sodipodi-0.dtd"
   xmlns:inkscape="http://www.inkscape.org/namespaces/inkscape"
   version="1.1"
   viewBox="0 -52 768 256"
   id="svg6"
   sodipodi:docname="dean.svg"
   width="768"
   height="256"
   inkscape:version="0.92.2 5c3e80d, 2017-08-06">
  <metadata
     id="metadata12">
    <rdf:RDF>
      <cc:Work
         rdf:about="">
        <dc:format>image/svg+xml</dc:format>
        <dc:type
           rdf:resource="http://purl.org/dc/dcmitype/StillImage" />
        <dc:title></dc:title>
      </cc:Work>
    </rdf:RDF>
  </metadata>
  <defs
     id="defs10" />
  <sodipodi:namedview
     pagecolor="#ffffff"
     bordercolor="#666666"
     borderopacity="1"
     objecttolerance="10"
     gridtolerance="10"
     guidetolerance="10"
     inkscape:pageopacity="0"
     inkscape:pageshadow="2"
     inkscape:window-width="1187"
     inkscape:window-height="711"
     id="namedview8"
     showgrid="false"
     inkscape:zoom="0.97687538416"
     inkscape:cx="348.94486267"
     inkscape:cy="79.957720396"
     inkscape:window-x="0"
     inkscape:window-y="0"
     inkscape:window-maximized="0"
     inkscape:current-layer="svg6" />
  <g
     transform="matrix(1,0,0,-1,0,162)"
     id="g4">
    <path
       d="m 147,154 12,3 h 1 q 4,1 5,3 1,4 8,2 7,-2 15,-3 2,-1 2,-3 -1,-2 -3,-2 -9,-1 -20,-2 -10,-1 -21,-3 -1,-5 -3,-16 -2,-16 -3,-20 23,4 46,7 9,1 15,7 3,5 13,2 2,-2 6,-4 8,-3 10,-4 3,-3 2,-6 -2,-3 -6,-1 -11,4 -26,3 -15,0 -48,-5 -6,-1 -24,-9 -2,-11 -2,-21 13,3 22,4 9,1 20,1 5,0 14,-11 1,-5 5,-4 7,-6 1,-11 -4,0 -7,-5 -16,-22 -34,-33 -13,-9 -19,2 -2,1 -1,2 h 4 q 4,-2 17,5 24,15 26,39 -1,10 -8,12 -9,3 -40,-6 V 60 q 4,1 6,3 2,3 8,3 h 10 q 3,-3 -1,-5 -8,-1 -24,-7 V 41 h 4 q 3,1 5,2 1,0 2,1 1,1 3,2 1,1 6,2 9,0 14,-1 0,-5 -6,-6 -16,-2 -41,-9 1,-7 -2,-6 -6,-1 -9,4 -3,4 -4,2 -3,-3 -8,3 -4,4 1,8 3,2 0,5 -12,13 -11,23 -1,4 8,11 5,3 2,-2 -7,-5 -4,-10 3,-19 9,-23 3,-2 5,-6 1,-3 5,-3 4,1 6,-1 3,1 9,2 1,3 1,14 -10,-3 -20,-3 -3,-1 0,1 4,1 12,4 5,2 8,3 v 18 q -17,-8 -27,-8 -3,2 1,4 13,3 26,8 0,8 -1,12 v 8 q -1,-1 -3,-2 h -1 q -4,0 -1,2 2,0 3,1 1,0 2,1 v 3 Q 54,90 34,83 23,80 16,83 q -3,0 -3,1 1,1 4,2 42,10 57,13 12,3 25,6 1,9 1,33 -9,-1 -28,-6 -5,-2 -13,2 -3,1 -3,2 0,1 3,1 11,-1 15,1 l 12,3 q 8,1 13,3 -2,38 -11,42 -4,2 1,2 3,-1 15,-6 2,-1 3,-2 0,-1 -1,-2 -3,-2 -2,-7 0,-3 1,-13 0,-6 1,-13 11,3 35,8 l 2,28 q 0,12 -1,16 0,1 2,0 6,-2 11,-7 1,-2 0,-3 -3,-6 -4,-13 -2,-11 -4,-20 z m -43,-48 30,6 q 1,1 6,36 -22,-5 -34,-8 -1,-13 -2,-34 z M 128,9 q -5,2 1,2 50,-12 70,-29 5,-5 0,-8 -13,-2 -18,4 -16,19 -53,31 z m -16,9 q 1,-6 -2,-13 -10,-17 -34,-29 -4,-1 -5,0 -1,2 3,3 28,16 36,40 1,4 2,-1 z m 20,91 q -2,0 -3,-1 0,-1 -1,-2 6,3 4,3 z"
       id="path2"
       inkscape:connector-curvature="0"
       style="fill:currentColor" />
  </g>
  <g
     id="g157"
     transform="matrix(1,0,0,-1,249.04028813,167.31466924)">
    <path
       id="path155"
       d="m 119,204 q 22,-1 29,-14 1,-1 0,-3 -3,-3 -6,-1 -4,2 -11,1 -5,-3 -13,-2 -3,-1 0,1 2,0 7,6 3,4 0,6 -2,1 -6,5 -3,1 0,1 z m 78,-16 q 10,-5 19,-11 0,-1 -1,-1 -4,-3 -5,-1 h -3 q -4,2 -8,2 h -16 q -51,-1 -122,-20 -2,-1 -6,-2 -12,-4 -21,-1 -2,0 1,1 10,1 23,4 69,17 130,25 5,6 9,4 z m -70,-25 q 7,-1 12,-5 0,-1 -2,-2 -4,0 -8,-4 l -3,-3 q -13,-11 -25,-24 -2,-3 1,-1 31,8 50,16 -1,4 2,5 l 2,2 q 10,-4 18,-3 5,0 4,-4 0,-3 -4,-2 -18,-1 -40,-12 -15,-9 -21,-15 -1,-5 5,-5 5,0 8,-2 0,-4 -1,-3 -3,0 -4,-6 0,-13 -1,-19 4,0 11,5 5,3 14,6 -1,8 1,22 0,3 -1,4 h -4 q -3,-2 -6,-1 -2,0 3,3 8,3 17,-3 1,-2 3,-3 l 4,-2 q -1,-4 -2,-4 -9,-2 -9,-16 V 59 q 2,-2 0,-5 0,-33 6,-50 9,-22 9,-27 -3,-1 -3,0 -3,2 -6,7 -5,8 -9,14 -6,5 -15,23 -2,3 1,1 0,-2 2,-3 8,-12 14,-15 1,-1 2,0 1,1 1,4 -3,18 -6,45 -1,-1 -3,-2 h -3 q -5,-1 -4,1 1,0 -3,0 -5,-3 -15,-2 1,-58 -33,-68 -5,0 -1,2 20,11 28,32 6,37 4,80 0,4 -2,6 -9,5 -3,10 7,6 26,19 h -1 q -3,-1 -9,-4 -7,-2 -11,-3 -24,-7 -34,-13 -6,-4 -5,-1 1,4 1,7 0,2 3,2 h 1 q 9,0 13,6 l 22,22 6,6 q 3,4 1,8 0,1 2,2 z M 119,51 h 1 q 10,2 14,4 6,1 12,4 0,13 -1,22 -3,-3 -9,-4 -3,-1 -3,-2 -3,-2 -4,-2 l 1,3 q -6,-2 -10,-1 0,-3 -1,-12 z"
       inkscape:connector-curvature="0"
       style="fill:currentColor" />
  </g>
  <g
     id="g269"
     transform="matrix(1,0,0,-1,497.0440514,161.68385436)">
    <path
       id="path267"
       d="m 182,198 q 1,4 8,1 3,-1 9,-4 1,-1 3,-1 2,-4 -2,-5 -7,0 -11,-6 l -6,-8 q -7,-10 -20,-26 9,-11 30,-31 4,-4 13,-5 h 24 q 6,-1 20,-5 1,-3 -1,-3 h -11 q -14,2 -29,2 -7,-1 -15,7 -19,16 -35,32 -22,-25 -42,-38 -5,-4 -1,1 21,15 40,41 -14,14 -19,15 -2,0 -8,-4 -1,-2 -2,-2 -6,-4 -2,2 11,8 17,8 3,0 14,-14 1,-1 3,-2 15,19 22,33 1,2 0,2 0,1 -2,1 -16,-5 -25,-8 -7,-4 -22,-5 -5,0 -1,2 8,1 25,6 11,4 18,6 4,1 8,8 z m -89,-1 q 2,1 6,0 6,-4 12,-7 3,-4 -1,-5 -7,-2 -10,-6 -5,-5 -14,-13 -9,-8 -13,-12 12,3 16,7 h 1 q 3,2 8,0 4,-3 7,-4 2,-2 2,-3 0,-1 -2,-2 -4,-2 -15,-16 8,1 16,-3 2,-2 0,-4 v -1 q -6,-3 -10,-13 12,2 14,1 2,-4 -1,-5 -15,-1 -42,-12 -2,0 -4,-1 0,-3 3,-6 1,-2 2,-2 1,-2 0,-3 -2,-1 -3,0 -7,2 -14,10 -3,3 0,7 4,2 4,7 -3,29 -2,59 0,9 -2,18 -2,3 2,0 0,-2 1,-4 2,-3 3,-4 11,8 28,14 h 1 q 5,0 7,3 z m -5,-40 q -20,-9 -31,-18 -2,-33 5,-38 11,3 21,9 7,7 11,18 -1,6 -7,4 -13,-8 -21,-8 -4,0 0,2 6,1 16,8 9,8 10,20 0,3 -4,3 z m -30,22 q 1,-3 1,-6 v -1 q -2,-11 -1,-23 2,1 11,4 16,19 26,34 2,6 -2,7 -20,-7 -35,-15 z m 98,-81 q 2,-3 2,-4 -1,-2 -3,-2 -5,-3 -4,-9 -2,-19 -1,-64 0,-4 -5,-1 -1,0 -2,1 -7,4 -10,8 -4,2 2,2 12,-2 12,3 1,3 1,16 -15,-6 -18,-11 -32,-47 -68,-58 -8,-1 -1,2 43,19 66,59 -16,-4 -33,-13 -8,-5 -18,-3 -3,0 -1,3 5,-1 10,0 l 1,1 q 2,1 7,3 4,1 7,3 -2,4 -3,5 -3,2 -4,8 -2,2 2,4 -1,22 1,27 1,4 0,8 -2,7 5,11 24,12 37,12 3,1 18,-11 z m -55,-2 q -4,-2 -2,-12 1,-7 1,-11 2,0 5,2 2,1 3,2 9,8 18,8 3,-1 0,-4 -3,-3 -6,-4 -3,0 -5,-3 -2,-3 -1,0 -1,2 -3,2 -6,-3 -11,-4 0,-2 -1,-4 0,-7 1,-12 10,-1 18,6 h 1 q 3,3 6,3 1,0 5,-1 1,-1 0,-2 -9,-3 -13,-7 -2,-2 -3,-2 v 2 q 0,1 -3,0 -6,-3 -11,-3 1,-10 4,-16 10,4 21,8 4,1 6,4 0,1 17,3 l -3,48 q -3,6 -8,9 -1,-1 -15,-6 -2,-2 -7,-3 h -3 q -7,0 -11,-3 z M 136,9 q -5,4 2,2 44,-23 50,-34 1,-4 -3,-6 -10,0 -16,9 -13,18 -33,29 z"
       inkscape:connector-curvature="0"
       style="fill:currentColor" />
  </g>
</svg>
