<?xml version="1.0" encoding="UTF-8" standalone="no"?>
<svg
   xmlns:dc="http://purl.org/dc/elements/1.1/"
   xmlns:cc="http://creativecommons.org/ns#"
   xmlns:rdf="http://www.w3.org/1999/02/22-rdf-syntax-ns#"
   xmlns:svg="http://www.w3.org/2000/svg"
   xmlns="http://www.w3.org/2000/svg"
   xmlns:sodipodi="http://sodipodi.sourceforge.net/DTD/sodipodi-0.dtd"
   xmlns:inkscape="http://www.inkscape.org/namespaces/inkscape"
   version="1.1"
   viewBox="0 -52 768 256"
   id="svg6"
   sodipodi:docname="p_director.svg"
   width="768"
   height="256"
   inkscape:version="0.92.2 5c3e80d, 2017-08-06">
  <metadata
     id="metadata12">
    <rdf:RDF>
      <cc:Work
         rdf:about="">
        <dc:format>image/svg+xml</dc:format>
        <dc:type
           rdf:resource="http://purl.org/dc/dcmitype/StillImage" />
        <dc:title />
      </cc:Work>
    </rdf:RDF>
  </metadata>
  <defs
     id="defs10" />
  <sodipodi:namedview
     pagecolor="#ffffff"
     bordercolor="#666666"
     borderopacity="1"
     objecttolerance="10"
     gridtolerance="10"
     guidetolerance="10"
     inkscape:pageopacity="0"
     inkscape:pageshadow="2"
     inkscape:window-width="1057"
     inkscape:window-height="721"
     id="namedview8"
     showgrid="false"
     inkscape:zoom="1.2122395833"
     inkscape:cx="384"
     inkscape:cy="128"
     inkscape:window-x="0"
     inkscape:window-y="0"
     inkscape:window-maximized="0"
     inkscape:current-layer="svg6" />
  <g
     transform="matrix(1.0781914163,0,0,-1.0781914163,6.0475747469,177.17243988)"
     id="g4">
    <path
       d="m 140,196 q 3,-4 9,-8 2,-4 1,-6 -2,-1 -5,-5 v -1 q -4,-7 -11,-15 1,-1 2,0 1,1 3,1 1,-1 3,1 6,4 14,1 2,-3 6,-8 3,-2 4,-2 2,-6 -2,-7 -5,0 -6,-6 -2,-21 -4,-38 5,-2 2,-6 -2,-2 -2,-3 -1,-72 12,-104 0,-2 -2,-4 -3,-1 -4,1 l -4,8 q -4,6 -12,24 -2,5 2,1 5,-5 7,-9 1,-2 2,-2 1,0 1,3 -3,14 -4,32 -1,15 -2,44 -6,-8 -16,-23 -4,-5 -7,-10 -7,-12 -17,-16 -7,-4 -9,-9 5,1 9,0 2,-4 1,-6 -5,-3 -10,-2 -9,0 -16,-4 -4,1 -1,5 4,3 10,5 -2,1 4,14 v 3 h -3 q -4,-2 -20,-8 4,-11 5,-16 1,-6 5,-8 1,-5 -4,-5 -15,7 -9,12 3,6 2,9 -5,7 -4,18 1,3 2,0 0,-2 1,-4 0,-3 1,-4 18,8 20,11 3,2 8,1 9,-3 10,-5 13,10 34,46 -7,-5 -15,-10 v -4 l 1,-1 q 0,-4 -3,-3 -3,1 -4,5 -1,-1 -6,-3 -3,-2 -5,0 -2,3 0,6 3,3 7,10 1,1 2,3 0,2 -1,7 -2,-1 -3,1 -2,1 0,3 h 2 q 0,1 1,1 1,7 1,20 -3,0 -3,1 0,1 3,2 0,11 -1,17 l -4,-4 q -5,-2 -4,3 1,7 8,11 6,2 15,22 5,9 1,15 -3,4 2,2 z m 7,-33 q -8,-1 -15,-8 -4,-8 -5,-25 h 1 q 3,1 5,3 2,4 10,5 3,-1 1,-4 -6,-5 -12,-13 -5,-5 -2,2 4,7 1,5 -2,-2 -4,-1 -1,-3 -1,-9 v -9 q 4,0 9,6 1,3 16,6 -1,18 1,30 0,2 1,4 1,7 -6,8 z m 4,-46 q -7,-1 -24,-23 0,-2 1,-4 0,-3 1,-4 11,6 15,10 2,5 5,2 l 2,2 z m -21,-13 q -1,0 -2,-1 -1,-1 -1,0 v -4 q 1,3 3,5 z m -7,-17 q -1,-1 -2,-3 v -1 l 2,1 z m 69,101 q 9,-8 12,-9 4,-2 1,-6 -7,-8 -2,-56 24,5 24,9 2,3 9,3 5,-2 10,-3 1,-1 1,-2 0,-1 -1,-1 -10,-1 -43,-10 1,-70 7,-109 -1,-4 -6,-3 -7,11 -12,16 -2,1 -5,5 -3,3 -8,11 -2,5 2,2 8,-12 19,-16 3,-2 4,4 -3,47 -6,88 -14,-3 -24,-7 -8,-3 -13,0 -3,1 0,2 6,1 16,4 12,3 21,5 -5,75 -8,72 -3,4 2,1 z M 76,187 q 6,-3 14,-5 h 2 q 5,-1 14,-8 2,-4 -1,-5 -10,2 -22,1 -6,1 0,2 4,1 4,2 1,1 -1,4 -2,1 -5,3 -3,2 -5,4 -3,2 0,2 z m 30,-81 q 2,-1 2,-3 0,-1 -2,-1 -5,0 -8,-3 L 86,93 q -6,-2 -2,2 L 73,92 h -2 q 0,1 3,3 13,5 20,12 3,3 12,-1 z M 91,81 q 2,2 12,1 2,-3 0,-5 -13,0 -28,-21 -4,-3 -1,1 8,10 9,12 2,4 -1,2 -7,-3 -10,-3 -5,0 0,2 8,3 19,11 z m 83,-1 q 2,-1 5,-3 5,-2 9,-3 3,-1 3,-7 -2,-5 -6,-2 -5,3 -13,12 -2,1 -2,2 1,1 4,1 z m -54,50 q -13,-3 -25,-3 -9,0 -21,-3 -14,-6 -48,-14 -13,-4 -20,1 -2,0 -2,2 1,1 4,2 21,-4 90,19 9,2 22,1 2,-1 2,-3 0,-2 -2,-2 z"
       id="path2"
       inkscape:connector-curvature="0"
       style="fill:currentColor" />
  </g>
  <g
     id="g181"
     transform="matrix(0.87123208719,0,0,-0.87123208719,277.02546093,158.83909392)">
    <path
       id="path179"
       d="m 125,216 q 6,-5 9,-8 2,-2 1,-7 -3,-8 -3,-16 3,-1 8,1 2,-1 5,2 1,0 2,1 2,3 19,0 3,-1 3,-3 0,-3 -3,-3 -13,-2 -35,-9 0,-3 -1,-10 v -10 q 31,5 40,6 9,1 14,-1 6,0 27,-23 2,-3 1,-4 0,-1 -3,-1 -12,0 -17,-9 -21,-34 -44,-37 -6,-1 -21,10 0,-4 1,-4 6,-5 7,-7 0,-3 -4,-6 23,-36 53,-52 9,-5 18,-5 24,1 35,-5 2,-2 2,-3 -1,-2 -3,-2 -10,-1 -19,-1 -6,0 -11,1 -13,-1 -19,6 -47,37 -59,55 -1,-60 -1,-72 1,-17 5,-28 0,-3 -2,-5 -3,-2 -5,0 -16,16 -29,33 -4,3 -2,3 1,0 5,-3 4,-1 8,-5 7,-5 10,-7 3,-2 4,-2 1,1 1,4 3,33 -1,79 Q 71,21 39,4 35,2 34,3 q 0,2 4,4 48,33 82,76 -6,5 -3,10 -12,-2 -21,-7 -4,-2 -7,0 -2,2 0,6 2,4 -6,6 -9,1 -5,9 3,3 -4,10 -11,9 -8,14 -2,1 9,11 5,4 3,2 21,17 27,20 5,1 1,-2 l -5,-5 q -18,-14 -26,-23 -4,-3 1,-9 10,-14 21,-22 1,-2 3,-3 l 3,-3 h 2 q 5,1 15,4 v 19 q -24,-11 -33,-5 -4,0 -3,2 0,1 4,2 16,1 32,9 v 17 q -9,-3 -19,-7 -7,-4 -19,-2 -4,0 0,2 6,2 11,4 14,7 28,11 v 17 q -2,-1 -5,-3 l -4,-2 q -3,-2 -4,-1 -1,1 2,4 1,0 6,6 -19,-6 -29,-2 -4,1 0,2 20,3 35,8 v 9 q 0,16 -1,24 0,1 1,2 1,0 3,-1 z m 48,-59 q -24,-4 -43,-10 -2,-11 -1,-17 15,4 15,5 1,3 8,4 3,-1 7,-1 h 7 q 1,-1 1,-2 0,-2 -1,-2 -6,-3 -33,-11 -4,-1 -5,-1 0,-4 -1,-11 -1,-6 0,-8 12,1 23,5 11,4 14,0 2,-4 -2,-6 -11,0 -28,-4 16,-8 30,3 19,16 23,46 -3,10 -14,10 z"
       inkscape:connector-curvature="0"
       style="fill:currentColor" />
  </g>
  <g
     id="g298"
     transform="matrix(1,0,0,-1,515.8934066,167.91538461)">
    <path
       id="path296"
       d="m 133,83 6,-3 q 2,-1 4,-1 2,-1 2,-3 0,-2 -2,-2 -8,-4 -19,-15 6,2 19,4 l 6,2 -2,8 q -3,2 1,1 4,-3 8,-8 19,2 36,1 10,-2 20,-14 4,-5 1,-7 -3,-3 -3,-7 -4,-27 -22,-39 -5,-2 -9,0 -8,6 -17,15 -4,5 1,1 14,-10 21,-11 20,9 21,46 -2,7 -12,12 -17,2 -38,-1 -2,-29 -3,-61 0,-7 3,-10 3,-2 5,-7 0,-1 -3,-3 -3,0 -5,5 -3,7 -8,11 -1,3 3,4 3,0 3,4 v 20 36 q -14,-2 -26,-6 v -3 q 0,-7 3,-12 1,-2 3,-15 -2,-5 -5,-1 -3,5 -2,13 -1,10 -3,17 l -6,-2 q -3,-2 -1,2 5,3 6,3 5,6 10,14 1,1 3,4 3,4 -1,7 -2,2 2,1 z M 104,45 q -2,-2 0,-6 2,-4 1,-8 -2,-2 -1,-3 0,-1 1,-3 4,-9 7,-11 0,-3 -1,-4 -2,-1 -3,1 -11,9 -8,14 1,8 0,15 -1,4 3,6 2,0 1,-1 z m 52,150 q 1,5 17,-3 4,-5 -2,-7 -6,2 -12,1 -5,-1 -21,-6 6,-4 9,-13 39,8 64,-1 8,-3 14,-22 0,-4 -1,-5 -2,-1 -4,1 -1,1 -5,0 -7,-3 -17,-4 -9,-1 -14,0 -3,0 0,2 16,3 29,9 8,5 -2,14 -23,9 -64,1 -1,-2 -2,-8 0,-8 -1,-14 14,5 20,13 5,4 2,4 -2,1 1,2 2,0 5,-3 h 2 q 1,-2 -1,-5 -4,-2 -9,-5 -4,-2 -7,-3 -8,-4 -13,-5 -2,-24 -2,-39 3,0 12,2 5,2 8,3 4,7 8,7 7,-2 16,-8 2,-3 -2,-2 -11,1 -31,-7 l -6,-2 q -3,-2 -5,-2 -3,-1 0,2 h 2 q 2,1 3,2 2,2 0,2 -27,-11 -31,-10 -6,0 -10,2 -3,1 1,2 2,-1 7,0 4,0 12,3 h 3 q 5,2 9,4 -1,6 -3,12 l -1,1 q 0,1 3,3 1,6 1,12 -6,-5 -16,-16 -5,-6 -7,-8 -4,-5 -5,-2 -2,2 -1,12 0,4 2,1 2,-3 4,-1 5,3 18,14 3,2 5,4 v 10 q 1,13 1,20 -10,-3 -22,-9 -4,-2 -11,0 -3,0 -3,1 -1,1 2,2 l 18,6 q 9,3 15,6 0,10 -1,12 -2,2 0,3 -2,0 -4,-1 -9,0 -14,2 -3,0 -3,1 1,1 4,2 10,0 29,6 6,2 7,5 z m -36,-55 q 4,2 12,1 3,-4 -2,-6 -3,-1 -7,-3 -1,-1 -2,-1 -3,-2 -4,-2 l 1,3 q 2,2 -8,4 -2,0 0,1 5,0 10,3 z m -21,6 h -1 q -3,-11 0,-20 1,-6 1,-8 -4,-4 -6,-1 -5,7 -4,17 -1,4 2,4 2,-2 6,8 2,2 2,0 z m 79,-22 q 3,-9 -4,-8 -6,3 -9,3 -3,-2 -2,2 2,4 -12,8 -2,0 -2,1 0,1 2,2 14,-3 27,-8 z M 74,184 q 2,-4 7,-8 1,-1 2,-1 3,-3 3,-4 0,-1 -4,-3 -6,-3 -10,-20 -6,-18 -8,-61 -2,-42 2,-70 v -4 q 0,0 2,-3 6,-8 15,-15 0,-5 -5,-5 -8,10 -24,16 -6,3 -3,9 2,1 8,2 4,-3 4,6 -1,7 -1,20 -2,47 2,102 -31,-50 -50,-66 -8,-6 -2,2 24,29 55,86 5,10 5,15 -2,7 2,2 z"
       inkscape:connector-curvature="0"
       style="fill:currentColor" />
  </g>
</svg>
